<svg xmlns="http://www.w3.org/2000/svg" xmlns:xlink="http://www.w3.org/1999/xlink" width="500" height="300" viewBox="0 0 500 300"><defs><path id="a" d="M103.153 199.074l8.68-56.418L137.873 96l21.7-24.953 33.635-21.157 36.89-13.02 32.005-2.713 27.126 4.883 35.26 10.308 26.583 16.274 21.7 22.242 21.7 30.922 9.765 24.956 5.424 23.87 2.17 28.208z"/></defs><clipPath id="b"><use xlink:href="#a" overflow="visible"/></clipPath><g clip-path="url(#b)"><defs><path id="c" d="M99.9 163.27S117.8 25.253 254.184 25.253c144.627 0 154.392 136.388 154.392 136.388l.542 36.893-310.306-3.8 1.085-31.462z"/></defs><clipPath><use xlink:href="#c" overflow="visible"/></clipPath></g><path fill="#E04632" d="M112.69 105.583c-2.208 0-4.33-.63-6.31-1.87-2.826-1.77-4.643-4.323-5.398-7.582-.754-3.258-.238-6.345 1.535-9.174 1.145-1.827 2.712-3.28 4.658-4.316l.256-.136L112 85.37l-1.355.19c-.952.135-1.656.248-2.113.338-.438.087-1.02.245-1.724.468-.66.21-1.217.494-1.653.842-.44.352-.833.8-1.165 1.33-.212.34-.396.702-.547 1.082l16.894 10.59c.337-.382.593-.71.762-.98.664-1.06.946-2.152.837-3.242-.115-1.152-.52-2.52-1.204-4.063l-.662-1.494 4.916 3.082-.007.285c-.054 2.155-.678 4.2-1.855 6.08-1.773 2.83-4.327 4.638-7.59 5.38-.963.216-1.92.326-2.846.326z"/><path fill="#fff" d="M107.41 83.082l3.165 1.984c-.964.136-1.678.25-2.14.342s-1.055.253-1.778.482c-.722.23-1.327.54-1.814.928s-.913.875-1.277 1.456c-.302.482-.546 1-.73 1.555l17.59 11.027c.5-.542.867-.995 1.096-1.36.73-1.164 1.033-2.35.912-3.56-.12-1.21-.536-2.615-1.245-4.216l3.288 2.063c-.05 2.074-.644 4.016-1.778 5.827-1.708 2.725-4.133 4.443-7.277 5.157-.93.21-1.842.317-2.734.317-2.123 0-4.137-.598-6.043-1.793-2.724-1.707-4.45-4.13-5.177-7.27-.727-3.14-.237-6.073 1.47-8.797 1.105-1.762 2.595-3.14 4.47-4.14m.042-1.156l-.51.272c-2.025 1.077-3.656 2.588-4.848 4.49-1.847 2.945-2.384 6.16-1.598 9.553.786 3.393 2.677 6.05 5.62 7.894 2.06 1.29 4.27 1.946 6.573 1.946.962 0 1.956-.115 2.955-.342 3.397-.77 6.056-2.654 7.902-5.6 1.226-1.957 1.876-4.087 1.93-6.333l.015-.57-.482-.3-3.29-2.063-2.767-1.735 1.322 2.986c.663 1.496 1.054 2.812 1.164 3.91.098.992-.152 1.95-.765 2.93-.106.168-.253.367-.438.592l-16.163-10.133c.102-.214.216-.42.34-.62.303-.483.657-.89 1.054-1.206.388-.31.89-.565 1.493-.758.688-.217 1.25-.37 1.67-.454.44-.087 1.14-.2 2.085-.333l2.71-.383-2.32-1.455-3.163-1.984-.49-.306z"/><path fill="#E04632" d="M128.868 86.698c-2.135 0-4.453-1.032-6.887-3.07l-10.577-8.85 6.152-7.353 16.706 13.978c.11-.09.202-.18.276-.27.866-1.033.91-2.61.133-4.69-.815-2.177-2.31-4.185-4.442-5.97l-2.73-2.284-7.235-4 2.904-3.472.336.134c.114.045.162.064 8.748 7.25 2.52 2.107 4.182 4.582 4.938 7.353.775 2.838.407 5.187-1.095 6.98-2.233 2.67-4.516 4.098-6.785 4.248-.145.01-.292.015-.44.015z"/><path fill="#fff" d="M123.317 61.317c.058.023 2.93 2.412 8.612 7.167 2.45 2.05 4.042 4.418 4.774 7.102.733 2.684.4 4.86-.996 6.53-2.152 2.57-4.296 3.927-6.434 4.068-.135.01-.27.013-.407.013-2.025 0-4.213-.984-6.566-2.953l-10.194-8.53 5.51-6.586 16.624 13.91c.29-.193.516-.388.68-.584.993-1.188 1.065-2.916.216-5.186-.85-2.27-2.378-4.33-4.59-6.18l-2.728-2.283-6.785-3.76 2.284-2.728m-.302-1.196l-.464.556-2.282 2.73-.777.928 1.06.587 6.703 3.715 2.656 2.223c2.065 1.728 3.51 3.667 4.293 5.762.686 1.833.694 3.212.025 4.102l-15.968-13.36-.767-.642-.642.767-5.51 6.586-.642.767.767.642 10.195 8.53c2.527 2.114 4.952 3.186 7.208 3.186.16 0 .316-.005.473-.015 2.412-.16 4.812-1.648 7.136-4.425 1.612-1.927 2.014-4.428 1.193-7.434-.785-2.87-2.5-5.43-5.1-7.605-8.648-7.236-8.67-7.245-8.884-7.33l-.67-.27z"/><path fill="#E04632" d="M146.28 66.99c-.242 0-.486-.006-.733-.02-3.34-.178-6.16-1.517-8.384-3.98-2.236-2.477-3.287-5.427-3.124-8.77.163-3.34 1.502-6.17 3.98-8.406 1.6-1.445 3.504-2.414 5.66-2.88l.283-.06 3.614 4.002-1.356-.186c-.952-.13-1.66-.215-2.124-.253-.277-.022-.608-.034-.99-.034-.244 0-.51.004-.795.014-.692.02-1.305.143-1.82.358-.52.218-1.02.542-1.484.962-.296.268-.57.566-.82.89l13.36 14.8c.43-.275.764-.522 1-.735.93-.84 1.5-1.812 1.692-2.89.204-1.14.187-2.566-.05-4.24l-.227-1.616 3.887 4.306-.084.27c-.64 2.06-1.797 3.857-3.444 5.344-2.3 2.073-5.003 3.124-8.04 3.124z"/><path fill="#fff" d="M143.785 43.423l2.503 2.772c-.965-.132-1.683-.218-2.153-.256-.29-.024-.633-.036-1.03-.036-.25 0-.52.005-.812.014-.758.024-1.424.156-2 .397s-1.116.592-1.625 1.052c-.422.38-.798.813-1.128 1.296l13.912 15.412c.63-.384 1.105-.72 1.426-1.01 1.02-.92 1.635-1.978 1.85-3.174.213-1.195.198-2.66-.047-4.395l2.602 2.882c-.615 1.98-1.716 3.688-3.302 5.12-2.21 1.996-4.778 2.994-7.702 2.994-.233 0-.47-.005-.707-.018-3.218-.17-5.897-1.443-8.04-3.816-2.153-2.386-3.152-5.19-2.994-8.41.158-3.218 1.43-5.905 3.816-8.06 1.545-1.394 3.355-2.314 5.433-2.763m.354-1.1l-.567.122c-2.24.485-4.223 1.493-5.89 2.998-2.58 2.33-3.974 5.274-4.145 8.754-.17 3.48.924 6.55 3.252 9.128 2.315 2.565 5.252 3.96 8.73 4.145.255.014.508.02.76.02 3.165 0 5.98-1.093 8.37-3.25 1.715-1.547 2.922-3.42 3.588-5.565l.17-.544-.383-.42-2.6-2.883-2.19-2.425.457 3.235c.23 1.62.246 2.994.052 4.08-.175.98-.677 1.835-1.535 2.61-.15.133-.345.284-.584.45l-12.783-14.16c.157-.18.323-.348.496-.504.422-.382.874-.675 1.342-.872.458-.19 1.01-.3 1.643-.32.28-.008.54-.012.78-.012.37 0 .69.01.95.032.445.036 1.15.12 2.097.25l2.713.372-1.835-2.033-2.503-2.773-.388-.434z"/><path fill="#E04632" d="M171.38 50.233l-8.115 5.74L149.75 36.86l8.115-5.74z"/><path fill="#fff" d="M157.75 31.816l12.94 18.296-7.3 5.162-12.94-18.296 7.3-5.162m.24-1.394l-.818.578-7.3 5.162-.815.577.578.816 12.94 18.296.576.816.818-.578 7.3-5.162.816-.577-.578-.816-12.94-18.296-.577-.816z"/><path fill="#E04632" d="M168.843 29.33l-4.2-2.81 9.48-5.026 10.87 6.283-6.474-8.58 4.622-2.45 10.95 20.655-5.972 3.166-14.372-9.11 8.555 12.194-4.58 2.428z"/><path fill="#fff" d="M182.935 17.42l10.482 19.774-5.274 2.796L171.9 29.695l9.67 13.78-3.638 1.93-8.706-16.422-3.61-2.414 8.498-4.505 12.766 7.38-7.607-10.082 3.662-1.942m.415-1.35l-.883.467-3.664 1.942-1.037.55.707.936 4.638 6.145-8.496-4.91-.48-.278-.488.26-8.497 4.504-1.48.784 1.392.93 3.4 2.273 8.587 16.2.467.883.883-.47 3.637-1.928 1-.53-.65-.927-6.79-9.678 12.01 7.613.49.31.513-.27 5.274-2.797.884-.468-.47-.883-10.48-19.773-.468-.885z"/><path fill="#E04632" d="M200.888 12.55l-1.476-2.157 9.702-3.05 15.17 19.77-9.74 3.062-3.375-4.364-7.374 2.32.346 5.316-5.56 1.748 2.306-22.645zm2.75 12.575l5.63-1.77-5.752-7.424.122 9.195z"/><path fill="#fff" d="M208.93 7.924l14.522 18.925-8.725 2.743-3.376-4.364-8.08 2.54.347 5.317-4.46 1.403 2.246-22.07-1.198-1.75 8.726-2.746m-5.783 17.88l6.957-2.188-7.107-9.17.15 11.358m6.15-19.043l-.666.21-8.724 2.743-1.288.405.762 1.114.99 1.448-2.21 21.707-.153 1.51 1.448-.455 4.46-1.403.75-.237-.05-.783-.296-4.534 6.665-2.096 2.95 3.813.426.55.666-.208 8.725-2.744 1.365-.428-.87-1.134-14.52-18.923-.427-.554zm-5.168 17.687l-.093-7.028 4.397 5.674-4.305 1.353z"/><path fill="#E04632" d="M250.506 24.142l-9.91.78-1.835-23.34 9.91-.778z"/><path fill="#fff" d="M248.206 1.34l1.757 22.342-8.912.7-1.756-22.34 8.912-.7m.92-1.076l-.998.078-8.912.7-.997.08.077.997 1.757 22.34.08.998.996-.078 8.913-.7.997-.08-.078-.997-1.757-22.34-.08-.997z"/><path fill="#E04632" d="M261.426 24.02l1.114-20.265-5.51 1.082.248-4.49 20.79 1.144-.247 4.49-5.385-1.682-1.114 20.267z"/><path fill="#fff" d="M257.75.875l19.79 1.087-.183 3.348-5.387-1.68-1.12 20.408-8.898-.49 1.122-20.407-5.51 1.083.186-3.348m-.943-1.053l-.055.998-.185 3.347-.07 1.284 1.26-.247 4.248-.834-1.05 19.124-.057.998 1 .055 8.896.49.998.054.055-.998 1.05-19.126 4.162 1.298 1.225.382.07-1.282.184-3.348.055-1-1-.054-19.79-1.087-.998-.053z"/><path fill="#E04632" d="M294.003 28.265l-.775-5.462-7.554-1.63-2.33 4.79-5.695-1.23 13.2-18.54-.214-2.604 9.94 2.146 3.406 24.685-9.98-2.155zm-1.212-8.536l-1.327-9.298-4.44 8.05 5.768 1.247z"/><path fill="#fff" d="M291.19 4.22l8.938 1.93 3.26 23.63-8.94-1.93-.774-5.462-8.278-1.788-2.33 4.792-4.57-.987 12.87-18.07-.177-2.115m2.198 16.15l-1.642-11.487-5.487 9.947 7.128 1.54m-3.306-17.412l.11 1.345.146 1.75-12.656 17.772-.88 1.237 1.483.32 4.57.988.768.166.343-.706 1.986-4.086 6.83 1.476.677 4.772.097.69.682.147 8.94 1.93 1.395.302-.195-1.416-3.26-23.63-.097-.693-.684-.148-8.94-1.933-1.318-.284zm-2.3 15.178l3.397-6.155 1.015 7.108-4.412-.952z"/><path fill="#E04632" d="M308.73 32.3l8.87-21.664 9.2 3.766-7.7 18.804 8.118 1.83-1.695 4.14z"/><path fill="#fff" d="M317.874 11.29l8.273 3.386-7.733 18.888 8.117 1.83-1.28 3.13-15.867-6.496 8.49-20.74m-.546-1.304l-.38.925-8.49 20.738-.38.925.927.38 15.867 6.495.927.38.38-.926 1.28-3.13.447-1.094-1.153-.26-6.963-1.57 7.286-17.793.38-.925-.927-.38-8.273-3.386-.926-.38z"/><path fill="#E04632" d="M350.52 26.258l-11.453 20.416-8.67-4.863 11.456-20.415z"/><path fill="#fff" d="M342.034 22.074l7.797 4.375-10.965 19.542-7.797-4.375 10.966-19.543m-.383-1.362l-.488.872-10.966 19.543-.49.873.873.49 7.796 4.374.872.49.49-.873 10.965-19.542.49-.872-.873-.49-7.797-4.374-.872-.49z"/><path fill="#E04632" d="M356.975 59.23l1.644-5.268-6.125-4.715-4.16 3.33-4.616-3.556 19.88-11.08.923-2.445 8.058 6.205-7.516 23.758-8.09-6.23zm2.568-8.23l2.79-8.968-7.468 5.366 4.678 3.6z"/><path fill="#fff" d="M364.75 36.302l7.247 5.58-7.195 22.743-7.246-5.58 1.644-5.267-6.71-5.167-4.16 3.33-3.705-2.852 19.378-10.8.748-1.986m-1.497 4.452l-9.226 6.63 5.78 4.45 3.446-11.08m1.04-6.067l-.478 1.263-.62 1.642-19.06 10.623-1.325.74 1.203.926 3.705 2.854.622.48.613-.492 3.546-2.84 5.536 4.264-1.436 4.602-.208.665.552.425 7.246 5.58 1.133.872.43-1.363 7.196-22.743.21-.667-.554-.427-7.246-5.58-1.068-.823zm-8.59 12.724l5.708-4.1-2.132 6.854-3.576-2.753z"/><path fill="#E04632" d="M376.7 77.858l5-16.264-9.508 11.466-3.55-3.78 13.82-12.98 1.603-4.792 7.347 7.822-3.197 12.143 6.57-8.508 3.584 3.814-17.043 16.006z"/><path fill="#fff" d="M384.274 52.46l6.584 7.01-3.755 14.26 7.72-9.995 2.84 3.022L381.35 82.08l-4.087-4.353 5.652-18.38-10.746 12.957-2.82-3 13.548-12.725 1.376-4.12m-.417-1.904l-.53 1.588-1.298 3.88-13.365 12.55-.73.685.687.728 2.82 3 .774.827.723-.872 7.547-9.102-4.18 13.593-.17.555.397.423 4.087 4.353.686.73.73-.686 16.312-15.322.73-.685-.686-.73-2.84-3.02-.802-.856-.717.928-4.706 6.092 2.5-9.49.14-.536-.38-.404-6.583-7.01-1.147-1.218z"/><path fill="#E04632" d="M393.934 100.537l3.255-4.456-4.275-6.438-5.012 1.81-3.223-4.855 22.393-4.074 1.66-2.017 5.627 8.473-14.78 20.062-5.646-8.505zm5.086-6.963l5.533-7.588-8.8 2.67 3.267 4.918z"/><path fill="#fff" d="M408.69 81.344l5.06 7.62L399.6 108.17l-5.06-7.62 3.256-4.456-4.685-7.056-5.012 1.81-2.585-3.896 21.826-3.97 1.35-1.638m-2.853 3.73l-10.87 3.3L399 94.448l6.837-9.376m2.94-5.407l-.858 1.042-1.117 1.353-21.466 3.906-1.494.27.84 1.266 2.586 3.896.434.654.738-.267 4.273-1.544 3.864 5.822-2.845 3.893-.41.564.385.58 5.06 7.62.79 1.19.847-1.15 14.147-19.205.415-.564-.388-.583-5.06-7.62-.745-1.126zm-12.235 9.273l6.727-2.04-4.23 5.8-2.498-3.76z"/><path fill="#009444" stroke="#fff" stroke-width="2" d="M410.593 212.14c1.264-8.187 1.918-16.582 1.918-25.134 0-87.785-69.104-158.948-154.352-158.948-85.246 0-154.35 71.163-154.35 158.948 0 9.14.748 18.1 2.187 26.813l9.063-1.443C113.705 204.032 113 195.453 113 186.7c0-84.057 64.99-152.2 145.158-152.2 80.17 0 145.16 68.143 145.16 152.2 0 8.19-.616 16.23-1.805 24.068l9.08 1.372z"/><defs><path id="d" d="M401.85 212.845c1.187-7.838 1.802-15.877 1.802-24.066 0-84.06-64.988-152.203-145.158-152.203-80.17 0-145.158 68.143-145.158 152.202 0 8.75.704 17.33 2.057 25.675l286.456-1.61z"/></defs><clipPath id="e"><use xlink:href="#d" overflow="visible"/></clipPath><g clip-path="url(#e)"><image overflow="visible" width="448" height="300" xlink:href="../../../../Desktop/Alessios assets/Wood-Burning-Oven.jpeg" transform="matrix(.75 0 0 .75 90.493 26.181)"/></g><path fill="#009444" stroke="#fff" stroke-width="2" stroke-miterlimit="10" d="M425.11 187.366c3.115 0 5.23 3.29 5.23 9.054 0 3.25.027 66.896.027 70.016 0 4.29-2.386 6.563-5.165 6.563H90.382c-1.965 0-4.44-2.736-4.43-5.698.053-17.456.055-55.04 0-73.033-.01-2.956 2.286-6.903 5.093-6.903H425.11z"/><g fill="#F1F2F2"><path d="M161.228 237.99l-3.242-8.778H143.62l-2.143 8.78-7.93-.1 14.862-34.465-1.048-3.443h15.51l13.867 38.007h-15.512zm-11.272-30.47l-5.536 18.453h12.37l-6.834-18.454zM178.734 237.94v-37.956h14.115v37.956h-14.116zM209.258 223.777v13.715c1.896-.033 3.557-.572 4.987-1.62 1.43-1.05 2.56-2.435 3.39-4.165l3.393 3.39c-1.33 1.132-2.886 2.02-4.664 2.67-1.78.648-3.716.974-5.81.974-4.59 0-8.305-1.445-11.148-4.34-2.843-2.894-4.264-6.4-4.264-10.523 0-4.123 1.42-7.646 4.264-10.574 2.844-2.924 6.56-4.387 11.147-4.387 4.588 0 8.296 1.454 11.122 4.363 2.826 2.91 4.256 6.407 4.29 10.498h-16.707zm6.982-10.024c-1.763-2.328-4.09-3.49-6.982-3.49v12.067h9.975c-.233-3.39-1.23-6.252-2.993-8.577zM252.6 235.796c-2.395 1.964-5.985 2.944-10.773 2.944-1.962 0-3.683-.25-5.162-.75-1.48-.498-2.902-1.13-4.265-1.895-.598-.3-1.18-.606-1.746-.923-.565-.315-1.164-.64-1.795-.973l2.493-3.99c1.163 2.03 2.485 3.64 3.965 4.84 1.48 1.194 3.648 1.794 6.51 1.794.863 0 1.478-.142 1.844-.426.366-.28.55-.64.55-1.07 0-.134-.035-.3-.1-.5-.067-.2-.168-.398-.3-.6-.1-.197-.24-.397-.424-.598-.184-.197-.392-.38-.624-.548l-8.18-6.185c-1.43-1.098-2.65-2.286-3.666-3.565s-1.52-2.702-1.52-4.265c0-2.794 1.32-5.188 3.964-7.183s6.11-2.99 10.4-2.99h.547c1.795.065 3.557.365 5.285.896 1.728.53 3.274 1.314 4.64 2.345l-1.748 4.09c-.166-.268-.332-.524-.498-.775-.167-.25-.333-.488-.5-.722-.897-1.265-1.878-2.253-2.942-2.97-1.063-.71-2.56-1.07-4.488-1.07h-.299c-.897 0-1.545.183-1.944.55-.398.365-.6.796-.6 1.295 0 .133.01.26.025.375.02.116.06.24.126.372.1.3.274.6.523.9.25.297.557.58.923.846l8.18 5.785c1.46 1.033 2.69 2.205 3.69 3.52.997 1.312 1.496 2.75 1.496 4.313 0 2.795-1.198 5.173-3.59 7.133zM282.624 235.796c-2.396 1.964-5.986 2.944-10.775 2.944-1.96 0-3.682-.25-5.16-.75-1.48-.498-2.9-1.13-4.265-1.895-.598-.3-1.182-.606-1.746-.923-.567-.315-1.165-.64-1.796-.973l2.493-3.99c1.162 2.03 2.486 3.64 3.965 4.84 1.478 1.194 3.647 1.794 6.507 1.794.864 0 1.478-.142 1.845-.426.366-.28.55-.64.55-1.07 0-.134-.033-.3-.1-.5-.065-.2-.167-.398-.3-.6-.1-.197-.24-.397-.423-.598-.184-.197-.392-.38-.623-.548l-8.18-6.185c-1.432-1.098-2.653-2.286-3.67-3.565-1.012-1.28-1.52-2.702-1.52-4.265 0-2.794 1.322-5.188 3.967-7.183 2.644-1.995 6.107-2.99 10.397-2.99h.549c1.795.065 3.558.365 5.286.896 1.73.53 3.274 1.314 4.64 2.345l-1.747 4.09c-.168-.268-.333-.524-.5-.775-.166-.25-.33-.488-.498-.722-.897-1.265-1.878-2.253-2.942-2.97-1.064-.71-2.562-1.07-4.49-1.07h-.298c-.897 0-1.546.183-1.946.55-.396.365-.596.796-.596 1.295 0 .133.006.26.023.375.017.116.057.24.126.372.1.3.273.6.524.9.25.297.557.58.923.846l8.178 5.785c1.463 1.033 2.695 2.205 3.693 3.52.995 1.312 1.495 2.75 1.495 4.313.002 2.795-1.195 5.173-3.59 7.133zM301.6 206.097c-1.512.78-3.35 1.172-5.512 1.172-2.126 0-3.947-.392-5.46-1.173-1.513-.78-2.27-1.72-2.27-2.818 0-1.132.757-2.088 2.27-2.87 1.513-.78 3.334-1.17 5.46-1.17 2.162 0 4 .39 5.513 1.17s2.27 1.738 2.27 2.87c0 1.096-.757 2.035-2.27 2.817zM289.06 237.99v-28.228h14.114v28.23h-14.114zM332.797 234.4c-2.826 2.894-6.552 4.34-11.17 4.34-4.592 0-8.308-1.446-11.15-4.34-2.842-2.895-4.263-6.402-4.263-10.524 0-4.123 1.42-7.646 4.263-10.574 2.843-2.924 6.56-4.387 11.15-4.387 4.618 0 8.344 1.463 11.17 4.387 2.825 2.928 4.24 6.45 4.24 10.574 0 4.122-1.415 7.63-4.24 10.524zm-5.138-20.15c-1.797-2.66-4.24-3.988-7.332-3.988v27.23c3.092-.033 5.535-1.38 7.33-4.038 1.797-2.66 2.694-5.854 2.694-9.578 0-3.757-.897-6.965-2.693-9.625zM351.3 190.76v7.58c0 1.498-.142 2.813-.424 3.942-.283 1.13-.666 2.118-1.147 2.966-.483.85-1.048 1.57-1.697 2.17-.646.598-1.32 1.097-2.02 1.497l-1.794-1.797c1.262-.83 2.31-1.812 3.14-2.942.83-1.13 1.248-2.512 1.248-4.14h-6.584v-9.275h9.276zM379.18 235.796c-2.394 1.964-5.985 2.944-10.774 2.944-1.96 0-3.682-.25-5.162-.75-1.48-.498-2.9-1.13-4.264-1.895-.598-.3-1.18-.606-1.744-.923-.565-.315-1.165-.64-1.796-.973l2.493-3.99c1.163 2.03 2.485 3.64 3.964 4.84 1.48 1.194 3.65 1.794 6.51 1.794.864 0 1.478-.142 1.847-.426.364-.28.547-.64.547-1.07 0-.134-.03-.3-.098-.5-.067-.2-.167-.398-.3-.6-.1-.197-.242-.397-.424-.598-.183-.197-.39-.38-.623-.548l-8.182-6.185c-1.428-1.098-2.65-2.286-3.663-3.565-1.014-1.28-1.52-2.702-1.52-4.265 0-2.794 1.32-5.188 3.964-7.183s6.11-2.99 10.398-2.99h.548c1.796.065 3.558.365 5.287.896 1.728.53 3.274 1.314 4.64 2.345l-1.747 4.09c-.167-.268-.332-.524-.5-.775-.166-.25-.33-.488-.497-.722-.898-1.265-1.88-2.253-2.942-2.97-1.065-.71-2.562-1.07-4.49-1.07h-.298c-.897 0-1.546.183-1.946.55-.397.365-.598.796-.598 1.295 0 .133.01.26.025.375.017.116.057.24.124.372.1.3.274.6.523.9.25.297.558.58.925.846l8.178 5.785c1.463 1.033 2.695 2.205 3.692 3.52.996 1.312 1.496 2.75 1.496 4.313 0 2.795-1.197 5.173-3.59 7.133z"/></g><g fill="#fff"><path d="M148.605 257.453c-1.426 1.13-3.147 1.696-5.165 1.696h-.305v5.337h-6.548V248.06h6.852c2.018 0 3.74.563 5.165 1.687 1.426 1.123 2.14 2.407 2.14 3.847s-.714 2.726-2.14 3.86zm-2.788-7.177c-.59-.93-1.383-1.395-2.377-1.395h-.14c-.052 0-.105.008-.164.024v9.42h.152c.028.017.057.023.086.023h.065c.993 0 1.786-.465 2.376-1.395.59-.928.886-2.05.886-3.36.002-1.28-.294-2.385-.885-3.316zM164.36 264.53l-1.404-3.806h-6.224l-.93 3.806-3.435-.043 6.44-14.934-.454-1.493h6.72l6.01 16.47h-6.723zm-4.883-13.205l-2.4 7.998h5.36l-2.96-7.998zM182.213 263.136c-1.355 1.13-2.99 1.696-4.907 1.696-.964 0-1.804-.147-2.518-.442-.712-.296-1.4-.652-2.064-1.07-.274-.173-.548-.353-.82-.54-.274-.188-.557-.374-.844-.563l1.19-2.29c.084.174.17.346.257.52.087.173.173.353.26.54.244.475.52.936.83 1.383.312.447.675.777 1.092.994.072.042.147.087.227.13.08.043.154.08.227.107.332.145.67.25 1.015.314.346.066.727.1 1.145.1.418 0 .717-.1.897-.294s.262-.427.25-.7c0-.088-.008-.17-.023-.25-.016-.077-.038-.163-.065-.25-.06-.17-.137-.336-.238-.495-.102-.158-.225-.302-.368-.434l-3.955-3.542c-.764-.55-1.374-1.21-1.826-1.988-.456-.78-.684-1.614-.684-2.508 0-1.613.68-2.988 2.032-4.127 1.354-1.14 2.99-1.708 4.907-1.708h.238c.88.028 1.74.198 2.583.508.843.31 1.588.76 2.237 1.35l-.82 2.337c-.102-.175-.204-.356-.304-.542-.1-.187-.21-.375-.325-.562-.245-.433-.522-.846-.83-1.244-.312-.396-.668-.7-1.07-.918-.13-.07-.272-.12-.422-.15-.15-.03-.306-.05-.466-.066h-.518c-.06.017-.112.023-.163.023h-.14c-.42.014-.73.137-.93.365-.203.232-.296.514-.28.845 0 .073.007.146.02.226.014.08.03.16.044.25.058.2.148.4.27.593.123.194.27.365.444.51l3.934 3.305c.763.533 1.372 1.188 1.827 1.967.453.777.68 1.614.68 2.507 0 1.61-.678 2.985-2.032 4.114zM196.197 249.51v15.02h-6.55v-15.02l-3.997 1.017v-2.466h14.567v2.467l-4.02-1.018zM208.19 254.112v8.905l6.657-1.017v2.486h-13.205V248.06h12.622v2.465l-6.074-1.018v3.566l7.175-.952v3.093l-7.174-1.1zM229.468 256.837c-.973.98-2.2 1.657-3.685 2.03 1.24.42 2.25 1.052 3.037 1.903.786.85 1.18 1.8 1.18 2.852 0 .072-.006.144-.013.216-.007.073-.01.145-.01.217l-.044.216-.042.218-3.977.02c0-.06.003-.11.01-.16.008-.052.012-.098.012-.143 0-.028.003-.054.01-.074.007-.02.01-.046.01-.075 0-.072.004-.144.012-.217.007-.072.012-.144.012-.216 0-1.052-.26-1.964-.77-2.733-.512-.77-1.14-1.28-1.89-1.524v5.122h-6.55V248.06h6.852c2.018 0 3.74.564 5.166 1.688 1.426 1.123 2.14 2.407 2.14 3.847 0 1.18-.486 2.26-1.46 3.242zm-3.468-6.56c-.59-.93-1.383-1.396-2.377-1.396h-.14c-.05 0-.105.008-.162.024v9.42h.152c.028.017.057.023.086.023h.064c.994 0 1.787-.465 2.377-1.395.59-.928.886-2.05.886-3.36 0-1.28-.295-2.385-.886-3.316zM231.943 264.51v-16.45h6.57v16.45h-6.57zM251.762 264.53l-1.405-3.806h-6.223l-.93 3.806-3.438-.043 6.44-14.934-.454-1.493h6.722l6.01 16.47h-6.722zm-4.884-13.205l-2.4 7.998h5.36l-2.96-7.998zM282.58 257.453c-1.426 1.13-3.146 1.696-5.164 1.696h-.302v5.337h-6.548V248.06h6.85c2.02 0 3.74.563 5.166 1.687 1.426 1.123 2.14 2.407 2.14 3.847s-.715 2.726-2.14 3.86zm-2.786-7.177c-.59-.93-1.383-1.395-2.378-1.395h-.14c-.05 0-.105.008-.163.024v9.42h.149c.03.017.06.023.088.023h.065c.995 0 1.787-.465 2.378-1.395.59-.928.886-2.05.886-3.36 0-1.28-.295-2.385-.886-3.316zM285.736 264.51v-16.45h6.57v16.45h-6.57zM303.48 256.166c.288-.072.573-.175.853-.302.28-.13.537-.29.77-.478l.494 1.84c-.444.258-.913.463-1.402.613-.49.152-.995.24-1.515.27l-1.944 4.8 5.165-.866v2.485h-12.6l3.198-7.912c-.302.016-.6.06-.896.13-.297.072-.587.167-.875.28l-.477-1.75c.39-.158.79-.272 1.2-.345.41-.07.824-.11 1.24-.11H296.973c.043 0 .088.004.13.014.043.005.087.01.13.01l2.075-5.122-5.165.844v-2.466h12.6l-3.262 8.062zM318.264 256.166c.287-.072.573-.175.854-.302.282-.13.536-.29.767-.478l.497 1.84c-.446.258-.915.463-1.404.613-.49.152-.994.24-1.512.27l-1.946 4.8 5.165-.866v2.485h-12.6l3.2-7.912c-.305.016-.604.06-.898.13-.296.072-.59.167-.875.28l-.477-1.75c.39-.158.79-.272 1.2-.345.41-.07.825-.11 1.242-.11h.28c.044 0 .087.004.13.014.044.005.087.01.13.01l2.076-5.122-5.166.844v-2.466h12.6l-3.263 8.062zM329.438 254.112v8.905l6.656-1.017v2.486h-13.206V248.06h12.62v2.465l-6.07-1.018v3.566l7.175-.952v3.093l-7.175-1.1zM350.714 256.837c-.973.98-2.2 1.657-3.685 2.03 1.237.42 2.25 1.052 3.035 1.903.785.85 1.18 1.8 1.18 2.852 0 .072-.005.144-.012.216-.008.073-.01.145-.01.217-.016.072-.03.144-.044.216-.017.074-.03.145-.045.218l-3.977.02c0-.06.004-.11.01-.16.01-.052.012-.098.012-.143 0-.028.004-.054.01-.074.008-.02.013-.046.013-.075 0-.072.002-.144.01-.217.007-.072.01-.144.01-.216 0-1.052-.255-1.964-.767-2.733-.51-.77-1.142-1.28-1.89-1.524v5.122h-6.55V248.06h6.852c2.017 0 3.74.564 5.166 1.688 1.426 1.123 2.138 2.407 2.138 3.847 0 1.18-.485 2.26-1.458 3.242zm-3.47-6.56c-.59-.93-1.383-1.396-2.376-1.396h-.14c-.05 0-.105.008-.163.024v9.42h.151c.03.017.058.023.087.023h.064c.993 0 1.786-.465 2.377-1.395.592-.928.887-2.05.887-3.36.002-1.28-.293-2.385-.885-3.316zM353.188 264.51v-16.45h6.57v16.45h-6.57zM373.007 264.53l-1.404-3.806h-6.224l-.932 3.806-3.436-.043 6.44-14.934-.454-1.493h6.722l6.008 16.47h-6.72zm-4.884-13.205l-2.4 7.998h5.36l-2.96-7.998z"/></g><path fill="#1C2821" d="M99.304 298.79c-1.132 0-2.137-.18-2.987-.53-.814-.337-1.61-.75-2.368-1.228-.31-.196-.62-.398-.93-.61-.3-.205-.608-.41-.925-.617l-.38-.247 1.98-3.815.727 1.45c.1.198.197.402.295.615.254.49.553.988.88 1.46.296.427.643.744 1.032.945l.264.15c.066.037.132.068.196.094.345.15.69.256 1.034.32.348.066.745.1 1.18.1.308 0 .53-.058.63-.163.107-.117.15-.245.143-.415 0-.092-.006-.155-.017-.216-.01-.063-.03-.133-.054-.205-.05-.153-.12-.298-.212-.443-.086-.136-.194-.263-.32-.375l-4.39-3.937c-.86-.61-1.59-1.406-2.127-2.328-.547-.937-.824-1.957-.824-3.035 0-1.938.82-3.61 2.435-4.967 1.59-1.336 3.53-2.014 5.77-2.014h.264c1.04.035 2.058.235 3.04.596.994.365 1.884.903 2.65 1.6l.244.224-1.38 3.924-.545-.934c-.115-.197-.23-.402-.344-.616-.107-.197-.223-.398-.346-.6-.267-.47-.564-.914-.892-1.333-.3-.38-.646-.68-1.03-.886-.104-.058-.208-.095-.326-.117-.152-.03-.31-.05-.47-.065l-.472.002c-.08.017-.16.024-.236.024h-.156c-.3.01-.527.09-.655.237-.14.16-.2.345-.19.585 0 .073.007.127.017.184l.05.284c.037.12.12.3.23.475.107.173.234.32.388.447l4.37 3.673c.868.604 1.6 1.392 2.138 2.315.546.937.824 1.958.824 3.035 0 1.94-.82 3.606-2.436 4.956-1.59 1.326-3.532 2-5.77 2z"/><path fill="#fff" d="M100.6 279.28c.976.033 1.932.222 2.868.565.936.344 1.764.844 2.484 1.5l-.912 2.592c-.112-.192-.224-.392-.336-.6-.112-.208-.232-.416-.36-.625-.272-.48-.58-.94-.924-1.38-.344-.44-.74-.78-1.188-1.02-.144-.08-.3-.136-.468-.168s-.34-.056-.516-.072H100.672c-.064.017-.124.024-.18.024h-.156c-.464.016-.808.152-1.032.408-.225.256-.328.567-.312.936 0 .08.008.164.024.252l.048.276c.064.224.164.443.3.66.136.216.3.403.492.563l4.368 3.673c.848.592 1.524 1.32 2.028 2.185.504.863.756 1.792.756 2.783 0 1.794-.752 3.317-2.256 4.573s-3.32 1.884-5.448 1.884c-1.072 0-2.004-.164-2.796-.49-.792-.33-1.556-.726-2.292-1.19-.304-.19-.608-.39-.912-.6-.304-.207-.616-.415-.936-.623l1.32-2.544.288.575c.096.192.192.393.288.6.272.528.58 1.04.924 1.537.344.496.748.863 1.212 1.104.08.048.164.096.252.145.088.05.172.088.252.12.368.16.744.276 1.128.35.384.07.808.106 1.272.106.464 0 .795-.107.996-.323.2-.217.292-.477.276-.78 0-.096-.008-.188-.024-.276-.016-.088-.04-.18-.072-.275-.064-.192-.152-.376-.264-.553-.112-.177-.248-.337-.408-.48l-4.392-3.937c-.848-.607-1.524-1.344-2.028-2.208-.504-.863-.756-1.79-.756-2.783 0-1.792.752-3.32 2.256-4.584 1.503-1.264 3.32-1.896 5.448-1.896h.264m.017-1h-.281c-2.36 0-4.41.716-6.09 2.13-1.734 1.456-2.614 3.256-2.614 5.35 0 1.168.3 2.273.893 3.288.564.967 1.325 1.803 2.263 2.483l4.353 3.9c.092.082.17.174.232.272.07.108.12.218.16.33.015.05.028.097.037.142.003.025.006.06.006.096V296.324c.008.013.017.016.023.016l.008-.002c-.005.002-.086.038-.305.038-.403 0-.77-.03-1.087-.09-.31-.06-.617-.153-.915-.283-.07-.03-.12-.053-.172-.08-.07-.04-.146-.082-.217-.125l-.025-.016-.027-.014c-.32-.166-.598-.423-.85-.785-.315-.455-.604-.935-.857-1.425-.08-.18-.18-.39-.28-.59l-.146-.29-.144-.287-.88-1.75-.9 1.74-1.32 2.543-.418.805.76.494c.313.204.62.408.917.61.312.216.626.422.94.62.783.494 1.605.92 2.444 1.268.912.377 1.98.567 3.18.567 2.357 0 4.406-.712 6.088-2.116 1.735-1.448 2.615-3.244 2.615-5.34 0-1.166-.3-2.272-.892-3.286-.567-.974-1.335-1.806-2.28-2.474l-4.336-3.645c-.116-.096-.21-.203-.29-.33-.076-.122-.134-.242-.172-.36l-.038-.22c-.005-.03-.008-.054-.008-.076-.007-.185.027-.235.063-.276.012-.015.097-.062.314-.07l.122.002c.093 0 .188-.008.282-.024h.425c.127.013.252.03.375.055.064.012.12.03.17.06.34.183.626.43.887.762.31.398.595.82.842 1.257.134.22.246.414.35.606.116.216.234.426.352.628l1.09 1.867.717-2.038.912-2.593.22-.625-.49-.446c-.813-.74-1.76-1.313-2.813-1.7-1.033-.38-2.103-.59-3.18-.624h-.015z"/><path fill="#1C2821" d="M116.684 298.453v-16.537l-4.44 1.128v-3.88h17.176v3.88l-4.464-1.13v16.54z"/><path fill="#fff" d="M128.92 279.665v2.736l-4.464-1.127v16.68h-7.272v-16.68l-4.44 1.128v-2.735h16.176m1-1h-18.176v5.023l1.246-.317 3.194-.81v16.393h9.272v-16.396l3.22.813 1.244.314V278.664z"/><path fill="#1C2821" d="M141.832 298.79c-2.733 0-5.108-.986-7.06-2.93-1.954-1.945-2.944-4.317-2.944-7.05 0-2.75.99-5.134 2.942-7.087 1.953-1.952 4.33-2.942 7.062-2.942 2.75 0 5.132.99 7.085 2.943 1.953 1.953 2.943 4.337 2.943 7.086 0 2.73-.99 5.104-2.943 7.05-1.953 1.944-4.336 2.93-7.085 2.93zm-1.355-1.873c.174.02.345.032.516.032 1.844 0 3.378-.773 4.69-2.363 1.317-1.596 1.985-3.547 1.985-5.802 0-2.254-.668-4.206-1.985-5.802-1.313-1.59-2.847-2.362-4.69-2.362-.172 0-.344.013-.516.033l-.112.015v16.235l.112.014z"/><path fill="#fff" d="M141.832 279.28c2.624 0 4.868.934 6.732 2.797 1.864 1.864 2.796 4.108 2.796 6.732 0 2.607-.933 4.84-2.796 6.695-1.864 1.855-4.108 2.783-6.732 2.783-2.608 0-4.844-.928-6.708-2.783-1.864-1.856-2.796-4.088-2.796-6.696 0-2.625.932-4.87 2.796-6.733 1.864-1.863 4.1-2.796 6.708-2.796m-.84 18.17c1.984 0 3.676-.85 5.076-2.545 1.4-1.695 2.1-3.735 2.1-6.12 0-2.384-.7-4.424-2.1-6.12-1.4-1.695-3.092-2.544-5.076-2.544-.192 0-.384.014-.576.037-.192.024-.376.053-.552.084v17.113c.176.016.36.036.552.06.192.025.384.036.576.036m.84-19.17c-2.87 0-5.365 1.04-7.415 3.09s-3.09 4.553-3.09 7.44c0 2.87 1.04 5.36 3.09 7.404 2.05 2.04 4.544 3.074 7.415 3.074 2.886 0 5.388-1.034 7.438-3.074 2.05-2.043 3.09-4.534 3.09-7.405 0-2.887-1.04-5.39-3.088-7.44-2.05-2.05-4.554-3.09-7.44-3.09zm-.968 2.843l.128-.002c1.685 0 3.093.714 4.305 2.182 1.26 1.525 1.87 3.32 1.87 5.483 0 2.165-.61 3.96-1.87 5.483-1.21 1.468-2.62 2.18-4.305 2.18h-.128v-15.325z"/><path fill="#1C2821" d="M168.11 298.43l-6.68-11.69 1.464 11.69h-4.427v-15.52l-2.017-3.745h8.962l5.223 8.345-1.334-8.32h4.47v19.24z"/><path fill="#fff" d="M165.135 279.665l6.384 10.2-1.633-10.176h3.384v18.24h-4.87l-7.777-13.61 1.704 13.61h-3.36v-15.146l-1.68-3.12h7.848m.554-1h-10.077l.794 1.475 1.56 2.897v15.893h5.494l-.14-1.124-1.083-8.645 5.294 9.266.29.504h6.452v-20.24h-5.557l.186 1.158.852 5.308-3.768-6.02-.295-.47z"/><path fill="#1C2821" d="M178.508 298.405v-19.24h15.016v3.827l-6.744-1.128v2.8l7.968-1.057v4.585l-7.968-1.223v8.72l7.392-1.127v3.842z"/><path fill="#fff" d="M193.024 279.665v2.736l-6.744-1.127v3.96l7.968-1.056v3.432l-7.968-1.225v9.888l7.392-1.128v2.76h-14.664v-18.24h14.016m1-1h-16.016v20.24h16.664V293.98l-1.15.177-6.242.952v-7.56l6.816 1.047 1.152.177v-5.74l-1.13.15-.093.012v-4.533zm-6.744 5.427v-1.638l5.463.914-5.463.724z"/><path fill="#1C2821" d="M199.483 298.382v-19.217h10.052c1.133 0 2.16.42 3.052 1.25.902.84 1.36 1.88 1.36 3.09 0 .842-.25 1.61-.745 2.287-.264.36-.555.68-.872.95 1.063.48 1.98 1.113 2.734 1.887.994 1.02 1.498 2.178 1.498 3.443 0 1.758-.83 3.273-2.468 4.504-1.594 1.197-3.783 1.805-6.504 1.805h-8.107zm8.296-1.894c.88-.05 1.64-.445 2.317-1.207.74-.83 1.098-1.873 1.098-3.183 0-1.325-.36-2.37-1.097-3.195-.676-.755-1.436-1.147-2.32-1.196v8.782zm.328-10.71c.165.008.316.02.455.04.136.016.276.037.42.062l.455.086h.08c.143-.057.295-.272.43-.6.224-.54.344-1.146.36-1.8 0-.637-.174-1.072-.53-1.393-.413-.37-.878-.642-1.385-.81-.208-.074-.402-.128-.593-.164l-.02-.004v4.57c.114.003.224.006.328.012z"/><path fill="#fff" d="M209.535 279.665c1.008 0 1.912.372 2.712 1.116.8.745 1.2 1.653 1.2 2.726 0 .735-.216 1.4-.648 1.99-.433.594-.937 1.05-1.513 1.37 1.375.48 2.516 1.184 3.42 2.11.904.93 1.356 1.96 1.356 3.097 0 1.6-.756 2.968-2.268 4.104-1.512 1.136-3.58 1.704-6.204 1.704h-7.607v-18.216h9.552m-2.256 6.602h.311c.177 0 .34.004.493.012.152.008.292.02.42.036.128.016.26.036.396.06.135.024.283.053.443.084H209.414c.016.017.028.024.036.024h.037c.368-.016.676-.324.924-.924.25-.6.38-1.26.397-1.98V283.507c0-.72-.232-1.288-.696-1.704-.463-.416-.983-.72-1.56-.912-.223-.08-.443-.14-.66-.18-.215-.04-.42-.067-.61-.084v5.64m0 10.752c.063-.017.12-.024.167-.024h.144c1.105 0 2.065-.46 2.88-1.38.817-.92 1.225-2.092 1.225-3.516 0-1.44-.408-2.616-1.224-3.528-.815-.912-1.775-1.368-2.88-1.368H207.28v9.816m2.255-18.353h-10.552v20.217h8.608c2.834 0 5.123-.64 6.806-1.904 1.77-1.33 2.667-2.98 2.667-4.904 0-1.4-.552-2.677-1.64-3.794-.64-.656-1.39-1.216-2.24-1.672.148-.163.29-.337.423-.52.557-.764.84-1.632.84-2.58 0-1.357-.51-2.52-1.52-3.458-.986-.92-2.127-1.385-3.39-1.385zm-1.256 6.622v-3.434c.44.155.815.38 1.164.693.156.14.364.392.364.96-.013.64-.12 1.186-.32 1.67-.052.124-.098.21-.132.264-.098-.02-.19-.036-.28-.052-.16-.027-.307-.05-.45-.067-.11-.012-.225-.024-.347-.033zm0 10.617v-7.615c.528.14 1.006.454 1.446.946.652.73.97 1.665.97 2.86 0 1.183-.32 2.116-.973 2.853-.44.495-.916.81-1.444.954z"/><path fill="#1C2821" d="M221.332 298.396l7.376-17.104-.647-2.127h8.49l7.036 19.288h-8.527l-1.56-4.224h-6.172l-1.033 4.228-4.963-.062zm11.22-6.727l-2.52-6.807-2.04 6.806h4.56z"/><path fill="#fff" d="M236.2 279.665l6.672 18.288h-7.464l-1.56-4.224h-6.912l-1.032 4.223-3.816-.048 7.152-16.584-.504-1.655h7.464m-8.88 12.504h5.952l-3.288-8.88-2.664 8.88m9.58-13.505H227.384l.393 1.29.397 1.307-7.007 16.248-.594 1.377 1.5.02 3.816.047.795.01.188-.772.846-3.46h5.43l1.318 3.57.24.652h9.592l-.49-1.343-6.673-18.287-.238-.658zm-8.236 12.504l1.42-4.732 1.75 4.73h-3.17z"/><path fill="#1C2821" d="M258.24 297.85c.015-.085.026-.162.033-.233.007-.063.01-.127.01-.19.02-.144.023-.19.023-.24v-.24c0-1.18-.253-2.186-.753-2.987-.354-.57-.79-.96-1.32-1.18v5.65h-8.27v-19.264h8.27v11.44c.88-.064 1.536-.497 2.055-1.318.602-.954.907-2.116.907-3.454l-.025-6.668h5.486l.027 6.666c0 1.425-.58 2.745-1.725 3.926-.817.843-1.806 1.5-2.95 1.962.904.45 1.682 1.026 2.32 1.72.957 1.034 1.442 2.214 1.442 3.507 0 .097-.005.192-.014.29-.01.07-.01.13-.01.19v.055l-.186.923-5.416.03.097-.585z"/><path fill="#fff" d="M264.158 279.665l.025 6.168c0 1.296-.53 2.488-1.584 3.576-1.058 1.088-2.4 1.84-4.034 2.255 1.393.465 2.525 1.17 3.396 2.112.873.944 1.31 2 1.31 3.168 0 .08-.005.16-.013.24-.01.08-.013.16-.013.24-.018.08-.033.16-.05.24l-.048.24-4.417.023c.016-.097.03-.185.037-.265s.012-.16.012-.24c.016-.08.023-.16.023-.24v-.24c0-1.28-.275-2.363-.828-3.25-.55-.89-1.3-1.413-2.244-1.573v5.81h-7.27v-18.266h7.27v11.425h.168c.034.015.065.022.1.022h.07c1.104 0 1.983-.52 2.64-1.56s.984-2.28.984-3.72l-.023-6.17h4.488m.996-.997H258.668l.004 1.004.023 6.167c0 1.238-.28 2.31-.83 3.184-.32.51-.69.834-1.13.987v-11.342h-9.272v20.265h9.27v-5.22c.143.145.273.313.396.51.45.724.677 1.64.677 2.726v.24c0 .017-.002.034-.005.05l-.02.095v.097c0 .047 0 .095-.006.143-.006.06-.018.128-.03.202l-.187 1.166 1.18-.007 4.417-.023.818-.005.157-.804.022-.108.026-.132c.014-.07.028-.144.044-.214l.023-.107v-.11c0-.04 0-.078.004-.118.015-.138.02-.25.02-.362 0-1.423-.528-2.717-1.573-3.847-.466-.504-1-.95-1.6-1.334.835-.44 1.577-.996 2.22-1.658 1.238-1.277 1.866-2.715 1.866-4.272l-.025-6.172-.004-1z"/><path fill="#1C2821" d="M269.396 298.405v-19.24h15.016v3.827l-6.744-1.128v2.8l7.967-1.057v4.585l-7.967-1.223v8.72l7.393-1.127v3.842z"/><path fill="#fff" d="M283.912 279.665v2.736l-6.744-1.127v3.96l7.967-1.056v3.432l-7.967-1.225v9.888l7.393-1.128v2.76h-14.663v-18.24h14.015m1-1h-16.016v20.24h16.664V293.98l-1.15.177-6.242.952v-7.56l6.815 1.047 1.15.177v-5.74l-1.13.15-.092.012v-4.533h.002zm-6.744 5.427v-1.638l5.463.914-5.462.724z"/><path fill="#1C2821" d="M290.346 279.165h7.725c2.38 0 4.436.957 6.11 2.845 1.66 1.87 2.502 4.157 2.502 6.8 0 2.595-.838 4.854-2.49 6.716-1.665 1.878-3.707 2.84-6.068 2.856l-7.777.05v-19.267zm8.273 17.276l.13-.04c.84-.317 1.655-1.19 2.407-2.584.773-1.432 1.165-3.108 1.165-4.983 0-1.89-.392-3.57-1.164-4.993-.753-1.39-1.57-2.267-2.43-2.604-.035-.012-.072-.023-.11-.034v15.24z"/><path fill="#fff" d="M298.07 279.665c2.24 0 4.152.893 5.736 2.677s2.375 3.94 2.375 6.468c0 2.48-.786 4.607-2.362 6.384s-3.477 2.672-5.7 2.688l-7.272.048v-18.265h7.224m.05 17.4c.126-.017.255-.04.382-.072.13-.032.266-.072.408-.12.977-.367 1.873-1.308 2.688-2.82.816-1.512 1.225-3.25 1.225-5.22 0-1.983-.408-3.728-1.225-5.23-.814-1.505-1.71-2.45-2.688-2.833-.143-.048-.28-.088-.408-.12-.127-.032-.256-.048-.383-.048v16.463m-.05-18.4h-8.225V298.937l1.007-.007 7.273-.048c2.51-.02 4.676-1.036 6.44-3.024 1.735-1.956 2.615-4.327 2.615-7.048 0-2.77-.884-5.168-2.627-7.132-1.774-2-3.955-3.013-6.483-3.013zm1.05 16.96V282.03c.546.41 1.082 1.097 1.6 2.05.73 1.35 1.103 2.95 1.103 4.755 0 1.79-.372 3.388-1.104 4.746-.52.96-1.055 1.644-1.6 2.046z"/><path fill="#1C2821" d="M327.594 298.405v-19.24h8.11c2.343 0 4.376.666 6.043 1.98 1.703 1.34 2.567 2.91 2.567 4.664s-.863 3.325-2.566 4.675c-1.628 1.29-3.605 1.96-5.88 1.99v5.93h-8.274zm8.273-7.824c.88-.062 1.534-.492 2.053-1.308.602-.944.906-2.11.906-3.463 0-1.322-.305-2.472-.906-3.417-.53-.833-1.203-1.264-2.053-1.312v9.5z"/><path fill="#fff" d="M335.703 279.665c2.238 0 4.15.624 5.734 1.872s2.377 2.673 2.377 4.272-.793 3.027-2.377 4.283-3.496 1.884-5.734 1.884h-.334v5.928h-7.273v-18.24h7.61m-.337 11.4H335.535c.03.016.063.024.096.024h.073c1.104 0 1.982-.518 2.64-1.55.655-1.03.983-2.275.983-3.73 0-1.425-.328-2.653-.984-3.686-.656-1.03-1.535-1.548-2.64-1.548h-.155c-.057 0-.117.01-.18.024v10.465m.336-12.4h-8.61v20.24H336.368v-5.945c2.182-.117 4.094-.816 5.69-2.083 1.83-1.45 2.757-3.154 2.757-5.067 0-1.914-.928-3.616-2.758-5.058-1.757-1.385-3.895-2.087-6.353-2.087zm.664 11.32v-8.303c.44.152.81.474 1.13.98.55.863.83 1.922.83 3.146 0 1.257-.28 2.33-.83 3.194-.32.508-.688.83-1.13.982z"/><path fill="#1C2821" d="M348.62 279.165h8.294v19.265h-8.295z"/><path fill="#fff" d="M356.414 279.665v18.265h-7.295v-18.265h7.294m1-1h-9.295v20.265h9.294v-20.265z"/><path fill="#1C2821" d="M360.952 298.453l3.51-8.676c-.032.007-.063.015-.094.02-.306.076-.61.174-.905.29l-.52.21-.79-2.912.41-.167c.462-.188.944-.328 1.434-.413.48-.085.974-.128 1.465-.128h.274l1.833-4.527-5.44.887v-3.824h15.234l-3.477 8.59c.215-.112.414-.242.595-.39l.597-.484.853 3.152-.333.192c-.53.307-1.09.552-1.663.73-.48.147-.977.247-1.48.296l-1.708 4.213 5.437-.91v3.85h-15.235z"/><path fill="#fff" d="M376.62 279.713L373 288.665c.32-.08.635-.19.947-.336.313-.145.596-.32.852-.528l.553 2.04c-.496.287-1.016.516-1.56.684-.544.168-1.105.27-1.68.3l-2.16 5.328 5.735-.96v2.76h-13.992l3.553-8.784c-.336.017-.668.064-.996.145s-.652.184-.973.312l-.527-1.943c.432-.176.875-.304 1.332-.384.455-.08.916-.12 1.38-.12h.312c.05 0 .096.004.145.012.046.008.095.012.144.012l2.303-5.688-5.736.936v-2.736h13.99m1.484-1.003H361.63v4.912l1.16-.19 3.98-.648-1.373 3.39c-.5.005-1 .05-1.488.136-.524.092-1.04.24-1.537.443l-.82.333.232.854.527 1.943.294 1.083.993-.396-2.834 7.005-.557 1.374h16.474v-4.942l-1.165.195-3.974.665 1.26-3.11c.434-.058.86-.152 1.277-.28.61-.19 1.203-.45 1.766-.774l.664-.385-.2-.742-.554-2.04-.402-1.483-.338.274 2.526-6.24.558-1.377z"/><path fill="#1C2821" d="M381.544 298.453l3.51-8.676c-.032.007-.063.015-.094.02-.306.076-.61.174-.905.29l-.52.21-.79-2.912.41-.167c.462-.188.944-.328 1.434-.413.48-.085.973-.128 1.464-.128h.274l1.833-4.527-5.438.887v-3.824h15.234l-3.477 8.59c.214-.112.413-.242.594-.39l.597-.484.855 3.152-.333.192c-.53.307-1.09.552-1.663.73-.48.147-.978.247-1.48.296l-1.71 4.213 5.44-.91v3.85h-15.236z"/><path fill="#fff" d="M397.213 279.713l-3.623 8.952c.32-.08.635-.19.947-.336.313-.145.596-.32.852-.528l.552 2.04c-.496.287-1.016.516-1.56.684-.544.168-1.105.27-1.68.3l-2.16 5.328 5.735-.96v2.76h-13.992l3.553-8.784c-.336.017-.668.064-.996.145s-.652.184-.973.312l-.528-1.943c.432-.176.875-.304 1.332-.384.455-.08.916-.12 1.38-.12h.312c.05 0 .096.004.145.012.048.008.097.012.146.012l2.303-5.688-5.737.936v-2.736h13.99m1.483-1.003H382.22v4.912l1.162-.19 3.98-.648-1.373 3.39c-.5.005-1 .05-1.49.136-.522.092-1.04.24-1.535.443l-.82.333.232.854.527 1.943.294 1.083.993-.396-2.832 7.005-.557 1.374h16.476v-4.942l-1.165.195-3.972.665 1.26-3.11c.434-.058.86-.152 1.277-.28.61-.19 1.203-.45 1.766-.774l.666-.385-.2-.742-.554-2.04-.402-1.483-.338.274 2.526-6.24.558-1.377z"/><path fill="#1C2821" d="M402.41 298.396l7.375-17.104-.647-2.127h8.49l7.036 19.288h-8.528l-1.56-4.224h-6.17l-1.034 4.228-4.962-.062zm11.22-6.727l-2.52-6.807-2.042 6.806h4.563z"/><path fill="#fff" d="M417.277 279.665l6.672 18.288h-7.466l-1.56-4.224h-6.91l-1.034 4.223-3.814-.048 7.15-16.584-.504-1.655h7.465m-8.88 12.504h5.952l-3.29-8.88-2.664 8.88m9.58-13.505h-9.513l.393 1.29.397 1.307-7.005 16.248-.594 1.377 1.5.02 3.813.047.795.01.19-.772.846-3.46h5.43l1.317 3.568.24.654h9.593l-.49-1.343-6.672-18.287-.24-.658zm-8.236 12.504l1.42-4.732 1.753 4.73h-3.173z"/></svg>