<?xml version="1.0" encoding="utf-8"?>
<!-- Generator: Adobe Illustrator 16.0.3, SVG Export Plug-In . SVG Version: 6.00 Build 0)  -->
<!DOCTYPE svg PUBLIC "-//W3C//DTD SVG 1.1//EN" "http://www.w3.org/Graphics/SVG/1.1/DTD/svg11.dtd">
<svg version="1.1" id="Layer_1" xmlns="http://www.w3.org/2000/svg" xmlns:xlink="http://www.w3.org/1999/xlink" x="0px" y="0px"
	 width="500px" height="300px" viewBox="0 0 500 300" enable-background="new 0 0 500 300" xml:space="preserve">
<g>
	<g>
		<defs>
			<polygon id="SVGID_1_" points="103.153,199.074 111.833,142.656 137.873,96.001 159.572,71.047 193.208,49.89 230.097,36.87 
				262.103,34.157 289.229,39.04 324.489,49.348 351.073,65.622 372.772,87.864 394.472,118.786 404.238,143.742 409.662,167.613 
				411.833,195.82 			"/>
		</defs>
		<clipPath id="SVGID_2_">
			<use xlink:href="#SVGID_1_"  overflow="visible"/>
		</clipPath>
		<g clip-path="url(#SVGID_2_)">
			<defs>
				<path id="SVGID_3_" d="M99.899,163.271c0,0,17.901-138.019,154.286-138.019c144.627,0,154.392,136.388,154.392,136.388
					l0.542,36.893l-310.305-3.799L99.899,163.271z"/>
			</defs>
			<clipPath id="SVGID_4_">
				<use xlink:href="#SVGID_3_"  overflow="visible"/>
			</clipPath>
		</g>
	</g>
	<g>
		<g>
			<path fill="#E04632" d="M112.689,105.583c-2.207,0-4.329-0.629-6.308-1.869c-2.827-1.772-4.644-4.324-5.399-7.583
				c-0.754-3.259-0.238-6.346,1.535-9.175c1.145-1.827,2.712-3.279,4.658-4.316l0.256-0.136L112,85.37l-1.355,0.191
				c-0.952,0.134-1.656,0.247-2.113,0.337c-0.438,0.087-1.019,0.245-1.724,0.468c-0.661,0.21-1.217,0.494-1.653,0.842
				c-0.44,0.352-0.833,0.8-1.165,1.331c-0.212,0.338-0.396,0.701-0.547,1.081l16.894,10.591c0.337-0.383,0.593-0.711,0.762-0.98
				c0.665-1.062,0.947-2.153,0.838-3.243c-0.115-1.152-0.521-2.519-1.204-4.063l-0.662-1.494l4.915,3.081l-0.007,0.285
				c-0.053,2.155-0.677,4.201-1.854,6.08c-1.773,2.829-4.327,4.638-7.59,5.379C114.572,105.473,113.615,105.583,112.689,105.583z"/>
			<path fill="#FFFFFF" d="M107.411,83.082l3.164,1.984c-0.964,0.136-1.678,0.25-2.14,0.342s-1.055,0.253-1.778,0.482
				c-0.722,0.23-1.327,0.539-1.814,0.928s-0.913,0.875-1.277,1.456c-0.302,0.482-0.546,1-0.731,1.555l17.591,11.028
				c0.501-0.542,0.867-0.995,1.096-1.361c0.729-1.163,1.033-2.349,0.912-3.559c-0.121-1.209-0.536-2.615-1.245-4.216l3.289,2.062
				c-0.051,2.074-0.644,4.016-1.778,5.827c-1.708,2.725-4.133,4.443-7.277,5.157c-0.93,0.211-1.842,0.317-2.734,0.317
				c-2.122,0-4.136-0.598-6.042-1.793c-2.724-1.708-4.45-4.131-5.177-7.272c-0.727-3.14-0.237-6.072,1.471-8.796
				C104.045,85.461,105.535,84.082,107.411,83.082 M107.452,81.927l-0.511,0.272c-2.024,1.078-3.655,2.589-4.847,4.491
				c-1.847,2.945-2.384,6.16-1.598,9.553c0.786,3.393,2.677,6.049,5.62,7.894c2.059,1.291,4.271,1.946,6.573,1.946
				c0.963,0,1.957-0.115,2.956-0.342c3.397-0.771,6.056-2.655,7.902-5.601c1.226-1.957,1.876-4.087,1.931-6.333l0.014-0.569
				l-0.482-0.302l-3.289-2.062l-2.768-1.735l1.322,2.987c0.663,1.496,1.054,2.812,1.164,3.911c0.099,0.991-0.151,1.949-0.764,2.928
				c-0.106,0.169-0.253,0.368-0.438,0.593l-16.163-10.133c0.102-0.214,0.216-0.421,0.34-0.62c0.303-0.483,0.657-0.889,1.054-1.206
				c0.388-0.31,0.89-0.564,1.493-0.757c0.687-0.217,1.249-0.37,1.669-0.454c0.439-0.087,1.141-0.199,2.085-0.333l2.711-0.383
				l-2.32-1.455l-3.164-1.984L107.452,81.927L107.452,81.927z"/>
		</g>
		<g>
			<path fill="#E04632" d="M128.868,86.698c-2.135,0-4.453-1.032-6.887-3.069l-10.578-8.851l6.152-7.353l16.706,13.978
				c0.109-0.091,0.201-0.18,0.275-0.269c0.866-1.034,0.91-2.612,0.133-4.69c-0.814-2.178-2.309-4.186-4.441-5.971l-2.729-2.284
				l-7.236-4l2.904-3.471l0.336,0.134c0.114,0.045,0.162,0.064,8.748,7.249c2.52,2.108,4.181,4.583,4.937,7.354
				c0.775,2.838,0.407,5.187-1.095,6.981c-2.233,2.668-4.516,4.097-6.785,4.247C129.163,86.693,129.016,86.698,128.868,86.698z"/>
			<path fill="#FFFFFF" d="M123.317,61.317c0.058,0.023,2.929,2.412,8.612,7.167c2.451,2.051,4.043,4.418,4.775,7.102
				c0.733,2.684,0.401,4.86-0.996,6.529c-2.152,2.571-4.296,3.928-6.434,4.069c-0.135,0.009-0.271,0.013-0.407,0.013
				c-2.025,0-4.213-0.984-6.566-2.953l-10.195-8.53l5.511-6.586l16.623,13.909c0.29-0.192,0.516-0.387,0.679-0.583
				c0.994-1.188,1.066-2.916,0.217-5.186c-0.849-2.27-2.378-4.33-4.589-6.179l-2.729-2.284l-6.785-3.76L123.317,61.317
				 M123.015,60.121l-0.464,0.555l-2.283,2.729l-0.777,0.929l1.06,0.587l6.702,3.714l2.656,2.223
				c2.066,1.728,3.51,3.667,4.294,5.762c0.686,1.833,0.694,3.212,0.025,4.102L118.26,67.362l-0.767-0.642l-0.642,0.767l-5.511,6.586
				l-0.642,0.767l0.767,0.642l10.195,8.53c2.527,2.114,4.952,3.186,7.208,3.186c0.159,0,0.316-0.005,0.473-0.015
				c2.411-0.159,4.811-1.648,7.135-4.425c1.612-1.927,2.014-4.428,1.193-7.434c-0.784-2.871-2.499-5.43-5.099-7.605
				c-8.648-7.235-8.67-7.244-8.884-7.33L123.015,60.121L123.015,60.121z"/>
		</g>
		<g>
			<path fill="#E04632" d="M146.28,66.99c-0.242,0-0.486-0.006-0.733-0.02c-3.34-0.178-6.161-1.517-8.384-3.98
				c-2.236-2.477-3.287-5.427-3.124-8.769c0.164-3.342,1.503-6.17,3.981-8.407c1.601-1.445,3.504-2.414,5.66-2.88l0.283-0.061
				l3.614,4.003l-1.356-0.186c-0.953-0.131-1.661-0.215-2.125-0.253c-0.277-0.022-0.608-0.034-0.99-0.034
				c-0.244,0-0.509,0.004-0.795,0.014c-0.693,0.021-1.306,0.143-1.821,0.358c-0.52,0.218-1.019,0.542-1.484,0.962
				c-0.296,0.268-0.571,0.566-0.82,0.89l13.36,14.8c0.429-0.275,0.764-0.522,1-0.735c0.93-0.839,1.499-1.812,1.692-2.891
				c0.204-1.139,0.187-2.565-0.049-4.238l-0.228-1.617l3.886,4.306l-0.084,0.271c-0.639,2.059-1.797,3.856-3.444,5.343
				C152.021,65.939,149.317,66.99,146.28,66.99z"/>
			<path fill="#FFFFFF" d="M143.785,43.423l2.503,2.772c-0.965-0.132-1.683-0.218-2.153-0.256c-0.289-0.023-0.633-0.035-1.031-0.035
				c-0.249,0-0.519,0.005-0.811,0.014c-0.758,0.024-1.424,0.156-1.999,0.397s-1.117,0.592-1.626,1.052
				c-0.422,0.381-0.798,0.813-1.128,1.296l13.912,15.412c0.63-0.384,1.105-0.721,1.426-1.01c1.019-0.919,1.635-1.978,1.849-3.174
				c0.214-1.196,0.199-2.662-0.046-4.396l2.601,2.882c-0.615,1.981-1.716,3.688-3.302,5.12c-2.21,1.996-4.778,2.994-7.702,2.994
				c-0.233,0-0.469-0.006-0.707-0.019c-3.219-0.171-5.898-1.443-8.04-3.816c-2.154-2.386-3.153-5.189-2.995-8.409
				c0.158-3.219,1.43-5.906,3.816-8.061C139.897,44.792,141.707,43.872,143.785,43.423 M144.139,42.323l-0.566,0.122
				c-2.241,0.485-4.223,1.493-5.889,2.998c-2.58,2.329-3.975,5.274-4.146,8.754c-0.17,3.479,0.924,6.549,3.252,9.128
				c2.315,2.565,5.252,3.959,8.729,4.145c0.256,0.014,0.509,0.021,0.76,0.021c3.166,0,5.982-1.094,8.372-3.251
				c1.714-1.547,2.921-3.42,3.587-5.565l0.169-0.544l-0.382-0.422l-2.601-2.882l-2.188-2.425l0.456,3.235
				c0.229,1.621,0.246,2.994,0.052,4.081c-0.175,0.98-0.677,1.834-1.535,2.608c-0.149,0.134-0.344,0.285-0.583,0.451l-12.783-14.161
				c0.157-0.178,0.323-0.347,0.496-0.503c0.423-0.382,0.875-0.675,1.343-0.872c0.458-0.192,1.011-0.3,1.643-0.32
				c0.279-0.009,0.539-0.013,0.779-0.013c0.371,0,0.69,0.011,0.95,0.032c0.446,0.036,1.152,0.12,2.098,0.25l2.713,0.372
				l-1.835-2.033l-2.503-2.772L144.139,42.323L144.139,42.323z"/>
		</g>
		<g>
			
				<rect x="155.6" y="31.84" transform="matrix(-0.8165 0.5774 -0.5774 -0.8165 316.8131 -13.6129)" fill="#E04632" width="9.94" height="23.409"/>
			<path fill="#FFFFFF" d="M157.75,31.816l12.939,18.296l-7.299,5.162l-12.939-18.296L157.75,31.816 M157.989,30.422L157.172,31
				l-7.299,5.162l-0.816,0.577l0.578,0.817l12.939,18.296l0.577,0.816l0.817-0.578l7.299-5.162l0.817-0.577l-0.578-0.817
				l-12.939-18.296L157.989,30.422L157.989,30.422z"/>
		</g>
		<g>
			<polygon fill="#E04632" points="168.843,29.329 164.643,26.52 174.123,21.494 184.994,27.777 178.519,19.196 183.142,16.746 
				194.093,37.402 188.12,40.568 173.748,31.458 182.303,43.652 177.724,46.08 			"/>
			<path fill="#FFFFFF" d="M182.935,17.421l10.482,19.773l-5.274,2.796L171.9,29.695l9.669,13.78l-3.637,1.929l-8.706-16.421
				l-3.609-2.414l8.497-4.504l12.766,7.379l-7.607-10.081L182.935,17.421 M183.35,16.069l-0.883,0.468l-3.664,1.942l-1.037,0.55
				l0.707,0.937l4.638,6.145l-8.497-4.912l-0.479-0.277l-0.489,0.26l-8.497,4.504l-1.479,0.784l1.392,0.93l3.399,2.273l8.588,16.199
				l0.468,0.884l0.883-0.469l3.637-1.929l1.001-0.53l-0.65-0.927l-6.792-9.679l12.011,7.613l0.49,0.311l0.513-0.272l5.274-2.796
				l0.884-0.468l-0.469-0.883l-10.482-19.773L183.35,16.069L183.35,16.069z"/>
		</g>
		<g>
			<path fill="#E04632" d="M200.888,12.549l-1.476-2.156l9.702-3.051l15.169,19.77l-9.738,3.063l-3.376-4.364l-7.373,2.318
				l0.346,5.317l-5.56,1.748L200.888,12.549z M203.638,25.125l5.63-1.771l-5.752-7.423L203.638,25.125z"/>
			<path fill="#FFFFFF" d="M208.931,7.924l14.521,18.925l-8.725,2.744l-3.376-4.364l-8.08,2.541l0.346,5.317l-4.461,1.403
				l2.247-22.071l-1.198-1.75L208.931,7.924 M203.147,25.804l6.957-2.188l-7.107-9.171L203.147,25.804 M209.298,6.761l-0.667,0.209
				l-8.725,2.743l-1.288,0.405l0.762,1.114l0.991,1.448l-2.21,21.707l-0.154,1.511l1.448-0.456l4.461-1.403l0.749-0.236
				l-0.051-0.783l-0.295-4.534l6.666-2.096l2.95,3.813l0.426,0.551l0.665-0.209l8.725-2.744l1.364-0.429l-0.87-1.134L209.724,7.315
				L209.298,6.761L209.298,6.761z M204.129,24.447l-0.092-7.028l4.397,5.675L204.129,24.447L204.129,24.447z"/>
		</g>
		<g>
			
				<rect x="239.659" y="1.157" transform="matrix(-0.9969 0.0784 -0.0784 -0.9969 489.5123 6.5057)" fill="#E04632" width="9.94" height="23.41"/>
			<path fill="#FFFFFF" d="M248.206,1.341l1.757,22.341l-8.912,0.701l-1.757-22.34L248.206,1.341 M249.125,0.266l-0.997,0.078
				l-8.912,0.701l-0.997,0.079l0.078,0.997l1.757,22.34l0.079,0.997l0.997-0.078l8.913-0.701l0.997-0.079l-0.078-0.997
				l-1.757-22.341L249.125,0.266L249.125,0.266z"/>
		</g>
		<g>
			<polygon fill="#E04632" points="261.426,24.021 262.54,3.755 257.031,4.837 257.278,0.348 278.067,1.491 277.821,5.979 
				272.435,4.298 271.321,24.565 			"/>
			<path fill="#FFFFFF" d="M257.75,0.875l19.791,1.087l-0.184,3.348l-5.387-1.68l-1.121,20.408l-8.897-0.489l1.122-20.408
				l-5.509,1.082L257.75,0.875 M256.807-0.178l-0.055,0.998l-0.185,3.347l-0.071,1.284l1.262-0.248l4.247-0.834l-1.051,19.125
				l-0.056,0.998l0.999,0.055l8.897,0.489l0.998,0.055l0.055-0.999l1.051-19.126l4.161,1.298l1.226,0.382l0.07-1.282l0.184-3.348
				l0.056-0.999l-0.999-0.055l-19.791-1.087L256.807-0.178L256.807-0.178z"/>
		</g>
		<g>
			<path fill="#E04632" d="M294.003,28.265l-0.775-5.462l-7.554-1.631l-2.329,4.792l-5.696-1.23l13.202-18.541l-0.215-2.604
				l9.94,2.147l3.406,24.685L294.003,28.265z M292.791,19.729l-1.328-9.297l-4.441,8.051L292.791,19.729z"/>
			<path fill="#FFFFFF" d="M291.189,4.22l8.939,1.931l3.261,23.63l-8.94-1.931l-0.775-5.462l-8.278-1.788l-2.329,4.792l-4.57-0.987
				l12.868-18.071L291.189,4.22 M293.388,20.37l-1.642-11.487l-5.487,9.947L293.388,20.37 M290.082,2.958l0.11,1.345l0.146,1.749
				l-12.656,17.773l-0.881,1.237l1.484,0.321l4.57,0.987l0.768,0.166l0.343-0.706l1.986-4.086l6.829,1.476l0.678,4.772l0.098,0.69
				l0.682,0.147l8.94,1.931l1.396,0.302l-0.195-1.416l-3.261-23.63l-0.096-0.693l-0.684-0.148L291.4,3.242L290.082,2.958
				L290.082,2.958z M287.783,18.136l3.396-6.155l1.016,7.107L287.783,18.136L287.783,18.136z"/>
		</g>
		<g>
			<polygon fill="#E04632" points="308.73,32.301 317.601,10.636 326.8,14.402 319.101,33.206 327.218,35.036 325.523,39.176 			"/>
			<path fill="#FFFFFF" d="M317.874,11.289l8.273,3.387l-7.733,18.888l8.117,1.83l-1.281,3.13l-15.867-6.496L317.874,11.289
				 M317.327,9.984l-0.379,0.925l-8.491,20.739l-0.379,0.925l0.926,0.379l15.867,6.496l0.926,0.379l0.379-0.925l1.281-3.13
				l0.447-1.094l-1.153-0.26l-6.964-1.569l7.286-17.794l0.379-0.925l-0.926-0.379l-8.273-3.387L317.327,9.984L317.327,9.984z"/>
		</g>
		<g>
			
				<rect x="328.745" y="29.063" transform="matrix(-0.4893 0.8721 -0.8721 -0.4893 536.7222 -246.2195)" fill="#E04632" width="23.41" height="9.94"/>
			<path fill="#FFFFFF" d="M342.034,22.074l7.797,4.375l-10.966,19.543l-7.797-4.375L342.034,22.074 M341.651,20.712l-0.489,0.872
				l-10.966,19.543L329.707,42l0.872,0.489l7.797,4.375l0.872,0.489l0.489-0.872l10.966-19.543l0.489-0.872l-0.872-0.489
				l-7.797-4.375L341.651,20.712L341.651,20.712z"/>
		</g>
		<g>
			<path fill="#E04632" d="M356.975,59.229l1.644-5.267l-6.124-4.715l-4.159,3.33l-4.617-3.556l19.881-11.082l0.923-2.444
				l8.058,6.205l-7.517,23.758L356.975,59.229z M359.543,50.999l2.789-8.967l-7.467,5.366L359.543,50.999z"/>
			<path fill="#FFFFFF" d="M364.751,36.302l7.246,5.58l-7.195,22.743l-7.246-5.58l1.644-5.267l-6.711-5.167l-4.159,3.33
				l-3.705-2.853l19.378-10.801L364.751,36.302 M363.253,40.754l-9.226,6.629l5.779,4.45L363.253,40.754 M364.292,34.687
				l-0.477,1.263l-0.62,1.642l-19.059,10.623l-1.326,0.739l1.203,0.927l3.705,2.853l0.622,0.479l0.613-0.491l3.546-2.839
				l5.537,4.263l-1.436,4.602l-0.208,0.665l0.552,0.425l7.246,5.58l1.133,0.872l0.431-1.363l7.195-22.743l0.211-0.667l-0.554-0.427
				l-7.246-5.58L364.292,34.687L364.292,34.687z M355.702,47.411l5.709-4.102l-2.133,6.855L355.702,47.411L355.702,47.411z"/>
		</g>
		<g>
			<polygon fill="#E04632" points="376.699,77.858 381.701,61.594 372.192,73.06 368.643,69.281 382.463,56.301 384.065,51.508 
				391.412,59.33 388.215,71.473 394.786,62.965 398.369,66.779 381.327,82.786 			"/>
			<path fill="#FFFFFF" d="M384.274,52.461l6.584,7.01l-3.755,14.259l7.72-9.995l2.839,3.022L381.35,82.079l-4.087-4.352
				l5.652-18.381l-10.746,12.958l-2.819-3.001l13.548-12.724L384.274,52.461 M383.857,50.556l-0.531,1.588l-1.297,3.879
				l-13.364,12.551l-0.729,0.685l0.686,0.729l2.819,3.001l0.775,0.826l0.723-0.872l7.548-9.102l-4.18,13.592l-0.171,0.555
				l0.398,0.423l4.087,4.352l0.685,0.729l0.729-0.685l16.313-15.322l0.729-0.685l-0.685-0.729l-2.839-3.022l-0.803-0.855
				l-0.717,0.928l-4.706,6.092l2.499-9.49l0.142-0.536l-0.38-0.404l-6.584-7.01L383.857,50.556L383.857,50.556z"/>
		</g>
		<g>
			<path fill="#E04632" d="M393.934,100.537l3.255-4.456l-4.274-6.439l-5.012,1.81l-3.223-4.855l22.393-4.074l1.661-2.017
				l5.626,8.473l-14.779,20.063L393.934,100.537z M399.02,93.574l5.533-7.588l-8.799,2.67L399.02,93.574z"/>
			<path fill="#FFFFFF" d="M408.69,81.344l5.059,7.62l-14.147,19.206l-5.059-7.62l3.255-4.456l-4.685-7.056l-5.012,1.81
				l-2.586-3.896l21.826-3.971L408.69,81.344 M405.837,85.074l-10.871,3.299L399,94.449L405.837,85.074 M408.777,79.667
				l-0.858,1.042l-1.116,1.354l-21.466,3.906l-1.494,0.272l0.84,1.265l2.586,3.896l0.435,0.654l0.738-0.267l4.273-1.543l3.864,5.822
				l-2.844,3.893l-0.411,0.563l0.386,0.581l5.059,7.62l0.79,1.19l0.848-1.15l14.147-19.206l0.415-0.563l-0.387-0.583l-5.059-7.62
				L408.777,79.667L408.777,79.667z M396.542,88.94l6.727-2.041l-4.23,5.8L396.542,88.94L396.542,88.94z"/>
		</g>
	</g>
	<path fill="#009444" stroke="#FFFFFF" stroke-width="2" d="M410.593,212.14c1.264-8.187,1.918-16.582,1.918-25.134
		c0-87.785-69.105-158.948-154.353-158.948c-85.246,0-154.351,71.163-154.351,158.948c0,9.14,0.749,18.099,2.188,26.813l9.063-1.442
		c-1.353-8.345-2.057-16.924-2.057-25.676C113,102.643,177.989,34.5,258.158,34.5c80.17,0,145.159,68.143,145.159,152.201
		c0,8.189-0.615,16.229-1.804,24.067L410.593,212.14z"/>
	<g>
		<defs>
			<path id="SVGID_5_" d="M401.849,212.845c1.188-7.838,1.803-15.877,1.803-24.066c0-84.059-64.988-152.202-145.158-152.202
				c-80.169,0-145.158,68.143-145.158,152.202c0,8.752,0.704,17.33,2.057,25.676L401.849,212.845z"/>
		</defs>
		<clipPath id="SVGID_6_">
			<use xlink:href="#SVGID_5_"  overflow="visible"/>
		</clipPath>
		<g clip-path="url(#SVGID_6_)">
			
				<image overflow="visible" width="448" height="300" xlink:href="../../../../Desktop/Alessios assets/Wood-Burning-Oven.jpeg"  transform="matrix(0.75 0 0 0.75 90.4932 26.1812)">
			</image>
		</g>
	</g>
	<path fill="#009444" stroke="#FFFFFF" stroke-width="2" stroke-miterlimit="10" d="M425.111,187.366
		c3.114,0,5.228,3.289,5.228,9.054c0,3.249,0.028,66.896,0.028,70.016c0,4.291-2.386,6.563-5.165,6.563
		c-2.082,0-322.622,0-334.821,0c-1.964,0-4.44-2.735-4.43-5.697c0.054-17.456,0.056-55.039,0-73.033
		c-0.01-2.955,2.287-6.902,5.094-6.902H425.111z"/>
	<g>
		<path fill="#F1F2F2" d="M161.228,237.991l-3.242-8.779h-14.365l-2.144,8.779l-7.931-0.099l14.863-34.465l-1.047-3.443h15.511
			l13.866,38.007H161.228z M149.956,207.519l-5.536,18.454h12.369L149.956,207.519z"/>
		<path fill="#F1F2F2" d="M178.734,237.94v-37.956h14.115v37.956H178.734z"/>
		<path fill="#F1F2F2" d="M209.258,223.777v13.715c1.896-0.033,3.557-0.572,4.987-1.621c1.429-1.048,2.561-2.434,3.391-4.164
			l3.392,3.391c-1.331,1.131-2.886,2.02-4.664,2.669c-1.779,0.648-3.716,0.974-5.811,0.974c-4.588,0-8.304-1.446-11.147-4.34
			c-2.843-2.895-4.264-6.402-4.264-10.524c0-4.123,1.421-7.646,4.264-10.574c2.844-2.924,6.56-4.387,11.147-4.387
			c4.588,0,8.296,1.454,11.122,4.363c2.826,2.91,4.256,6.408,4.29,10.499H209.258z M216.24,213.753
			c-1.763-2.328-4.09-3.491-6.982-3.491v12.068h9.975C219,218.939,218.002,216.078,216.24,213.753z"/>
		<path fill="#F1F2F2" d="M252.6,235.796c-2.395,1.964-5.985,2.944-10.773,2.944c-1.962,0-3.683-0.25-5.162-0.749
			c-1.48-0.499-2.902-1.13-4.265-1.896c-0.598-0.3-1.181-0.606-1.746-0.923c-0.565-0.315-1.164-0.639-1.795-0.973l2.494-3.988
			c1.163,2.028,2.485,3.64,3.965,4.838c1.479,1.195,3.648,1.795,6.509,1.795c0.864,0,1.479-0.142,1.845-0.426
			c0.366-0.281,0.55-0.639,0.55-1.071c0-0.133-0.035-0.298-0.101-0.499c-0.066-0.199-0.167-0.398-0.299-0.599
			c-0.101-0.198-0.241-0.398-0.424-0.599c-0.184-0.197-0.392-0.381-0.624-0.548l-8.18-6.185c-1.43-1.098-2.651-2.286-3.666-3.565
			s-1.521-2.702-1.521-4.265c0-2.794,1.322-5.188,3.965-7.183s6.109-2.991,10.399-2.991c0.1,0,0.19,0,0.273,0s0.176,0,0.275,0
			c1.796,0.066,3.558,0.366,5.286,0.897c1.728,0.531,3.274,1.314,4.639,2.345l-1.747,4.09c-0.166-0.268-0.332-0.524-0.498-0.775
			c-0.166-0.249-0.332-0.488-0.499-0.722c-0.897-1.265-1.878-2.253-2.942-2.969c-1.063-0.712-2.561-1.072-4.488-1.072
			c-0.033,0-0.075,0-0.124,0c-0.051,0-0.109,0-0.175,0c-0.898,0-1.546,0.184-1.945,0.551c-0.398,0.365-0.599,0.796-0.599,1.295
			c0,0.133,0.008,0.259,0.024,0.375c0.018,0.116,0.058,0.241,0.125,0.372c0.1,0.3,0.274,0.6,0.523,0.899
			c0.25,0.298,0.558,0.582,0.924,0.847l8.179,5.785c1.462,1.032,2.692,2.204,3.691,3.519c0.997,1.312,1.496,2.751,1.496,4.313
			C256.19,231.458,254.992,233.836,252.6,235.796z"/>
		<path fill="#F1F2F2" d="M282.624,235.796c-2.396,1.964-5.986,2.944-10.775,2.944c-1.96,0-3.681-0.25-5.16-0.749
			c-1.48-0.499-2.9-1.13-4.264-1.896c-0.598-0.3-1.182-0.606-1.746-0.923c-0.566-0.315-1.164-0.639-1.795-0.973l2.493-3.988
			c1.162,2.028,2.486,3.64,3.965,4.838c1.478,1.195,3.647,1.795,6.507,1.795c0.865,0,1.479-0.142,1.846-0.426
			c0.366-0.281,0.549-0.639,0.549-1.071c0-0.133-0.032-0.298-0.099-0.499c-0.065-0.199-0.167-0.398-0.299-0.599
			c-0.102-0.198-0.241-0.398-0.424-0.599c-0.184-0.197-0.392-0.381-0.623-0.548l-8.18-6.185c-1.431-1.098-2.652-2.286-3.668-3.565
			c-1.013-1.279-1.52-2.702-1.52-4.265c0-2.794,1.321-5.188,3.966-7.183c2.644-1.995,6.107-2.991,10.397-2.991
			c0.101,0,0.191,0,0.273,0c0.083,0,0.175,0,0.276,0c1.795,0.066,3.558,0.366,5.286,0.897c1.73,0.531,3.275,1.314,4.64,2.345
			l-1.746,4.09c-0.168-0.268-0.333-0.524-0.5-0.775c-0.166-0.249-0.331-0.488-0.498-0.722c-0.897-1.265-1.878-2.253-2.942-2.969
			c-1.064-0.712-2.562-1.072-4.489-1.072c-0.034,0-0.073,0-0.123,0c-0.051,0-0.108,0-0.177,0c-0.897,0-1.546,0.184-1.946,0.551
			c-0.396,0.365-0.596,0.796-0.596,1.295c0,0.133,0.006,0.259,0.023,0.375c0.017,0.116,0.057,0.241,0.126,0.372
			c0.1,0.3,0.272,0.6,0.523,0.899c0.249,0.298,0.557,0.582,0.923,0.847l8.178,5.785c1.463,1.032,2.695,2.204,3.693,3.519
			c0.995,1.312,1.495,2.751,1.495,4.313C286.215,231.458,285.018,233.836,282.624,235.796z"/>
		<path fill="#F1F2F2" d="M301.601,206.097c-1.513,0.781-3.351,1.172-5.513,1.172c-2.126,0-3.947-0.391-5.459-1.172
			c-1.514-0.781-2.27-1.721-2.27-2.818c0-1.131,0.756-2.087,2.27-2.868c1.512-0.781,3.333-1.172,5.459-1.172
			c2.162,0,4,0.391,5.513,1.172s2.269,1.737,2.269,2.868C303.869,204.376,303.113,205.315,301.601,206.097z M289.058,237.991
			v-28.229h14.114v28.229H289.058z"/>
		<path fill="#F1F2F2" d="M332.797,234.4c-2.826,2.894-6.552,4.34-11.171,4.34c-4.591,0-8.307-1.446-11.149-4.34
			c-2.842-2.895-4.263-6.402-4.263-10.524c0-4.123,1.421-7.646,4.263-10.574c2.843-2.924,6.559-4.387,11.149-4.387
			c4.619,0,8.345,1.463,11.171,4.387c2.825,2.928,4.24,6.451,4.24,10.574C337.037,227.998,335.622,231.506,332.797,234.4z
			 M327.659,214.251c-1.796-2.66-4.239-3.989-7.331-3.989v27.23c3.092-0.033,5.535-1.38,7.331-4.038
			c1.796-2.66,2.693-5.854,2.693-9.578C330.353,220.119,329.455,216.911,327.659,214.251z"/>
		<path fill="#F1F2F2" d="M351.3,190.761v7.58c0,1.497-0.142,2.812-0.424,3.941c-0.283,1.129-0.666,2.118-1.147,2.966
			c-0.482,0.849-1.047,1.57-1.696,2.17c-0.646,0.598-1.32,1.097-2.019,1.497l-1.795-1.797c1.263-0.829,2.31-1.812,3.142-2.942
			c0.83-1.131,1.247-2.512,1.247-4.141h-6.584v-9.274H351.3z"/>
		<path fill="#F1F2F2" d="M379.179,235.796c-2.393,1.964-5.984,2.944-10.773,2.944c-1.96,0-3.682-0.25-5.162-0.749
			c-1.479-0.499-2.9-1.13-4.264-1.896c-0.598-0.3-1.181-0.606-1.744-0.923c-0.565-0.315-1.165-0.639-1.796-0.973l2.493-3.988
			c1.163,2.028,2.485,3.64,3.964,4.838c1.479,1.195,3.649,1.795,6.509,1.795c0.865,0,1.479-0.142,1.848-0.426
			c0.364-0.281,0.547-0.639,0.547-1.071c0-0.133-0.031-0.298-0.099-0.499c-0.067-0.199-0.167-0.398-0.3-0.599
			c-0.099-0.198-0.242-0.398-0.424-0.599c-0.183-0.197-0.389-0.381-0.623-0.548l-8.182-6.185c-1.428-1.098-2.65-2.286-3.663-3.565
			c-1.014-1.279-1.521-2.702-1.521-4.265c0-2.794,1.321-5.188,3.965-7.183s6.11-2.991,10.398-2.991c0.101,0,0.191,0,0.274,0
			c0.082,0,0.174,0,0.274,0c1.796,0.066,3.558,0.366,5.287,0.897c1.728,0.531,3.274,1.314,4.64,2.345l-1.747,4.09
			c-0.167-0.268-0.332-0.524-0.499-0.775c-0.167-0.249-0.332-0.488-0.498-0.722c-0.898-1.265-1.88-2.253-2.942-2.969
			c-1.066-0.712-2.563-1.072-4.49-1.072c-0.033,0-0.075,0-0.125,0c-0.048,0-0.107,0-0.174,0c-0.897,0-1.546,0.184-1.946,0.551
			c-0.397,0.365-0.598,0.796-0.598,1.295c0,0.133,0.01,0.259,0.025,0.375c0.017,0.116,0.057,0.241,0.124,0.372
			c0.101,0.3,0.274,0.6,0.523,0.899c0.251,0.298,0.558,0.582,0.925,0.847l8.178,5.785c1.463,1.032,2.695,2.204,3.692,3.519
			c0.996,1.312,1.496,2.751,1.496,4.313C382.771,231.458,381.573,233.836,379.179,235.796z"/>
	</g>
	<g>
		<path fill="#FFFFFF" d="M148.605,257.453c-1.426,1.131-3.147,1.696-5.165,1.696c-0.015,0-0.036,0-0.065,0s-0.058,0-0.086,0
			c-0.029,0-0.055,0-0.077,0c-0.021,0-0.046,0-0.076,0v5.338h-6.548v-16.427h6.852c2.018,0,3.739,0.563,5.165,1.687
			c1.426,1.123,2.14,2.407,2.14,3.847C150.745,255.035,150.031,256.32,148.605,257.453z M145.817,250.276
			c-0.59-0.93-1.383-1.395-2.377-1.395c-0.043,0-0.09,0-0.141,0c-0.051,0-0.104,0.007-0.163,0.023v9.421c0.03,0,0.059,0,0.087,0
			c0.028,0,0.05,0,0.065,0c0.028,0.016,0.057,0.022,0.086,0.022s0.05,0,0.065,0c0.994,0,1.787-0.465,2.377-1.395
			c0.591-0.928,0.886-2.049,0.886-3.36C146.704,252.312,146.408,251.207,145.817,250.276z"/>
		<path fill="#FFFFFF" d="M164.36,264.53l-1.404-3.806h-6.224l-0.929,3.806l-3.436-0.043l6.44-14.934l-0.454-1.493h6.72l6.009,16.47
			H164.36z M159.477,251.325l-2.399,7.998h5.359L159.477,251.325z"/>
		<path fill="#FFFFFF" d="M182.213,263.136c-1.355,1.131-2.991,1.696-4.907,1.696c-0.964,0-1.804-0.147-2.518-0.442
			c-0.712-0.296-1.4-0.652-2.064-1.07c-0.274-0.173-0.548-0.353-0.821-0.541c-0.273-0.187-0.556-0.373-0.843-0.562l1.189-2.291
			c0.085,0.175,0.172,0.347,0.258,0.52c0.087,0.174,0.173,0.354,0.26,0.54c0.244,0.476,0.521,0.937,0.831,1.384
			c0.311,0.447,0.674,0.777,1.091,0.994c0.073,0.042,0.148,0.087,0.228,0.13c0.079,0.043,0.154,0.079,0.227,0.107
			c0.332,0.144,0.67,0.249,1.015,0.313c0.347,0.066,0.728,0.099,1.146,0.099c0.418,0,0.717-0.099,0.897-0.293
			s0.262-0.427,0.249-0.701c0-0.087-0.007-0.169-0.022-0.248c-0.015-0.078-0.037-0.164-0.064-0.25
			c-0.059-0.172-0.137-0.337-0.238-0.496c-0.102-0.158-0.225-0.302-0.368-0.434l-3.954-3.543c-0.764-0.549-1.374-1.21-1.826-1.988
			c-0.455-0.779-0.683-1.614-0.683-2.508c0-1.613,0.679-2.988,2.032-4.127c1.354-1.14,2.991-1.708,4.907-1.708
			c0.043,0,0.083,0,0.119,0c0.035,0,0.076,0,0.119,0c0.879,0.028,1.739,0.198,2.583,0.508c0.843,0.31,1.588,0.761,2.237,1.351
			l-0.821,2.336c-0.101-0.175-0.203-0.356-0.303-0.542c-0.1-0.187-0.208-0.375-0.324-0.562c-0.245-0.433-0.522-0.846-0.831-1.244
			c-0.311-0.396-0.667-0.7-1.07-0.918c-0.129-0.071-0.271-0.121-0.421-0.149c-0.151-0.03-0.306-0.051-0.466-0.067
			c-0.042,0-0.082,0-0.118,0c-0.036,0-0.076,0-0.118,0c-0.044,0-0.09,0-0.141,0s-0.097,0-0.141,0
			c-0.058,0.017-0.111,0.023-0.162,0.023c-0.051,0-0.098,0-0.141,0c-0.418,0.014-0.728,0.137-0.93,0.365
			c-0.202,0.232-0.295,0.514-0.28,0.845c0,0.073,0.008,0.146,0.021,0.226c0.014,0.081,0.029,0.162,0.044,0.25
			c0.057,0.201,0.147,0.4,0.269,0.594c0.123,0.194,0.271,0.365,0.444,0.509l3.934,3.306c0.763,0.533,1.372,1.188,1.827,1.967
			c0.453,0.777,0.679,1.614,0.679,2.507C184.244,260.632,183.567,262.007,182.213,263.136z"/>
		<path fill="#FFFFFF" d="M196.197,249.509v15.021h-6.549v-15.021l-3.998,1.018v-2.466h14.567v2.466L196.197,249.509z"/>
		<path fill="#FFFFFF" d="M208.191,254.112v8.905l6.656-1.017v2.486h-13.205v-16.427h12.622v2.466l-6.074-1.018v3.566l7.175-0.952
			v3.092L208.191,254.112z"/>
		<path fill="#FFFFFF" d="M229.468,256.837c-0.973,0.979-2.201,1.657-3.685,2.03c1.239,0.419,2.251,1.052,3.037,1.903
			c0.786,0.851,1.179,1.8,1.179,2.852c0,0.072-0.005,0.144-0.012,0.216c-0.007,0.073-0.011,0.145-0.011,0.217
			c-0.014,0.072-0.028,0.144-0.043,0.216c-0.014,0.073-0.028,0.144-0.042,0.217l-3.978,0.021c0-0.06,0.003-0.11,0.011-0.161
			c0.007-0.052,0.011-0.098,0.011-0.143c0-0.028,0.003-0.054,0.011-0.074c0.006-0.022,0.01-0.047,0.01-0.076
			c0-0.072,0.003-0.144,0.011-0.217c0.007-0.072,0.012-0.144,0.012-0.216c0-1.052-0.258-1.964-0.768-2.733
			c-0.513-0.77-1.142-1.278-1.891-1.523v5.122h-6.549v-16.427h6.851c2.018,0,3.74,0.563,5.166,1.687
			c1.426,1.123,2.14,2.407,2.14,3.847C230.928,254.774,230.442,255.855,229.468,256.837z M226,250.276
			c-0.59-0.93-1.383-1.395-2.377-1.395c-0.043,0-0.09,0-0.14,0c-0.051,0-0.105,0.007-0.162,0.023v9.421c0.028,0,0.056,0,0.085,0
			c0.03,0,0.05,0,0.066,0c0.028,0.016,0.057,0.022,0.086,0.022c0.028,0,0.051,0,0.064,0c0.994,0,1.787-0.465,2.377-1.395
			c0.591-0.928,0.887-2.049,0.887-3.36C226.886,252.312,226.591,251.207,226,250.276z"/>
		<path fill="#FFFFFF" d="M231.943,264.509v-16.448h6.57v16.448H231.943z"/>
		<path fill="#FFFFFF" d="M251.762,264.53l-1.405-3.806h-6.223l-0.931,3.806l-3.437-0.043l6.441-14.934l-0.455-1.493h6.722
			l6.009,16.47H251.762z M246.878,251.325l-2.399,7.998h5.359L246.878,251.325z"/>
		<path fill="#FFFFFF" d="M282.581,257.453c-1.427,1.131-3.147,1.696-5.165,1.696c-0.015,0-0.036,0-0.064,0s-0.059,0-0.088,0
			c-0.028,0-0.053,0-0.074,0c-0.022,0-0.048,0-0.076,0v5.338h-6.548v-16.427h6.851c2.018,0,3.738,0.563,5.165,1.687
			c1.426,1.123,2.141,2.407,2.141,3.847C284.722,255.035,284.007,256.32,282.581,257.453z M279.794,250.276
			c-0.591-0.93-1.383-1.395-2.378-1.395c-0.044,0-0.09,0-0.14,0c-0.051,0-0.105,0.007-0.163,0.023v9.421c0.028,0,0.058,0,0.086,0
			c0.03,0,0.051,0,0.064,0c0.029,0.016,0.06,0.022,0.088,0.022s0.05,0,0.064,0c0.995,0,1.787-0.465,2.378-1.395
			c0.591-0.928,0.886-2.049,0.886-3.36C280.68,252.312,280.385,251.207,279.794,250.276z"/>
		<path fill="#FFFFFF" d="M285.736,264.509v-16.448h6.57v16.448H285.736z"/>
		<path fill="#FFFFFF" d="M303.48,256.166c0.288-0.072,0.573-0.175,0.853-0.302c0.281-0.131,0.537-0.289,0.769-0.478l0.495,1.839
			c-0.444,0.259-0.913,0.464-1.402,0.614c-0.491,0.153-0.995,0.242-1.515,0.272l-1.944,4.798l5.165-0.865v2.485h-12.6l3.197-7.911
			c-0.302,0.016-0.601,0.059-0.896,0.13c-0.297,0.072-0.587,0.167-0.875,0.28l-0.477-1.75c0.39-0.158,0.789-0.272,1.199-0.345
			c0.411-0.071,0.825-0.109,1.242-0.109c0.044,0,0.088,0,0.131,0c0.042,0,0.093,0,0.151,0c0.042,0,0.087,0.003,0.129,0.013
			c0.043,0.005,0.087,0.009,0.13,0.009l2.075-5.121l-5.165,0.844v-2.465h12.599L303.48,256.166z"/>
		<path fill="#FFFFFF" d="M318.264,256.166c0.287-0.072,0.573-0.175,0.854-0.302c0.282-0.131,0.536-0.289,0.767-0.478l0.497,1.839
			c-0.446,0.259-0.915,0.464-1.404,0.614c-0.49,0.153-0.994,0.242-1.512,0.272l-1.946,4.798l5.165-0.865v2.485h-12.6l3.199-7.911
			c-0.304,0.016-0.603,0.059-0.897,0.13c-0.296,0.072-0.589,0.167-0.875,0.28l-0.477-1.75c0.39-0.158,0.789-0.272,1.199-0.345
			c0.411-0.071,0.826-0.109,1.243-0.109c0.044,0,0.087,0,0.13,0c0.044,0,0.093,0,0.15,0c0.044,0,0.087,0.003,0.131,0.013
			c0.043,0.005,0.086,0.009,0.13,0.009l2.075-5.121l-5.166,0.844v-2.465h12.599L318.264,256.166z"/>
		<path fill="#FFFFFF" d="M329.438,254.112v8.905l6.656-1.017v2.486h-13.206v-16.427h12.621v2.466l-6.071-1.018v3.566l7.175-0.952
			v3.092L329.438,254.112z"/>
		<path fill="#FFFFFF" d="M350.714,256.837c-0.973,0.979-2.2,1.657-3.685,2.03c1.238,0.419,2.25,1.052,3.036,1.903
			c0.785,0.851,1.179,1.8,1.179,2.852c0,0.072-0.004,0.144-0.011,0.216c-0.008,0.073-0.011,0.145-0.011,0.217
			c-0.015,0.072-0.029,0.144-0.043,0.216c-0.016,0.073-0.028,0.144-0.044,0.217l-3.977,0.021c0-0.06,0.004-0.11,0.011-0.161
			c0.008-0.052,0.011-0.098,0.011-0.143c0-0.028,0.004-0.054,0.011-0.074c0.007-0.022,0.012-0.047,0.012-0.076
			c0-0.072,0.002-0.144,0.01-0.217c0.007-0.072,0.011-0.144,0.011-0.216c0-1.052-0.256-1.964-0.768-2.733
			c-0.511-0.77-1.142-1.278-1.891-1.523v5.122h-6.548v-16.427h6.851c2.017,0,3.739,0.563,5.166,1.687
			c1.426,1.123,2.138,2.407,2.138,3.847C352.172,254.774,351.687,255.855,350.714,256.837z M347.245,250.276
			c-0.591-0.93-1.384-1.395-2.377-1.395c-0.043,0-0.09,0-0.141,0c-0.05,0-0.104,0.007-0.162,0.023v9.421c0.029,0,0.059,0,0.088,0
			c0.027,0,0.049,0,0.063,0c0.029,0.016,0.058,0.022,0.087,0.022s0.05,0,0.064,0c0.993,0,1.786-0.465,2.377-1.395
			c0.592-0.928,0.887-2.049,0.887-3.36C348.132,252.312,347.837,251.207,347.245,250.276z"/>
		<path fill="#FFFFFF" d="M353.188,264.509v-16.448h6.57v16.448H353.188z"/>
		<path fill="#FFFFFF" d="M373.007,264.53l-1.404-3.806h-6.224l-0.931,3.806l-3.436-0.043l6.44-14.934l-0.454-1.493h6.722
			l6.008,16.47H373.007z M368.123,251.325l-2.399,7.998h5.36L368.123,251.325z"/>
	</g>
	<g>
		<g>
			<path fill="#1C2821" d="M99.304,298.789c-1.132,0-2.137-0.178-2.987-0.529c-0.814-0.337-1.61-0.75-2.368-1.228
				c-0.31-0.196-0.619-0.398-0.928-0.61c-0.301-0.205-0.609-0.411-0.926-0.617l-0.38-0.247l1.979-3.815l0.728,1.45
				c0.099,0.198,0.197,0.402,0.295,0.615c0.254,0.49,0.553,0.988,0.881,1.461c0.295,0.426,0.642,0.743,1.031,0.944l0.265,0.151
				c0.066,0.036,0.132,0.067,0.196,0.093c0.345,0.15,0.689,0.256,1.034,0.321c0.348,0.065,0.745,0.099,1.18,0.099
				c0.308,0,0.531-0.058,0.629-0.163c0.108-0.117,0.152-0.245,0.144-0.415c0-0.091-0.006-0.154-0.017-0.215
				c-0.011-0.063-0.03-0.133-0.054-0.205c-0.051-0.152-0.12-0.297-0.212-0.442c-0.086-0.136-0.194-0.263-0.32-0.375l-4.391-3.937
				c-0.859-0.611-1.588-1.406-2.126-2.328c-0.547-0.937-0.824-1.957-0.824-3.035c0-1.938,0.819-3.609,2.435-4.967
				c1.59-1.336,3.531-2.014,5.77-2.014h0.264c1.041,0.034,2.058,0.234,3.041,0.595c0.993,0.365,1.883,0.903,2.648,1.601l0.245,0.223
				l-1.381,3.924l-0.544-0.934c-0.116-0.197-0.23-0.402-0.345-0.616c-0.107-0.197-0.223-0.398-0.346-0.6
				c-0.267-0.47-0.564-0.914-0.892-1.333c-0.299-0.382-0.646-0.681-1.03-0.887c-0.104-0.058-0.208-0.095-0.326-0.117
				c-0.152-0.029-0.309-0.051-0.469-0.065l-0.473,0.002c-0.08,0.017-0.159,0.024-0.236,0.024h-0.156
				c-0.301,0.011-0.527,0.09-0.655,0.237c-0.14,0.159-0.199,0.345-0.189,0.585c0,0.073,0.006,0.127,0.016,0.184l0.049,0.284
				c0.038,0.121,0.12,0.3,0.23,0.475c0.108,0.173,0.235,0.319,0.389,0.447l4.37,3.673c0.868,0.604,1.6,1.392,2.138,2.315
				c0.546,0.937,0.824,1.958,0.824,3.035c0,1.939-0.819,3.606-2.436,4.956C103.483,298.116,101.542,298.789,99.304,298.789z"/>
			<path fill="#FFFFFF" d="M100.6,279.281c0.976,0.032,1.932,0.221,2.868,0.564c0.936,0.344,1.764,0.844,2.484,1.5l-0.912,2.592
				c-0.112-0.192-0.224-0.392-0.336-0.601c-0.112-0.207-0.232-0.415-0.36-0.624c-0.272-0.479-0.581-0.939-0.924-1.38
				c-0.344-0.439-0.74-0.779-1.188-1.02c-0.144-0.08-0.3-0.136-0.468-0.168s-0.34-0.056-0.516-0.072c-0.048,0-0.092,0-0.132,0
				c-0.041,0-0.084,0-0.132,0c-0.048,0-0.1,0-0.156,0c-0.056,0-0.108,0-0.156,0c-0.064,0.017-0.124,0.024-0.18,0.024
				c-0.057,0-0.108,0-0.156,0c-0.464,0.016-0.808,0.152-1.032,0.408c-0.225,0.256-0.328,0.567-0.312,0.936
				c0,0.08,0.008,0.164,0.024,0.252c0.016,0.088,0.032,0.18,0.048,0.276c0.064,0.224,0.164,0.443,0.3,0.659
				c0.136,0.217,0.3,0.404,0.492,0.564l4.368,3.672c0.848,0.592,1.524,1.32,2.028,2.185c0.504,0.863,0.756,1.792,0.756,2.783
				c0,1.793-0.752,3.316-2.256,4.572s-3.32,1.884-5.448,1.884c-1.072,0-2.004-0.164-2.796-0.491
				c-0.792-0.328-1.556-0.725-2.292-1.188c-0.304-0.192-0.608-0.392-0.912-0.6c-0.304-0.208-0.616-0.416-0.936-0.624l1.32-2.544
				c0.096,0.191,0.192,0.384,0.288,0.575c0.096,0.192,0.192,0.393,0.288,0.601c0.272,0.527,0.58,1.04,0.924,1.536
				c0.344,0.496,0.748,0.863,1.212,1.104c0.08,0.048,0.164,0.096,0.252,0.145c0.088,0.048,0.172,0.087,0.252,0.119
				c0.368,0.16,0.744,0.276,1.128,0.349c0.384,0.072,0.808,0.107,1.272,0.107c0.464,0,0.795-0.107,0.996-0.323
				c0.2-0.217,0.292-0.477,0.276-0.78c0-0.096-0.008-0.188-0.024-0.276c-0.016-0.088-0.041-0.18-0.072-0.275
				c-0.064-0.192-0.152-0.376-0.264-0.553c-0.112-0.176-0.248-0.336-0.408-0.479l-4.392-3.937c-0.848-0.607-1.524-1.344-2.028-2.208
				c-0.504-0.863-0.756-1.791-0.756-2.783c0-1.792,0.752-3.32,2.256-4.584c1.503-1.264,3.32-1.896,5.448-1.896
				c0.048,0,0.092,0,0.132,0C100.508,279.281,100.552,279.281,100.6,279.281 M100.617,278.281H100.6h-0.132h-0.132
				c-2.359,0-4.409,0.717-6.091,2.131c-1.733,1.456-2.613,3.256-2.613,5.35c0,1.168,0.3,2.273,0.893,3.288
				c0.564,0.967,1.325,1.803,2.263,2.483l4.353,3.901c0.091,0.081,0.169,0.173,0.231,0.271c0.069,0.108,0.121,0.218,0.159,0.331
				c0.016,0.049,0.029,0.096,0.038,0.141c0.004,0.025,0.007,0.06,0.007,0.096v0.025l0.001,0.026
				c0.007,0.013,0.016,0.016,0.022,0.016c0.004,0,0.008-0.002,0.009-0.002c-0.005,0.002-0.086,0.038-0.305,0.038
				c-0.403,0-0.769-0.03-1.087-0.09c-0.309-0.059-0.617-0.153-0.915-0.283c-0.072-0.029-0.122-0.053-0.173-0.08
				c-0.071-0.04-0.146-0.082-0.217-0.125l-0.026-0.016l-0.027-0.014c-0.32-0.166-0.598-0.423-0.85-0.785
				c-0.315-0.455-0.604-0.935-0.857-1.425c-0.082-0.18-0.182-0.389-0.282-0.59l-0.145-0.289l-0.144-0.288l-0.879-1.75l-0.902,1.738
				l-1.32,2.544l-0.417,0.805l0.76,0.494c0.313,0.204,0.619,0.408,0.917,0.611c0.313,0.215,0.627,0.421,0.941,0.619
				c0.783,0.494,1.605,0.92,2.444,1.268c0.912,0.377,1.981,0.567,3.179,0.567c2.358,0,4.407-0.712,6.089-2.116
				c1.735-1.449,2.615-3.245,2.615-5.34c0-1.167-0.3-2.273-0.892-3.287c-0.567-0.974-1.335-1.806-2.281-2.474l-4.335-3.645
				c-0.115-0.096-0.208-0.203-0.288-0.329c-0.077-0.123-0.135-0.243-0.173-0.36l-0.038-0.22c-0.005-0.03-0.008-0.055-0.008-0.077
				c-0.007-0.184,0.027-0.234,0.063-0.275c0.012-0.015,0.097-0.062,0.314-0.069l0.123,0.001c0.093,0,0.188-0.008,0.282-0.024h0.054
				h0.156h0.132h0.083c0.128,0.013,0.253,0.03,0.376,0.055c0.064,0.012,0.12,0.031,0.17,0.06c0.34,0.183,0.626,0.43,0.887,0.762
				c0.311,0.399,0.595,0.822,0.842,1.258c0.134,0.221,0.246,0.414,0.351,0.606c0.115,0.216,0.233,0.426,0.351,0.628l1.09,1.866
				l0.717-2.038l0.912-2.592l0.22-0.625l-0.49-0.446c-0.813-0.74-1.759-1.313-2.813-1.699c-1.033-0.38-2.103-0.59-3.18-0.625
				L100.617,278.281L100.617,278.281z"/>
		</g>
		<g>
			<polygon fill="#1C2821" points="116.684,298.453 116.684,281.916 112.244,283.044 112.244,279.165 129.42,279.165 
				129.42,283.043 124.956,281.915 124.956,298.453 			"/>
			<path fill="#FFFFFF" d="M128.92,279.665v2.736l-4.464-1.128v16.68h-7.272v-16.68l-4.44,1.128v-2.736H128.92 M129.92,278.665h-1
				h-16.176h-1v1v2.736v1.286l1.246-0.317l3.194-0.811v15.394v1h1h7.272h1v-1v-15.396l3.219,0.813l1.245,0.314v-1.284v-2.736
				V278.665L129.92,278.665z"/>
		</g>
		<g>
			<path fill="#1C2821" d="M141.832,298.789c-2.733,0-5.108-0.985-7.061-2.929c-1.953-1.945-2.943-4.317-2.943-7.051
				c0-2.749,0.99-5.133,2.942-7.086c1.953-1.952,4.329-2.942,7.062-2.942c2.749,0,5.132,0.99,7.085,2.942
				c1.953,1.953,2.943,4.337,2.943,7.086c0,2.732-0.99,5.105-2.943,7.051C146.964,297.804,144.581,298.789,141.832,298.789z
				 M140.477,296.917c0.174,0.021,0.345,0.032,0.516,0.032c1.844,0,3.378-0.772,4.69-2.362c1.317-1.596,1.985-3.547,1.985-5.802
				c0-2.254-0.668-4.206-1.985-5.802c-1.313-1.59-2.847-2.362-4.69-2.362c-0.172,0-0.344,0.012-0.516,0.032
				c-0.038,0.005-0.075,0.01-0.112,0.015v16.235C140.401,296.907,140.439,296.912,140.477,296.917z"/>
			<path fill="#FFFFFF" d="M141.832,279.281c2.624,0,4.868,0.933,6.732,2.796c1.864,1.864,2.796,4.108,2.796,6.732
				c0,2.608-0.933,4.84-2.796,6.696c-1.864,1.855-4.108,2.783-6.732,2.783c-2.608,0-4.844-0.928-6.708-2.783
				c-1.864-1.856-2.796-4.088-2.796-6.696c0-2.624,0.932-4.868,2.796-6.732C136.988,280.214,139.224,279.281,141.832,279.281
				 M140.992,297.449c1.984,0,3.676-0.848,5.076-2.544c1.4-1.695,2.1-3.735,2.1-6.12c0-2.384-0.7-4.424-2.1-6.12
				c-1.4-1.695-3.092-2.544-5.076-2.544c-0.192,0-0.384,0.013-0.576,0.036c-0.192,0.024-0.376,0.053-0.552,0.084v17.112
				c0.176,0.016,0.36,0.036,0.552,0.06C140.608,297.438,140.8,297.449,140.992,297.449 M141.832,278.281
				c-2.87,0-5.365,1.039-7.415,3.089s-3.089,4.553-3.089,7.439c0,2.871,1.04,5.362,3.09,7.405c2.049,2.04,4.543,3.074,7.414,3.074
				c2.886,0,5.388-1.034,7.438-3.074c2.051-2.043,3.091-4.534,3.091-7.405c0-2.886-1.04-5.389-3.089-7.439
				C147.221,279.32,144.718,278.281,141.832,278.281L141.832,278.281z M140.864,281.123c0.043-0.001,0.086-0.002,0.128-0.002
				c1.685,0,3.093,0.713,4.305,2.181c1.259,1.525,1.871,3.319,1.871,5.483c0,2.165-0.612,3.959-1.871,5.483
				c-1.211,1.468-2.62,2.181-4.305,2.181c-0.042,0-0.085-0.001-0.128-0.002V281.123L140.864,281.123z"/>
		</g>
		<g>
			<polygon fill="#1C2821" points="168.109,298.43 161.43,286.741 162.894,298.43 158.467,298.43 158.467,282.911 156.45,279.165 
				165.412,279.165 170.635,287.51 169.301,279.189 173.771,279.189 173.771,298.43 			"/>
			<path fill="#FFFFFF" d="M165.135,279.665l6.384,10.2l-1.632-10.176h3.384v18.24h-4.872l-7.776-13.608l1.704,13.608h-3.36v-15.145
				l-1.68-3.12H165.135 M165.689,278.665h-0.554h-7.848h-1.674l0.794,1.474l1.561,2.898v14.893v1h1h3.36h1.133l-0.141-1.124
				l-1.083-8.645l5.294,9.265l0.288,0.504h0.581h4.872h1v-1v-18.24v-1h-1h-3.384h-1.173l0.186,1.158l0.851,5.308l-3.768-6.021
				L165.689,278.665L165.689,278.665z"/>
		</g>
		<g>
			<polygon fill="#1C2821" points="178.508,298.405 178.508,279.165 193.524,279.165 193.524,282.992 186.78,281.864 
				186.78,284.663 194.748,283.607 194.748,288.192 186.78,286.969 186.78,295.691 194.172,294.563 194.172,298.405 			"/>
			<path fill="#FFFFFF" d="M193.024,279.665v2.736l-6.744-1.128v3.96l7.968-1.056v3.432l-7.968-1.224v9.888l7.392-1.128v2.76
				h-14.664v-18.24H193.024 M194.024,278.665h-1h-14.016h-1v1v18.24v1h1h14.664h1v-1v-2.76v-1.164l-1.151,0.176l-6.241,0.952v-7.559
				l6.816,1.047l1.152,0.177v-1.165v-3.432v-1.142l-1.131,0.15l-0.092,0.012v-0.797v-2.736V278.665L194.024,278.665z
				 M187.28,284.092v-1.638l5.463,0.914L187.28,284.092L187.28,284.092z"/>
		</g>
		<g>
			<path fill="#1C2821" d="M199.483,298.382v-19.217h10.052c1.133,0,2.16,0.421,3.052,1.25c0.902,0.839,1.359,1.879,1.359,3.091
				c0,0.841-0.25,1.609-0.744,2.286c-0.264,0.361-0.555,0.68-0.872,0.951c1.063,0.479,1.98,1.112,2.734,1.886
				c0.994,1.02,1.498,2.179,1.498,3.444c0,1.758-0.83,3.273-2.468,4.504c-1.594,1.197-3.783,1.805-6.504,1.805H199.483z
				 M207.779,296.488c0.882-0.049,1.642-0.445,2.318-1.207c0.739-0.832,1.098-1.874,1.098-3.184c0-1.325-0.359-2.37-1.097-3.195
				c-0.676-0.755-1.436-1.147-2.319-1.196V296.488z M208.108,285.778c0.165,0.008,0.316,0.021,0.455,0.039
				c0.136,0.017,0.276,0.038,0.42,0.063l0.455,0.086h0.08c0.143-0.057,0.295-0.272,0.431-0.6c0.223-0.541,0.343-1.146,0.358-1.8
				c0-0.637-0.173-1.072-0.53-1.393c-0.412-0.369-0.877-0.642-1.384-0.81c-0.208-0.074-0.402-0.128-0.593-0.164
				c-0.007-0.001-0.014-0.002-0.021-0.003v4.57C207.894,285.769,208.004,285.772,208.108,285.778z"/>
			<path fill="#FFFFFF" d="M209.535,279.665c1.008,0,1.912,0.372,2.712,1.116c0.8,0.744,1.2,1.652,1.2,2.725
				c0,0.735-0.216,1.399-0.648,1.991c-0.432,0.593-0.936,1.049-1.512,1.368c1.375,0.48,2.516,1.185,3.42,2.112
				c0.904,0.928,1.356,1.96,1.356,3.096c0,1.601-0.756,2.968-2.268,4.104c-1.512,1.136-3.58,1.704-6.204,1.704h-7.608v-18.217
				H209.535 M207.279,286.266c0.064,0,0.12,0,0.168,0c0.048,0,0.096,0,0.144,0c0.176,0,0.34,0.004,0.492,0.012
				c0.152,0.008,0.292,0.021,0.42,0.036c0.128,0.016,0.26,0.036,0.396,0.06c0.136,0.024,0.284,0.053,0.444,0.084
				c0.016,0,0.028,0,0.036,0c0.008,0,0.02,0,0.036,0c0.016,0.017,0.028,0.024,0.036,0.024c0.008,0,0.02,0,0.036,0
				c0.368-0.016,0.676-0.324,0.924-0.924c0.248-0.601,0.38-1.26,0.396-1.98c0-0.016,0-0.027,0-0.036c0-0.008,0-0.02,0-0.035
				c0-0.721-0.232-1.288-0.696-1.704c-0.464-0.416-0.984-0.721-1.56-0.912c-0.224-0.08-0.444-0.141-0.66-0.181
				c-0.216-0.039-0.42-0.067-0.612-0.084V286.266 M207.279,297.018c0.064-0.017,0.12-0.024,0.168-0.024c0.048,0,0.096,0,0.144,0
				c1.104,0,2.064-0.46,2.88-1.38c0.816-0.92,1.224-2.092,1.224-3.516c0-1.44-0.408-2.616-1.224-3.528
				c-0.816-0.912-1.776-1.368-2.88-1.368c-0.016,0-0.04,0-0.072,0c-0.032,0-0.056,0-0.072,0c-0.032,0-0.06,0-0.084,0
				s-0.052,0-0.084,0V297.018 M209.535,278.665h-9.552h-1v1v18.217v1h1h7.608c2.833,0,5.122-0.641,6.805-1.904
				c1.77-1.331,2.667-2.98,2.667-4.904c0-1.4-0.552-2.677-1.64-3.794c-0.64-0.656-1.39-1.216-2.239-1.672
				c0.147-0.163,0.288-0.337,0.422-0.521c0.557-0.763,0.84-1.631,0.84-2.58c0-1.356-0.511-2.52-1.519-3.457
				C211.94,279.131,210.799,278.665,209.535,278.665L209.535,278.665z M208.279,285.287v-3.434c0.44,0.155,0.816,0.38,1.165,0.693
				c0.156,0.14,0.364,0.392,0.364,0.959c-0.013,0.641-0.121,1.187-0.32,1.671c-0.052,0.124-0.098,0.209-0.132,0.264
				c-0.098-0.019-0.191-0.036-0.279-0.052c-0.16-0.027-0.308-0.051-0.452-0.067C208.516,285.308,208.401,285.296,208.279,285.287
				L208.279,285.287z M208.279,295.904v-7.615c0.529,0.142,1.007,0.455,1.447,0.947c0.652,0.729,0.969,1.665,0.969,2.861
				c0,1.182-0.318,2.115-0.972,2.852C209.283,295.445,208.807,295.761,208.279,295.904L208.279,295.904z"/>
		</g>
		<g>
			<path fill="#1C2821" d="M221.332,298.396l7.376-17.104l-0.647-2.127h8.488l7.037,19.288h-8.527l-1.56-4.224h-6.171l-1.033,4.229
				L221.332,298.396z M232.553,291.669l-2.52-6.806l-2.042,6.806H232.553z"/>
			<path fill="#FFFFFF" d="M236.2,279.665l6.672,18.288h-7.464l-1.56-4.224h-6.912l-1.032,4.224l-3.816-0.048l7.152-16.584
				l-0.504-1.656H236.2 M227.32,292.169h5.952l-3.288-8.88L227.32,292.169 M236.899,278.665h-0.7h-7.464h-1.35l0.393,1.291
				l0.397,1.306l-7.007,16.248l-0.594,1.377l1.5,0.019l3.816,0.048l0.795,0.01l0.188-0.772l0.846-3.461h5.43l1.319,3.57l0.241,0.653
				h0.697h7.464h1.429l-0.49-1.343l-6.672-18.288L236.899,278.665L236.899,278.665z M228.664,291.169l1.419-4.731l1.751,4.731
				H228.664L228.664,291.169z"/>
		</g>
		<g>
			<path fill="#1C2821" d="M258.241,297.85c0.014-0.085,0.025-0.162,0.032-0.233c0.007-0.063,0.01-0.127,0.01-0.19
				c0.019-0.144,0.023-0.191,0.023-0.24v-0.24c0-1.181-0.253-2.186-0.753-2.987c-0.354-0.571-0.789-0.961-1.319-1.179v5.65h-8.271
				v-19.265h8.271v11.439c0.88-0.063,1.535-0.496,2.054-1.317c0.602-0.954,0.907-2.116,0.907-3.454l-0.025-6.668h5.486l0.027,6.666
				c0,1.425-0.58,2.745-1.725,3.926c-0.817,0.843-1.806,1.499-2.95,1.962c0.904,0.451,1.682,1.026,2.321,1.72
				c0.956,1.034,1.441,2.214,1.441,3.507c0,0.097-0.005,0.192-0.014,0.289c-0.009,0.071-0.01,0.131-0.01,0.191v0.055l-0.186,0.923
				l-5.416,0.029L258.241,297.85z"/>
			<path fill="#FFFFFF" d="M264.158,279.665l0.025,6.168c0,1.296-0.529,2.488-1.584,3.576c-1.057,1.089-2.4,1.84-4.033,2.256
				c1.393,0.465,2.525,1.169,3.396,2.112c0.873,0.944,1.309,2,1.309,3.168c0,0.08-0.004,0.16-0.012,0.24
				c-0.01,0.08-0.012,0.159-0.012,0.24c-0.018,0.079-0.033,0.159-0.049,0.239s-0.033,0.16-0.049,0.24l-4.416,0.024
				c0.016-0.097,0.029-0.185,0.037-0.265s0.012-0.16,0.012-0.239c0.016-0.081,0.023-0.16,0.023-0.24s0-0.16,0-0.24
				c0-1.28-0.275-2.364-0.828-3.252c-0.551-0.888-1.299-1.412-2.244-1.572v5.809h-7.271v-18.265h7.271v11.425
				c0.033,0,0.064,0,0.098,0c0.031,0,0.055,0,0.07,0c0.033,0.016,0.064,0.023,0.098,0.023c0.031,0,0.055,0,0.07,0
				c1.105,0,1.984-0.52,2.641-1.56s0.984-2.28,0.984-3.721l-0.023-6.168H264.158 M265.154,278.665h-0.996h-4.486h-1.004l0.004,1.004
				l0.023,6.168c0,1.238-0.279,2.311-0.83,3.184c-0.321,0.509-0.689,0.833-1.131,0.986v-10.342v-1h-1h-7.271h-1v1v18.265v1h1h7.271
				h1v-1v-4.22c0.142,0.145,0.272,0.313,0.395,0.511c0.45,0.723,0.678,1.639,0.678,2.725v0.24c0,0.017-0.002,0.034-0.005,0.051
				l-0.019,0.094v0.096c0,0.047-0.002,0.095-0.007,0.143c-0.006,0.061-0.018,0.128-0.029,0.202l-0.188,1.166l1.182-0.007
				l4.416-0.024l0.818-0.005l0.157-0.804l0.022-0.108l0.026-0.132c0.014-0.071,0.028-0.144,0.044-0.214l0.023-0.107v-0.109
				c0-0.04,0-0.079,0.004-0.119c0.014-0.137,0.02-0.249,0.02-0.361c0-1.423-0.529-2.717-1.574-3.847
				c-0.466-0.505-1-0.951-1.599-1.335c0.834-0.441,1.576-0.996,2.219-1.658c1.238-1.277,1.866-2.715,1.866-4.272l-0.025-6.172
				L265.154,278.665L265.154,278.665z"/>
		</g>
		<g>
			<polygon fill="#1C2821" points="269.396,298.405 269.396,279.165 284.412,279.165 284.412,282.992 277.668,281.864 
				277.668,284.663 285.635,283.607 285.635,288.192 277.668,286.969 277.668,295.691 285.061,294.563 285.061,298.405 			"/>
			<path fill="#FFFFFF" d="M283.912,279.665v2.736l-6.744-1.128v3.96l7.967-1.056v3.432l-7.967-1.224v9.888l7.393-1.128v2.76
				h-14.664v-18.24H283.912 M284.912,278.665h-1h-14.016h-1v1v18.24v1h1h14.664h1v-1v-2.76v-1.164l-1.15,0.176l-6.242,0.952v-7.559
				l6.815,1.047l1.151,0.177v-1.165v-3.432v-1.142l-1.131,0.15l-0.092,0.012v-0.797v-2.736V278.665L284.912,278.665z
				 M278.168,284.092v-1.638l5.463,0.914L278.168,284.092L278.168,284.092z"/>
		</g>
		<g>
			<path fill="#1C2821" d="M290.346,279.165h7.725c2.379,0,4.435,0.957,6.11,2.845c1.659,1.869,2.501,4.157,2.501,6.8
				c0,2.595-0.838,4.854-2.489,6.716c-1.666,1.878-3.708,2.839-6.069,2.856l-7.777,0.051V279.165z M298.619,296.441
				c0.043-0.014,0.087-0.027,0.132-0.042c0.839-0.316,1.654-1.188,2.406-2.583c0.773-1.432,1.165-3.108,1.165-4.983
				c0-1.891-0.392-3.57-1.164-4.993c-0.753-1.391-1.571-2.267-2.431-2.604c-0.034-0.012-0.071-0.023-0.108-0.034V296.441z"/>
			<path fill="#FFFFFF" d="M298.07,279.665c2.24,0,4.152,0.893,5.736,2.677s2.375,3.939,2.375,6.468c0,2.48-0.787,4.607-2.363,6.384
				s-3.477,2.672-5.699,2.688l-7.273,0.048v-18.265H298.07 M298.119,297.065c0.127-0.017,0.256-0.04,0.383-0.072
				c0.129-0.032,0.266-0.072,0.408-0.12c0.977-0.367,1.873-1.308,2.688-2.819c0.816-1.513,1.225-3.252,1.225-5.221
				c0-1.983-0.408-3.728-1.225-5.231c-0.814-1.504-1.711-2.448-2.688-2.832c-0.143-0.048-0.279-0.088-0.408-0.12
				c-0.127-0.032-0.256-0.048-0.383-0.048V297.065 M298.07,278.665h-7.225h-1v1v18.265v1.007l1.007-0.007l7.273-0.048
				c2.51-0.019,4.676-1.036,6.44-3.024c1.735-1.956,2.615-4.327,2.615-7.048c0-2.769-0.884-5.168-2.627-7.132
				C302.779,279.679,300.598,278.665,298.07,278.665L298.07,278.665z M299.119,295.626v-13.598c0.547,0.41,1.083,1.097,1.6,2.05
				c0.732,1.35,1.104,2.949,1.104,4.755c0,1.791-0.372,3.388-1.104,4.746C300.2,294.539,299.665,295.224,299.119,295.626
				L299.119,295.626z"/>
		</g>
		<g>
			<path fill="#1C2821" d="M327.594,298.405v-19.24h8.109c2.344,0,4.377,0.666,6.044,1.979c1.703,1.342,2.567,2.912,2.567,4.665
				s-0.863,3.326-2.566,4.676c-1.628,1.291-3.605,1.961-5.881,1.991v5.929H327.594z M335.867,290.581
				c0.88-0.063,1.534-0.493,2.053-1.309c0.602-0.944,0.906-2.11,0.906-3.463c0-1.321-0.305-2.471-0.906-3.416
				c-0.53-0.833-1.203-1.264-2.053-1.312V290.581z"/>
			<path fill="#FFFFFF" d="M335.703,279.665c2.238,0,4.15,0.624,5.734,1.872s2.377,2.673,2.377,4.272s-0.793,3.028-2.377,4.284
				s-3.496,1.884-5.734,1.884c-0.018,0-0.041,0-0.072,0c-0.033,0-0.064,0-0.096,0c-0.033,0-0.061,0-0.084,0
				c-0.025,0-0.053,0-0.084,0v5.928h-7.273v-18.24H335.703 M335.367,291.065c0.031,0,0.063,0,0.096,0c0.031,0,0.055,0,0.072,0
				c0.031,0.016,0.063,0.024,0.096,0.024c0.031,0,0.055,0,0.072,0c1.104,0,1.982-0.517,2.639-1.549
				c0.656-1.031,0.984-2.275,0.984-3.731c0-1.424-0.328-2.652-0.984-3.685c-0.656-1.031-1.535-1.548-2.639-1.548
				c-0.049,0-0.102,0-0.156,0c-0.057,0-0.117,0.009-0.18,0.024V291.065 M335.703,278.665h-7.609h-1v1v18.24v1h1h7.273h1v-1v-4.945
				c2.182-0.117,4.094-0.816,5.691-2.083c1.829-1.449,2.756-3.154,2.756-5.067c0-1.914-0.928-3.616-2.758-5.058
				C340.299,279.367,338.161,278.665,335.703,278.665L335.703,278.665z M336.367,289.984v-8.302c0.441,0.152,0.81,0.474,1.131,0.979
				c0.55,0.864,0.828,1.923,0.828,3.147c0,1.257-0.278,2.331-0.828,3.194C337.177,289.51,336.809,289.831,336.367,289.984
				L336.367,289.984z"/>
		</g>
		<g>
			<rect x="348.619" y="279.165" fill="#1C2821" width="8.295" height="19.265"/>
			<path fill="#FFFFFF" d="M356.414,279.665v18.265h-7.295v-18.265H356.414 M357.414,278.665h-1h-7.295h-1v1v18.265v1h1h7.295h1v-1
				v-18.265V278.665L357.414,278.665z"/>
		</g>
		<g>
			<path fill="#1C2821" d="M360.952,298.453l3.509-8.676c-0.031,0.007-0.062,0.015-0.093,0.021c-0.306,0.075-0.61,0.173-0.905,0.29
				l-0.521,0.209l-0.79-2.912l0.41-0.167c0.463-0.188,0.945-0.328,1.435-0.413c0.48-0.085,0.974-0.128,1.465-0.128h0.274
				l1.833-4.527l-5.439,0.887v-3.824h15.234l-3.477,8.589c0.215-0.111,0.414-0.241,0.595-0.388l0.597-0.485l0.854,3.153
				l-0.333,0.192c-0.529,0.307-1.089,0.552-1.663,0.729c-0.48,0.148-0.977,0.248-1.48,0.297l-1.708,4.213l5.438-0.91v3.851H360.952z
				"/>
			<path fill="#FFFFFF" d="M376.621,279.713l-3.623,8.952c0.32-0.079,0.635-0.191,0.947-0.336c0.313-0.144,0.596-0.319,0.852-0.527
				l0.553,2.04c-0.496,0.287-1.016,0.516-1.561,0.684c-0.543,0.168-1.104,0.269-1.68,0.3l-2.16,5.328l5.736-0.96v2.76h-13.992
				l3.553-8.784c-0.336,0.017-0.668,0.064-0.996,0.145s-0.652,0.184-0.973,0.312l-0.527-1.943c0.432-0.176,0.875-0.304,1.332-0.384
				c0.455-0.08,0.916-0.12,1.379-0.12c0.049,0,0.098,0,0.145,0c0.049,0,0.104,0,0.168,0c0.049,0,0.096,0.004,0.145,0.012
				c0.047,0.008,0.096,0.012,0.145,0.012l2.303-5.688l-5.736,0.936v-2.736H376.621 M378.104,278.713h-1.483h-13.992h-1v1v2.736
				v1.177l1.161-0.189l3.98-0.649l-1.373,3.391c-0.499,0.004-0.999,0.049-1.488,0.135c-0.523,0.092-1.04,0.241-1.536,0.443
				l-0.82,0.333l0.232,0.854l0.527,1.943l0.294,1.083l0.993-0.396l-2.833,7.005l-0.557,1.375h1.483h13.992h1v-1v-2.76v-1.182
				l-1.165,0.195l-3.973,0.665l1.261-3.109c0.433-0.059,0.86-0.153,1.276-0.282c0.609-0.188,1.203-0.448,1.766-0.773l0.665-0.385
				l-0.201-0.742l-0.553-2.04l-0.402-1.484l-0.338,0.274l2.526-6.242L378.104,278.713L378.104,278.713z"/>
		</g>
		<g>
			<path fill="#1C2821" d="M381.544,298.453l3.509-8.676c-0.031,0.007-0.062,0.015-0.093,0.021c-0.306,0.075-0.61,0.173-0.905,0.29
				l-0.521,0.209l-0.79-2.912l0.41-0.167c0.463-0.188,0.945-0.328,1.435-0.413c0.48-0.085,0.974-0.128,1.465-0.128h0.274
				l1.833-4.527l-5.439,0.887v-3.824h15.234l-3.477,8.589c0.215-0.111,0.414-0.241,0.595-0.388l0.597-0.485l0.854,3.153
				l-0.333,0.192c-0.529,0.307-1.089,0.552-1.663,0.729c-0.48,0.148-0.977,0.248-1.48,0.297l-1.708,4.213l5.438-0.91v3.851H381.544z
				"/>
			<path fill="#FFFFFF" d="M397.213,279.713l-3.623,8.952c0.32-0.079,0.635-0.191,0.947-0.336c0.313-0.144,0.596-0.319,0.852-0.527
				l0.553,2.04c-0.496,0.287-1.016,0.516-1.561,0.684c-0.543,0.168-1.104,0.269-1.68,0.3l-2.16,5.328l5.736-0.96v2.76h-13.992
				l3.553-8.784c-0.336,0.017-0.668,0.064-0.996,0.145s-0.652,0.184-0.973,0.312l-0.527-1.943c0.432-0.176,0.875-0.304,1.332-0.384
				c0.455-0.08,0.916-0.12,1.379-0.12c0.049,0,0.098,0,0.145,0c0.049,0,0.104,0,0.168,0c0.049,0,0.096,0.004,0.145,0.012
				c0.047,0.008,0.096,0.012,0.145,0.012l2.303-5.688l-5.736,0.936v-2.736H397.213 M398.696,278.713h-1.483h-13.992h-1v1v2.736
				v1.177l1.161-0.189l3.98-0.649l-1.373,3.391c-0.499,0.004-0.999,0.049-1.488,0.135c-0.523,0.092-1.04,0.241-1.536,0.443
				l-0.82,0.333l0.232,0.854l0.527,1.943l0.294,1.083l0.993-0.396l-2.833,7.005l-0.557,1.375h1.483h13.992h1v-1v-2.76v-1.182
				l-1.165,0.195l-3.973,0.665l1.261-3.109c0.433-0.059,0.86-0.153,1.276-0.282c0.609-0.188,1.203-0.448,1.766-0.773l0.665-0.385
				l-0.201-0.742l-0.553-2.04l-0.402-1.484l-0.338,0.274l2.526-6.242L398.696,278.713L398.696,278.713z"/>
		</g>
		<g>
			<path fill="#1C2821" d="M402.41,298.396l7.375-17.104l-0.647-2.127h8.489l7.037,19.288h-8.528l-1.559-4.224h-6.171l-1.034,4.229
				L402.41,298.396z M413.631,291.669l-2.521-6.806l-2.042,6.806H413.631z"/>
			<path fill="#FFFFFF" d="M417.277,279.665l6.672,18.288h-7.465l-1.559-4.224h-6.912l-1.033,4.224l-3.814-0.048l7.15-16.584
				l-0.504-1.656H417.277 M408.396,292.169h5.953l-3.289-8.88L408.396,292.169 M417.977,278.665h-0.699h-7.465h-1.35l0.393,1.291
				l0.397,1.306l-7.005,16.248l-0.594,1.377l1.499,0.019l3.814,0.048l0.795,0.01l0.189-0.772l0.847-3.461h5.43l1.317,3.569
				l0.241,0.654h0.697h7.465h1.43l-0.49-1.343l-6.672-18.288L417.977,278.665L417.977,278.665z M409.74,291.169l1.42-4.731
				l1.753,4.731H409.74L409.74,291.169z"/>
		</g>
	</g>
</g>
</svg>
