<?xml version="1.0" standalone="no"?>
<!DOCTYPE svg PUBLIC "-//W3C//DTD SVG 1.1//EN" "http://www.w3.org/Graphics/SVG/1.1/DTD/svg11.dtd" >
<svg xmlns="http://www.w3.org/2000/svg" xmlns:xlink="http://www.w3.org/1999/xlink" version="1.1">
<metadata>
Created by FontForge 20141024 at Sun Nov  2 22:28:16 2014
 By Jimmy Warting
(c) 1999 Nick Curtis. All Rights Reserved. Generated by Fontographer 3.52 
</metadata>
<defs>
<font id="StandingRoomOnly" horiz-adv-x="500" >
  <font-face 
    font-family="StandingRoomOnly"
    font-weight="400"
    font-stretch="normal"
    units-per-em="1000"
    panose-1="0 0 0 0 0 0 0 0 0 0"
    ascent="800"
    descent="-200"
    x-height="509"
    cap-height="706"
    bbox="-235 -350 1263 887"
    underline-thickness="50"
    underline-position="-55"
    unicode-range="U+0020-F002"
  />
<missing-glyph 
 />
    <glyph glyph-name=".notdef" 
 />
    <glyph glyph-name="glyph1" horiz-adv-x="0" 
 />
    <glyph glyph-name="glyph2" 
 />
    <glyph glyph-name="space" unicode=" " 
 />
    <glyph glyph-name="space" unicode="&#xa0;" 
 />
    <glyph glyph-name="exclam" unicode="!" horiz-adv-x="312" 
d="M287 42q0 -46 -38.5 -78.5t-92.5 -32.5t-92.5 32.5t-38.5 78.5q0 47 38.5 79.5t92.5 32.5t92.5 -32.5t38.5 -79.5v0zM297 706l-94 -509h-94l-95 509h283v0z" />
    <glyph glyph-name="quotedbl" unicode="&#x22;" horiz-adv-x="516" 
d="M239 613l-168 -151l-58 51l83 75q-10 5 -19 10t-17 12q-18 17 -27 37.5t-9 42.5q0 21 9 41.5t27 36.5q19 17 42 24.5t47 7.5h5.5h4.5q21 -2 41 -10t36 -22t24.5 -32t10.5 -36q1 -3 1 -5.5v-5.5v-5.5t-1 -4.5q-1 -18 -9.5 -35t-22.5 -31v0zM509 613l-168 -151l-58 51
l83 75q-10 5 -19 10t-17 12q-18 17 -27 37.5t-9 42.5q0 21 9 41.5t27 36.5q19 17 42 24.5t47 7.5h5.5h4.5q21 -2 41 -10t36 -22t24.5 -32t10.5 -36q1 -3 1 -5.5v-5.5v-5.5t-1 -4.5q-1 -18 -9.5 -35t-22.5 -31v0z" />
    <glyph glyph-name="numbersign" unicode="#" horiz-adv-x="498" 
d="M497 501l-25 -75h-123l-13 -44h127l-23 -75h-125l-89 -312h-75l88 312h-37l-89 -312h-75l88 312h-123l23 75h121l13 44h-123l21 75h122l78 274h75l-77 -274h38l77 274h76l-78 -274h128v0zM273 426h-38l-13 -44h38l13 44v0z" />
    <glyph glyph-name="dollar" unicode="$" horiz-adv-x="602" 
d="M575 229q0 -80 -65 -138.5t-195 -65.5v-97h-28v97q-59 0 -103.5 15t-85.5 38q-18 9 -35 19t-36 20l50 80q35 -61 79.5 -97.5t130.5 -36.5v90l-145 110q-43 33 -73.5 71.5t-30.5 85.5q0 78 68.5 135.5t180.5 66.5v99h28v-98q2 0 3 0.5t3 0.5h2.5h2.5h5.5h5.5
q54 -2 106 -18t93 -47l-35 -82q-5 8 -10.5 16t-10.5 15q-27 39 -60 60.5t-94 20.5h-2.5h-3.5q-1 -1 -2.5 -1h-2.5v-93l156 -110q44 -31 74 -70t30 -86v0zM315 68q11 4 15.5 10.5t4.5 14.5q0 5 -1.5 9.5t-3.5 9.5q-3 5 -6.5 10t-8.5 9v-63v0zM287 520v58q-6 -5 -9 -12t-3 -15
q0 -4 1 -8t3 -7q1 -4 3 -8t5 -8v0z" />
    <glyph glyph-name="percent" unicode="%" 
d="M475 109q0 -44 -31.5 -76t-75.5 -32q-45 0 -76.5 32t-31.5 76t32 76t76 32t75.5 -32t31.5 -76v0zM413 109q0 18 -14 31.5t-31 13.5q-19 0 -32.5 -13t-13.5 -32t13.5 -32.5t32.5 -13.5q18 0 31.5 13.5t13.5 32.5v0zM410 678l-239 -676h-67l237 676h69v0zM250 571
q0 -44 -32 -75.5t-76 -31.5t-76 31.5t-32 75.5t32 76t76 32t76 -32t32 -76v0zM187 571q0 19 -13 32.5t-32 13.5t-32 -13t-13 -33q0 -19 13 -32t32 -13t32 13t13 32v0z" />
    <glyph glyph-name="ampersand" unicode="&#x26;" horiz-adv-x="926" 
d="M884 -56h-397l-48 67q-31 -36 -74.5 -57.5t-94.5 -22.5h-2h-2h-2h-2h-8t-9 1q-12 1 -24.5 3.5t-23.5 5.5q-18 6 -34 14.5t-31 19.5q-40 29 -64.5 75t-25.5 100v1.5v1.5v0.5v1.5q0 72 42.5 129.5t106.5 79.5l-17 26q-1 1 -2 2.5t-2 2.5l-1 1q-14 21 -22 43.5t-11 45.5
q0 6 -0.5 11.5t-0.5 11.5q1 82 60 146.5t153 64.5q6 0 12.5 -0.5t13.5 -1.5q77 -8 130.5 -67t53.5 -133q0 -5 -0.5 -10t-0.5 -10l-2 -10l-2 -10q-2 -10 -4.5 -19.5t-5.5 -18.5q25 19 52 34t57 25q26 9 54.5 14.5t57.5 7.5h9.5h9.5v0v0v-1v0v0v0h-1v0v-1h1v-243v-1
q-14 0 -28 -3t-28 -8q-13 -5 -25 -12.5t-22 -17.5l204 -289v0zM417 45l-205 292q-34 -25 -56 -70.5t-22 -100.5q0 -82 46.5 -140t111.5 -58h4.5h4.5q2 1 4 1h4q17 4 32.5 10.5t29.5 15.5t25.5 22t20.5 28v0zM515 467q3 11 4.5 22.5t1.5 22.5q0 26 -7.5 51.5t-23.5 47.5
q-23 33 -56.5 51.5t-71.5 22.5l153 -218v0z" />
    <glyph glyph-name="quotesingle" unicode="'" horiz-adv-x="285" 
d="M239 613l-168 -151l-58 51l83 75q-10 5 -19 10t-17 12q-18 17 -27 37.5t-9 42.5q0 21 9 41.5t27 36.5q19 17 42 24.5t47 7.5h5.5h4.5q21 -2 41 -10t36 -22t24.5 -32t10.5 -36q1 -3 1 -5.5v-5.5v-5.5t-1 -4.5q-1 -18 -9.5 -35t-22.5 -31v0z" />
    <glyph glyph-name="parenleft" unicode="(" horiz-adv-x="200" 
d="M211 -216q-82 4 -126 87.5t-64 181.5q-14 72 -18 137.5t-4 101.5q0 37 3 104.5t17 141.5q18 102 61.5 187.5t127.5 90.5v-84q-50 -7 -77.5 -76t-39.5 -151q-10 -67 -13 -127t-3 -86q0 -24 2.5 -82t12.5 -123q12 -80 40 -147t81 -69v-87v0z" />
    <glyph glyph-name="parenright" unicode=")" horiz-adv-x="200" 
d="M214 292q0 -36 -4.5 -101.5t-18.5 -137.5q-20 -98 -64 -181.5t-126 -86.5v85q53 3 81 70t40 147q10 65 12.5 123t2.5 82q0 26 -3 86t-13 127q-12 82 -39.5 151t-77.5 76v84q84 -5 127.5 -90.5t61.5 -187.5q14 -74 17.5 -141.5t3.5 -104.5v0z" />
    <glyph glyph-name="asterisk" unicode="*" horiz-adv-x="304" 
d="M290 595q0 -16 -11.5 -28t-28.5 -12q-7 0 -13.5 4.5t-13.5 9.5q-6 5 -12.5 9.5t-12.5 4.5h-25l12 -21q3 -6 9.5 -9t13.5 -6q1 0 2 -0.5t2 -0.5q11 -4 20 -11t9 -25q0 -17 -11.5 -28.5t-28.5 -11.5q-14 0 -26 9.5t-12 24.5q0 4 0.5 8t1.5 8t1.5 8t0.5 8q0 7 -2.5 13
t-5.5 11l-2 4t-3 4q0 1 -0.5 2t-1.5 2q-1 -2 -2.5 -4.5t-2.5 -4.5q0 -1 -0.5 -1.5l-1.5 -1.5q-3 -6 -5.5 -11.5t-2.5 -12.5q0 -4 0.5 -8t1.5 -8q0 -5 0.5 -9t0.5 -8q0 -17 -12.5 -24.5t-27.5 -8.5h-1.5h-1.5q-14 0 -22.5 11t-10.5 24q-1 2 -1 5v5q0 14 9 20t20 10h1h1
q7 3 14 6.5t11 9.5l12 22h-25q-5 0 -9.5 -2.5t-9.5 -5.5q-2 -2 -3.5 -3t-3.5 -3q-6 -5 -13.5 -9.5t-18.5 -4.5t-20 9t-12 20q-1 3 -1.5 5.5t-0.5 5.5q0 16 12 28t28 12q6 0 9.5 -2t7.5 -5q2 -1 4 -3t5 -4q7 -5 18 -9.5t33 -4.5l-13 22q-3 6 -9.5 9t-13.5 6h-1.5t-1.5 1
q-11 4 -20 10.5t-9 24.5q0 17 12 28.5t28 11.5h1.5h1.5q13 -1 23.5 -10.5t10.5 -23.5q0 -4 -0.5 -8t-0.5 -8q-1 -4 -1.5 -8t-0.5 -8q0 -7 2 -12t5 -10q1 -2 2.5 -4.5t3.5 -4.5q0 -1 0.5 -2t1.5 -2q2 3 4 6.5t4 6.5l4 10t2 12q0 4 -0.5 8t-0.5 8q-1 4 -1.5 8t-0.5 8
q0 14 10.5 23.5t23.5 10.5h1.5h1.5q17 0 28.5 -11.5t11.5 -28.5t-9 -24t-20 -12q-1 0 -2.5 -0.5t-2.5 -0.5q-7 -3 -12.5 -6t-8.5 -8l-13 -22h26q6 0 11.5 3.5t10.5 7.5q1 1 2 1.5t2 1.5q6 5 12.5 9.5t13.5 4.5q16 0 28 -12t12 -28v0z" />
    <glyph glyph-name="plus" unicode="+" horiz-adv-x="400" 
d="M400 237h-165v-164h-76v164h-164v76h164v165h76v-165h165v-76v0z" />
    <glyph glyph-name="comma" unicode="," horiz-adv-x="285" 
d="M239 -47l-168 -151l-58 51l83 75q-10 5 -19 10.5t-17 12.5q-18 16 -27 36.5t-9 42.5q0 21 9 41.5t27 36.5q19 17 42 24.5t47 7.5h5.5h4.5q21 -2 41 -10t36 -22t24.5 -32t10.5 -36q1 -3 1 -5.5v-5.5v-5.5t-1 -4.5q-1 -18 -9.5 -34.5t-22.5 -30.5v-1z" />
    <glyph glyph-name="hyphen" unicode="-" horiz-adv-x="343" 
d="M313 254h-283v136h283v-136v0z" />
    <glyph glyph-name="period" unicode="." horiz-adv-x="312" 
d="M287 42q0 -46 -38.5 -78.5t-92.5 -32.5t-92.5 32.5t-38.5 78.5q0 47 38.5 79.5t92.5 32.5t92.5 -32.5t38.5 -79.5v0z" />
    <glyph glyph-name="slash" unicode="/" horiz-adv-x="300" 
d="M349 815l-330 -980h-78l330 980h78v0z" />
    <glyph glyph-name="zero" unicode="0" horiz-adv-x="668" 
d="M638 232q0 -126 -89.5 -214.5t-214.5 -88.5t-214.5 88.5t-89.5 214.5q0 125 89.5 214t214.5 89t214.5 -89t89.5 -214v0zM556 232q0 91 -65 156t-157 65h-4.5h-4.5h-5.5h-4.5v-442q2 0 4.5 -0.5t5.5 -0.5h4.5h4.5q92 0 157 65.5t65 156.5v0z" />
    <glyph glyph-name="one" unicode="1" horiz-adv-x="312" 
d="M297 -54h-283v478l283 130v-608v0z" />
    <glyph glyph-name="two" unicode="2" horiz-adv-x="550" 
d="M511 -54h-486v84l284 450h-2.5h-3.5q-38 0 -73 -18.5t-57 -53.5q-6 -10 -10.5 -19.5t-7.5 -20.5h-69q4 20 11 39t19 37q32 50 83 77t106 27h10t10 -1q25 -2 50 -10.5t47 -22.5q50 -31 76.5 -82t26.5 -106q0 -31 -8.5 -61t-25.5 -57q-1 -1 -35 -56t-80 -128h135v-78v0z
" />
    <glyph glyph-name="three" unicode="3" horiz-adv-x="507" 
d="M484 121q0 -80 -72.5 -136t-174.5 -56q-69 0 -125.5 25.5t-88.5 68.5l47 64q12 -31 45.5 -53t79.5 -30v233l-56 54l154 166h-237v78h341v-79l-131 -144q92 -8 155 -62.5t63 -128.5v0z" />
    <glyph glyph-name="four" unicode="4" horiz-adv-x="638" 
d="M609 -176h-283v194h-252l-45 78l249 448l68 -36l-228 -412h208v318h283v-590v0z" />
    <glyph glyph-name="five" unicode="5" horiz-adv-x="460" 
d="M440 142q0 -88 -70 -150.5t-169 -62.5q-50 0 -94 17t-76 47l55 57q14 -13 30.5 -22t35.5 -14v256q-16 -4 -31 -12t-28 -18l-72 34l32 261h350v-78h-281l-13 -120q21 10 44.5 15t47.5 5q99 0 169 -63t70 -152v0z" />
    <glyph glyph-name="six" unicode="6" horiz-adv-x="670" 
d="M569 33q-45 -52 -107.5 -79.5t-128.5 -27.5q-52 1 -102 18t-92 52q-54 45 -81.5 107t-27.5 128v7.5t1 7.5q2 48 19.5 94.5t50.5 86.5l311 373l59 -52l-180 -218q6 1 11.5 1.5t11.5 0.5q6 1 11.5 1h11.5h8h8q47 -3 93 -20t85 -50q53 -45 80.5 -107t27.5 -128
q0 -52 -17.5 -102t-52.5 -93v0zM508 84q24 29 37 62.5t15 68.5q1 4 1 7.5v7.5q0 49 -20.5 94.5t-59.5 78.5q-25 22 -55 34.5t-62 16.5v-447q41 5 78.5 24.5t65.5 52.5v0z" />
    <glyph glyph-name="seven" unicode="7" horiz-adv-x="638" 
d="M609 535l-322 -734l-258 117l235 539h-158v78h126h126h125h126v0z" />
    <glyph glyph-name="eight" unicode="8" horiz-adv-x="652" 
d="M622 175q0 -103 -86.5 -174.5t-208.5 -71.5q-123 0 -210 71.5t-87 174.5q0 71 44 128.5t116 88.5q-35 26 -55.5 63t-20.5 79q0 77 62 130.5t149 53.5t149.5 -53.5t62.5 -130.5q0 -43 -20 -79.5t-55 -62.5q71 -31 115.5 -88.5t44.5 -128.5v0zM544 175q0 71 -64 121
t-153 50h-1v0v-344v0h1q89 0 153 50.5t64 122.5v0zM460 534q0 46 -40 78.5t-94 33.5v-223q54 0 94 32.5t40 78.5v0z" />
    <glyph glyph-name="nine" unicode="9" horiz-adv-x="670" 
d="M568 43l-326 -393l-60 51l197 238q-6 0 -11.5 -0.5t-10.5 -0.5q-5 -1 -10.5 -1h-11.5h-7.5h-7.5q-48 3 -94.5 20.5t-86.5 49.5q-53 45 -80.5 107t-27.5 128q0 52 17.5 102t52.5 93q45 53 107 80.5t128 26.5h6.5h7.5q48 -2 95 -19.5t86 -50.5q54 -45 81.5 -107t26.5 -128
v-7.5v-7.5q-3 -48 -20.5 -94.5t-50.5 -86.5v0zM509 94q26 32 39 69t13 76q0 49 -20.5 94.5t-60.5 79.5q-31 26 -68.5 39t-76.5 13h-2h-2h-2h-2v-451h2.5h2.5h2.5h2.5q48 0 93 20.5t79 59.5v0z" />
    <glyph glyph-name="colon" unicode=":" horiz-adv-x="312" 
d="M287 42q0 -46 -38.5 -78.5t-92.5 -32.5t-92.5 32.5t-38.5 78.5q0 47 38.5 79.5t92.5 32.5t92.5 -32.5t38.5 -79.5v0zM287 332q0 -46 -38.5 -79t-92.5 -33t-92.5 33t-38.5 79q0 47 38.5 79.5t92.5 32.5t92.5 -32.5t38.5 -79.5v0z" />
    <glyph glyph-name="semicolon" unicode=";" horiz-adv-x="285" 
d="M239 -47l-168 -151l-58 51l83 75q-10 5 -19 10.5t-17 12.5q-18 16 -27 36.5t-9 42.5q0 21 9 41.5t27 36.5q19 17 42 24.5t47 7.5h5.5h4.5q21 -2 41 -10t36 -22t24.5 -32t10.5 -36q1 -3 1 -5.5v-5.5v-5.5t-1 -4.5q-1 -18 -9.5 -34.5t-22.5 -30.5v-1zM287 332
q0 -46 -38.5 -79t-92.5 -33t-92.5 33t-38.5 79q0 47 38.5 79.5t92.5 32.5t92.5 -32.5t38.5 -79.5v0z" />
    <glyph glyph-name="less" unicode="&#x3c;" horiz-adv-x="400" 
d="M379 51l-375 217v57l375 217v-92l-250 -154l250 -154v-91v0z" />
    <glyph glyph-name="equal" unicode="=" horiz-adv-x="400" 
d="M400 157h-405v76h405v-76v0zM400 307h-405v76h405v-76v0z" />
    <glyph glyph-name="greater" unicode="&#x3e;" horiz-adv-x="400" 
d="M388 268l-375 -217v91l250 154l-250 154v92l375 -217v-57v0z" />
    <glyph glyph-name="question" unicode="?" horiz-adv-x="493" 
d="M349 42q0 -46 -38.5 -78.5t-92.5 -32.5t-92.5 32.5t-38.5 78.5q0 47 38.5 79.5t92.5 32.5t92.5 -32.5t38.5 -79.5v0zM470 569v-7.5v-6.5q0 -43 -14 -68.5t-35 -47.5q-9 -9 -18 -18.5t-19 -19.5l-110 -121q-11 -13 -18 -25t-7 -22t9.5 -16.5t31.5 -6.5h0.5h1.5h1.5h0.5
l2 -36h-10.5h-10.5q-77 0 -117.5 27t-43.5 78v4.5v4.5q0 46 22 113t49 138q1 3 2.5 6.5t2.5 7.5q2 6 5 13t5 14q3 8 5.5 15.5t4.5 15.5q4 12 6.5 24.5t2.5 23.5q0 16 -7.5 26t-27.5 10q-28 -1 -47 -14t-36 -36q-10 -12 -19.5 -27t-20.5 -33l-39 74q41 32 89.5 49.5
t105.5 20.5h6.5t7.5 1h6.5h6.5q107 -1 164.5 -44t61.5 -117v0z" />
    <glyph glyph-name="at" unicode="@" 
 />
    <glyph glyph-name="A" unicode="A" horiz-adv-x="935" 
d="M909 -56h-311l-65 176h-288l-43 -176l-159 2l298 691l-21 69h311l278 -762v0zM509 185l-137 370l-111 -370h248v0z" />
    <glyph glyph-name="B" unicode="B" horiz-adv-x="737" 
d="M703 189q0 -100 -94.5 -171t-258.5 -71l-317 -1v760h398q63 0 113 -46.5t50 -113.5q0 -46 -27 -83t-63 -57q86 -30 142.5 -88t56.5 -129v0zM521 188q0 90 -51 147t-120 57h-3h-3h-3.5h-3.5v-409q4 1 7 1h6q69 0 120 57.5t51 146.5v0zM484 546q0 45 -29 71t-65 38
q-14 5 -27.5 7.5t-25.5 3.5v-235h7h6q11 0 20.5 -0.5t17.5 -1.5t16.5 -2.5t18.5 -3.5h1.5h1.5q1 -1 1.5 -1h1.5q23 1 38.5 38.5t16.5 82.5v1.5v1.5v0z" />
    <glyph glyph-name="C" unicode="C" horiz-adv-x="656" 
d="M626 -17q-44 -25 -94.5 -39t-105.5 -14q-163 0 -279.5 116t-116.5 279q0 164 116.5 280.5t279.5 116.5q55 0 105.5 -14t94.5 -40v-127q-12 12 -25 25.5t-27 27.5q-31 32 -67.5 59.5t-80.5 33.5q-4 1 -7.5 1h-7.5q-16 0 -31.5 -3t-30.5 -7v-706q3 0 5.5 -0.5t4.5 -0.5
q13 -3 25.5 -5t25.5 -2h4h4t4 0.5t4 0.5q43 6 79.5 33.5t67.5 60.5q14 15 27 29.5t26 26.5v-132v0z" />
    <glyph glyph-name="D" unicode="D" horiz-adv-x="703" 
d="M671 325q0 -155 -98.5 -266t-237.5 -112l-303 -2v761h301q140 0 239 -111.5t99 -269.5v0zM531 324q0 124 -51 218t-112 118q-9 3 -17 5t-16 2v-686q8 1 16 3t17 5q61 23 112 117.5t51 217.5v0z" />
    <glyph glyph-name="E" unicode="E" horiz-adv-x="699" 
d="M667 375l-332 51v-412l308 47v-115h-611v760h584v-114l-281 47v-165l332 44v-143v0z" />
    <glyph glyph-name="F" unicode="F" horiz-adv-x="699" 
d="M667 375l-332 51v-480h-303v760h584v-114l-281 47v-160l332 39v-143v0z" />
    <glyph glyph-name="G" unicode="G" horiz-adv-x="821" 
d="M783 -22q-23 8 -45.5 12.5t-45.5 4.5q-16 0 -33.5 -3.5t-34.5 -12.5q-43 -22 -90.5 -35.5t-99.5 -13.5q-164 0 -280.5 116t-116.5 279q0 164 116.5 280.5t280.5 116.5q55 0 105.5 -14t94.5 -40v-127q-12 12 -25 25.5t-27 27.5q-32 32 -68.5 59.5t-79.5 33.5q-4 1 -7.5 1
h-7.5q-16 0 -32 -3t-31 -7v-706q3 0 5.5 -0.5t4.5 -0.5q13 -3 25.5 -5t26.5 -2h4h4t4 0.5t4 0.5q12 1 23.5 5t22.5 9v385l-61 89h364v-475v0z" />
    <glyph glyph-name="H" unicode="H" horiz-adv-x="704" 
d="M672 -56h-140v453h-197v-452h-303v761h303v-254h197v254h140v-762v0z" />
    <glyph glyph-name="I" unicode="I" horiz-adv-x="334" 
d="M319 -55h-304v761h304v-761v0z" />
    <glyph glyph-name="J" unicode="J" horiz-adv-x="383" 
d="M361 116q0 -163 -116.5 -279.5t-279.5 -116.5q-54 0 -105 14t-94 40l-1 131q14 -11 27.5 -26t28.5 -30q31 -32 66.5 -60t77.5 -34q4 -1 7.5 -1h7.5q16 0 31.5 3t30.5 7v942h319v-590v0z" />
    <glyph glyph-name="K" unicode="K" horiz-adv-x="720" 
d="M688 449q0 -81 -66 -149t-168 -94q87 -29 141.5 -88t54.5 -132q0 -5 -0.5 -10t-0.5 -10l-2 -10l-2 -10l-184 -1q1 6 1.5 11t0.5 10q1 5 1 10v10q0 80 -34.5 135.5t-93.5 65.5v-242h-303v761h303v-476h4h3q2 -1 4 -1h3q69 0 110 65t41 155l-1 257h187l1 -257v0z" />
    <glyph glyph-name="L" unicode="L" horiz-adv-x="642" 
d="M612 -54h-583v760h304v-692l279 47v-115v0z" />
    <glyph glyph-name="M" unicode="M" horiz-adv-x="830" 
d="M793 -55h-274v559l-151 -278l-217 300l52 -582h-121l1 662l-45 100h240l143 -206l107 206h265v-761v0z" />
    <glyph glyph-name="N" unicode="N" horiz-adv-x="732" 
d="M699 -55h-203l-324 567l71 -567h-140v631l-70 130h327l266 -425l-68 424h141v-760v0z" />
    <glyph glyph-name="O" unicode="O" horiz-adv-x="873" 
d="M833 325q0 -163 -116.5 -279t-280.5 -116q-163 0 -279.5 116t-116.5 279q0 164 116.5 280.5t279.5 116.5q164 0 280.5 -116.5t116.5 -280.5v0zM700 326q0 149 -87.5 255t-211.5 106q-12 0 -24 -1.5t-23 -3.5v-713q11 -1 23 -2.5t24 -1.5q124 0 211.5 106t87.5 255v0z" />
    <glyph glyph-name="P" unicode="P" horiz-adv-x="720" 
d="M688 450q0 -100 -99 -178.5t-239 -78.5h-3h-4h-3.5h-3.5v-247h-303v760h317q140 0 239 -78t99 -178v0zM501 450q0 89 -41 153.5t-110 64.5h-6.5t-7.5 -1v-436h4h3q2 -1 4 -1h3q69 0 110 64.5t41 155.5v0z" />
    <glyph glyph-name="Q" unicode="Q" horiz-adv-x="871" 
d="M831 334q0 -157 -108.5 -271t-264.5 -123q8 -3 15.5 -6t14.5 -7q29 -14 58.5 -20t59.5 -6q34 0 66.5 8t62.5 24l65 -162q-44 -19 -91.5 -29.5t-97.5 -10.5q-48 0 -95.5 10t-93.5 32q-28 13 -57.5 19.5t-59.5 6.5q-17 0 -34.5 -2.5t-34.5 -6.5l-65 159q28 9 56.5 14
t57.5 6q-108 43 -176.5 142t-68.5 223q0 164 116 280t279 116q164 0 280 -116t116 -280v0zM699 334q0 149 -87.5 255t-211.5 106h-12t-11 -1q-6 0 -12 -1l-12 -2v-713q6 0 12 -1t12 -1q5 -1 11 -1h12q124 0 211.5 105.5t87.5 253.5v0z" />
    <glyph glyph-name="R" unicode="R" horiz-adv-x="720" 
d="M688 450q0 -82 -67.5 -150t-170.5 -94q86 -29 140.5 -88t54.5 -132q0 -5 -0.5 -10t-0.5 -10l-2 -10l-2 -10l-184 -1q0 4 0.5 7.5t0.5 6.5q0 2 0.5 3.5t0.5 3.5q0 5 0.5 10t0.5 10q0 73 -35.5 126.5t-87.5 70.5v-237h-303v760h317q140 0 239 -78t99 -178v0zM501 450
q0 89 -41 153.5t-110 64.5h-6.5t-7.5 -1v-436h4h3q2 -1 4 -1h3q69 0 110 64.5t41 155.5v0z" />
    <glyph glyph-name="S" unicode="S" horiz-adv-x="672" 
d="M641 199q0 -112 -94 -190.5t-227 -78.5q-67 0 -116.5 20.5t-95.5 49.5q-19 12 -38 25t-39 26l55 106l12 -24t12 -25q17 -33 38.5 -64t50.5 -46q5 -3 10.5 -6t10.5 -5q23 -10 47 -14.5t53 -4.5t41.5 13.5t11.5 32.5q0 6 -1 11.5t-3 11.5q-4 12 -11 23t-17 20l-183 164
q-53 38 -84.5 92t-31.5 116q0 112 94 191t227 79h5.5h5.5q61 -2 119.5 -23.5t103.5 -62.5l-38 -108q-7 12 -14 25t-15 26q-17 30 -38.5 57.5t-49.5 42.5q-9 5 -19.5 7t-21.5 3h-5.5h-5.5h-6.5h-6.5q-4 -1 -7.5 -1h-6.5q-29 -1 -43 -17t-13 -39q0 -5 1 -10.5t2 -11.5
q4 -14 12.5 -27.5t20.5 -23.5l182 -153q53 -37 84.5 -91t31.5 -116v0z" />
    <glyph glyph-name="T" unicode="T" horiz-adv-x="742" 
d="M708 592l-186 47v-695h-303v695l-185 -47v114h674v-114v0z" />
    <glyph glyph-name="U" unicode="U" horiz-adv-x="654" 
d="M625 325q0 -163 -81 -279t-192 -116q-174 0 -248 80.5t-74 243.5v71.5v154.5v154.5v71.5h292v-737q8 -1 15.5 -2.5t14.5 -1.5q78 0 139.5 106t61.5 255v121l-50 259h121q0 -1 0.5 -60.5t0.5 -130.5v-129.5v-60.5v0z" />
    <glyph glyph-name="V" unicode="V" horiz-adv-x="953" 
d="M909 704l-298 -690l22 -70h-311l-279 762h312l226 -610l169 610l159 -2v0z" />
    <glyph glyph-name="W" unicode="W" horiz-adv-x="1286" 
d="M1227 704l-203 -690l21 -70h-311l-63 173l-44 -103l21 -70h-311l-279 762h312l226 -610l36 129l-176 481h311l213 -585l88 585l159 -2v0z" />
    <glyph glyph-name="X" unicode="X" horiz-adv-x="764" 
d="M729 -56h-349l-130 301q-14 -28 -21.5 -62t-7.5 -72l1 -167h-187v167q0 69 48.5 129.5t127.5 94.5l-160 371h326l88 -191q22 28 33.5 67t11.5 85q0 7 -0.5 13.5t-1.5 12.5q0 3 -0.5 6.5t-0.5 6.5h184q1 -3 1.5 -6.5t1.5 -6.5q1 -6 1.5 -12.5t0.5 -13.5q0 -71 -58 -125
t-127 -95q-3 -2 -5.5 -3.5t-5.5 -3.5l229 -496v0z" />
    <glyph glyph-name="Y" unicode="Y" horiz-adv-x="716" 
d="M684 706l-200 -352v-409h-282v409l-169 352h312l104 -280l88 280h147v0z" />
    <glyph glyph-name="Z" unicode="Z" horiz-adv-x="684" 
d="M653 704l-151 -373q20 5 39.5 14t35.5 22l23 -85q-31 -18 -65 -28.5t-70 -12.5l-90 -222l239 40v-115h-583l148 366q-21 -1 -41.5 -6t-40.5 -13l-22 81q27 11 55.5 16t57.5 5h6h7q3 0 6 -0.5t6 -0.5l96 237l-239 -39v114h583v0z" />
    <glyph glyph-name="bracketleft" unicode="[" horiz-adv-x="200" 
d="M206 -195h-212v990h206v-79h-121v-832h127v-79v0z" />
    <glyph glyph-name="backslash" unicode="\" horiz-adv-x="300" 
d="M369 -165h-78l-330 980h78l330 -980v0z" />
    <glyph glyph-name="bracketright" unicode="]" horiz-adv-x="200" 
d="M210 -195h-212v79h127v832h-121v79h206v-990v0z" />
    <glyph glyph-name="asciicircum" unicode="^" horiz-adv-x="200" 
d="M231 715h-93l-42 44l-41 -44h-93l120 129h29l120 -129v0z" />
    <glyph glyph-name="underscore" unicode="_" horiz-adv-x="800" 
d="M815 -133h-830v76h830v-76v0z" />
    <glyph glyph-name="grave" unicode="`" horiz-adv-x="221" 
d="M230 757l-21 -48l-182 62q-13 4 -22 14t-9 25q0 18 12 31.5t30 13.5q9 0 38 -14t61 -32q3 -1 5.5 -2.5t5.5 -3.5q25 -14 47.5 -26.5t34.5 -19.5v0z" />
    <glyph glyph-name="a" unicode="a" horiz-adv-x="629" 
d="M601 -56h-270q-118 1 -198.5 27.5t-98.5 93.5q-3 11 -4.5 21.5t-1.5 20.5q1 70 57 119t124 80q29 14 57.5 24t52.5 17v153q-57 0 -99.5 -31.5t-68.5 -84.5l-68 68q41 35 93.5 55t116.5 20q138 0 223 -46.5t85 -206.5v-330v0zM319 -14v332q-66 -29 -106.5 -78.5
t-39.5 -103.5q0 -8 1 -16.5t3 -16.5q13 -49 50 -79t92 -37v-1z" />
    <glyph glyph-name="b" unicode="b" horiz-adv-x="680" 
d="M649 234q0 -121 -85.5 -205t-223.5 -84l-309 -1v761h283v-179h6.5t6.5 1h6.5h6.5q138 0 223.5 -86t85.5 -207v0zM515 234q0 110 -54 188t-147 79v-533q93 1 147 79t54 187v0z" />
    <glyph glyph-name="c" unicode="c" horiz-adv-x="532" 
d="M508 -24q-36 -22 -80 -34.5t-95 -12.5q-138 0 -223.5 87t-85.5 211t85.5 212t223.5 88q51 0 95 -13t80 -36l-55 -56q-26 36 -63 57t-83 21v-546q46 1 83 22t62 56l56 -56v0z" />
    <glyph glyph-name="d" unicode="d" horiz-adv-x="680" 
d="M649 -56h-309q-138 1 -223.5 85t-85.5 205t85.5 207t223.5 86h6.5h6.5q3 -1 6.5 -1h6.5v179h283v-761v0zM366 -32v533q-93 -1 -147 -79t-54 -188q0 -109 54 -187t147 -78v-1z" />
    <glyph glyph-name="e" unicode="e" horiz-adv-x="680" 
d="M649 229h-335v-275q57 1 100 32.5t68 83.5l68 -68q-40 -34 -93.5 -53.5t-116.5 -19.5q-138 0 -223.5 87t-85.5 211t85.5 212t223.5 88t223 -87.5t86 -210.5v0zM514 258q-7 102 -60 172t-140 70v-242h200v0z" />
    <glyph glyph-name="f" unicode="f" horiz-adv-x="451" 
d="M430 659q-22 17 -48 26t-56 9v-184h82v-28h-82v-538h-282v477q0 16 1.5 31.5t4.5 29.5h-30v28h37q27 92 105.5 151.5t190.5 59.5q20 0 39.5 -2t37.5 -7v-53v0z" />
    <glyph glyph-name="g" unicode="g" horiz-adv-x="738" 
d="M704 -258q-44 -19 -91.5 -29.5t-97.5 -10.5q-48 0 -95.5 10t-93.5 32q-28 13 -58 19.5t-60 6.5q-17 0 -34.5 -2.5t-34.5 -6.5l-70 204q28 9 57 14t58 5h4.5h4.5l35 51q-90 27 -142 90.5t-52 143.5q0 104 85 177t224 73q39 0 74.5 -6.5t66.5 -18.5q28 23 58.5 40t62.5 28
l97 -82l-22 -2t-23 -1q-13 -1 -26.5 -2t-27.5 -2l-30 -4t-29 -6q51 -34 79.5 -84.5t28.5 -109.5q0 -103 -85.5 -176.5t-223.5 -73.5q-19 0 -36.5 1.5t-34.5 3.5l-29 -44q6 0 12.5 -0.5t12.5 -1.5q32 -5 62.5 -14t56.5 -22q19 -9 38.5 -14.5t39.5 -8.5q10 -2 19.5 -2.5
t19.5 -0.5q34 0 67 8.5t63 23.5l70 -206v0zM518 269q0 46 -13 86t-38 71q-1 0 -1.5 -0.5t-0.5 -1.5l-1.5 -1.5t-1.5 -0.5q-8 -7 -14.5 -15.5t-11.5 -17.5l-26 22q6 9 12 17.5t13 16.5q1 1 1.5 2t1.5 2q1 0 2 1l2 2q-25 21 -56.5 33t-69.5 12v-456q94 0 148 67t54 161v0z" />
    <glyph glyph-name="h" unicode="h" horiz-adv-x="711" 
d="M679 -56h-127v293q0 92 -52 154t-160 62h-12t-12 -1v-508h-284v761h284v-210q29 10 58.5 15t57.5 4q101 0 174 -67t73 -210v-293v0z" />
    <glyph glyph-name="i" unicode="i" horiz-adv-x="343" 
d="M313 -56h-283v566h283v-566v0zM327 640q0 -33 -45.5 -56.5t-110.5 -23.5q-64 0 -109.5 23.5t-45.5 56.5q0 34 45.5 57.5t109.5 23.5q65 0 110.5 -23.5t45.5 -57.5v0z" />
    <glyph glyph-name="j" unicode="j" horiz-adv-x="325" 
d="M303 101q0 -123 -85 -210.5t-222 -87.5q-21 0 -40.5 2t-37.5 6l-1 52q23 -16 49 -24.5t55 -8.5v680h282v-409v0zM316 640q0 -33 -45.5 -56.5t-109.5 -23.5t-110 23.5t-46 56.5q0 34 46 57.5t110 23.5t109.5 -23.5t45.5 -57.5v0z" />
    <glyph glyph-name="k" unicode="k" horiz-adv-x="700" 
d="M668 7l-1 -63h-186v63q0 90 -41 154.5t-110 64.5h-6.5h-7.5v-282h-284v761h284v-437q59 11 93.5 66t34.5 137q0 7 -0.5 13.5t-0.5 12.5q-1 3 -1 6.5t-1 6.5h184q1 -3 1.5 -6.5t1.5 -6.5q1 -6 2 -12.5t1 -13.5q0 -73 -55 -132.5t-141 -88.5q101 -26 167 -94t66 -149v0z
" />
    <glyph glyph-name="l" unicode="l" horiz-adv-x="312" 
d="M297 -56h-283v761h283v-761v0z" />
    <glyph glyph-name="m" unicode="m" horiz-adv-x="894" 
d="M854 -56h-127v322q0 16 -2 37t-6 43q-9 44 -30.5 80t-61.5 36q-13 0 -28.5 -5t-33.5 -16q4 -6 7.5 -12t6.5 -11q11 -21 17 -50.5t6 -101.5v-322h-127v322q0 82 -21.5 136.5t-80.5 54.5q-10 0 -22.5 -2t-26.5 -7v-504h-283v566h283v-20q31 13 59 19t53 6q32 0 59 -11
t48 -33q41 24 77.5 36t68.5 11q75 0 120 -63.5t45 -188.5v-322v0z" />
    <glyph glyph-name="n" unicode="n" horiz-adv-x="695" 
d="M664 -56h-127v322v5.5v5.5q-2 67 -31 123t-122 56q-16 0 -32.5 -2t-36.5 -6v-504h-283v566h283v-20q44 17 84 25t74 8q91 0 141.5 -62t49.5 -195v-322v0z" />
    <glyph glyph-name="o" unicode="o" horiz-adv-x="680" 
d="M649 227q0 -124 -85 -211t-224 -87q-138 0 -223.5 87t-85.5 211t85.5 212t223.5 88q139 0 224 -88t85 -212v0zM515 227q0 113 -54 193t-147 80v-546q93 1 147 81t54 192v0z" />
    <glyph glyph-name="p" unicode="p" horiz-adv-x="680" 
d="M649 229q0 -118 -85.5 -200.5t-223.5 -82.5h-6.5h-6.5t-6.5 0.5t-6.5 0.5v-147h-283v710h309q138 0 223.5 -82t85.5 -199v0zM515 229q0 107 -54 182.5t-147 75.5v-517q93 1 147 76.5t54 182.5v0z" />
    <glyph glyph-name="q" unicode="q" horiz-adv-x="680" 
d="M639 -200h-283v146q-3 1 -6.5 0.5t-6.5 -0.5h-6.5h-6.5q-138 0 -223.5 82.5t-85.5 200.5q0 117 85.5 199t223.5 82h309v-710v0zM356 -30v517q-93 0 -147 -75.5t-54 -182.5t54 -182.5t147 -75.5v-1z" />
    <glyph glyph-name="r" unicode="r" horiz-adv-x="567" 
d="M541 445q-9 -1 -19 -1.5t-20 -1.5q-16 -1 -31.5 -2t-31.5 -3q-36 -4 -70 -13.5t-60 -29.5v-450h-283v566h283v-64q30 28 64 48t71 33l97 -82v0z" />
    <glyph glyph-name="s" unicode="s" horiz-adv-x="602" 
d="M575 131q0 -84 -72 -143t-216 -59q-59 0 -103.5 15t-85.5 38q-18 9 -35 18.5t-36 19.5l50 80q35 -61 79.5 -97t130.5 -36q26 0 37 8.5t11 21.5q0 4 -2 10t-6 12q-3 6 -8.5 12t-12.5 11l-164 124q-43 33 -73.5 71.5t-30.5 85.5q0 84 79.5 144t208.5 60h5.5h5.5
q54 -2 106 -18t93 -47l-35 -82q-5 8 -10 15.5t-10 14.5q-27 38 -59 59.5t-90 21.5h-2.5h-3.5q-27 0 -39 -11t-12 -26q0 -4 0.5 -7.5t2.5 -7.5q3 -9 10.5 -18t18.5 -17l164 -116q44 -31 74 -70.5t30 -86.5v0z" />
    <glyph glyph-name="t" unicode="t" horiz-adv-x="522" 
d="M498 482h-135v-528q30 1 56 10t48 26v-54q-18 -3 -37.5 -5t-40.5 -2q-138 0 -223 87t-85 211v255h-57v28h68l271 182v-182h135v-28v0z" />
    <glyph glyph-name="u" unicode="u" horiz-adv-x="643" 
d="M614 -56h-283v21q-41 -16 -76.5 -24t-65.5 -8q-84 0 -122.5 56t-37.5 139v382h127v-382v-5.5v-5.5v-21t1 -22q3 -32 20 -57.5t66 -25.5q17 0 39 4t49 12v503h283v-566v0z" />
    <glyph glyph-name="v" unicode="v" horiz-adv-x="790" 
d="M754 509l-232 -513l19 -52h-281l-224 566h291l167 -453l116 453l144 -1v0z" />
    <glyph glyph-name="w" unicode="w" horiz-adv-x="1009" 
d="M963 509l-194 -513l16 -52h-235l-55 166l-43 -114l16 -52h-235l-187 566h253l132 -436l30 139l-98 297h253l132 -436l95 436l120 -1v0z" />
    <glyph glyph-name="x" unicode="x" horiz-adv-x="673" 
d="M643 -56h-308l-114 224q-13 -21 -19.5 -46t-6.5 -54l1 -124h-165v124q0 52 43 97t112 70l-141 275h287l78 -142q19 20 29 49.5t10 63.5v7.5t-1 7.5q0 3 -0.5 6.5t-0.5 7.5h162q1 -4 2 -7.5t2 -6.5q0 -4 0.5 -7.5t0.5 -7.5q0 -53 -51.5 -93.5t-113.5 -71.5l-4 -2l-4 -2
l202 -368v0z" />
    <glyph glyph-name="y" unicode="y" horiz-adv-x="788" 
d="M756 508l-320 -722q-11 -25 -43.5 -43t-76.5 -18q-51 0 -87 24t-36 58q0 33 36 57t87 24q27 0 50.5 -7t39.5 -19l34 82h-177l-223 565h291l166 -453l116 453l143 -1v0z" />
    <glyph glyph-name="z" unicode="z" horiz-adv-x="684" 
d="M653 510l-143 -261q20 5 39.5 11.5t36.5 15.5l14 -80q-31 -13 -65 -21t-70 -10l-90 -155l239 29v-95h-583l140 256q-22 -1 -42.5 -4.5t-40.5 -10.5l-13 78q27 8 55.5 12t56.5 4h6.5h6.5t6.5 -0.5t6.5 -0.5l96 167l-239 -30v95h583v0z" />
    <glyph glyph-name="braceleft" unicode="{" horiz-adv-x="164" 
d="M178 747q-48 -4 -78 -30.5t-30 -60.5q0 -33 9.5 -63.5t21.5 -61.5q11 -31 20.5 -61.5t9.5 -63.5q0 -21 -3.5 -39.5t-11.5 -36.5q-3 -7 -7 -14t-9 -14q11 -15 18 -33t10 -36l2 -18t1 -18q0 -33 -9.5 -64t-20.5 -62q-12 -31 -21.5 -61.5t-9.5 -63.5v-5.5t1 -4.5
q4 -30 33 -55t73 -25l-23 -74q-75 15 -114 54t-39 107q0 32 8.5 62t19.5 60q0 1 0.5 2.5t1.5 3.5q11 31 20.5 63t9.5 66v7t-1 7q-3 25 -16.5 46t-39.5 26l2 30q22 2 34.5 19.5t17.5 37.5q1 8 2 15t1 13q0 34 -9.5 66t-20.5 63q-1 2 -1.5 3.5t-0.5 2.5q-11 30 -19.5 60.5
t-8.5 62.5q0 69 39.5 106t113.5 53l24 -71v0z" />
    <glyph glyph-name="bar" unicode="|" horiz-adv-x="75" 
d="M48 -200h-46v1000h46v-1000v0z" />
    <glyph glyph-name="braceright" unicode="}" horiz-adv-x="164" 
d="M161 -58q0 -67 -39 -106t-114 -53l-23 72q44 1 73 26t33 55q1 2 1 4.5v5.5q0 33 -9.5 63.5t-20.5 61.5q-12 31 -21.5 62t-9.5 64q0 9 1 18l2 18q3 18 10 36t18 33q-5 7 -9 14t-7 14q-8 18 -11.5 36.5t-3.5 39.5q0 33 9.5 63.5t21.5 61.5q11 31 20.5 61.5t9.5 63.5
q0 34 -30 60.5t-77 30.5l24 71q74 -16 113 -53t39 -106q0 -32 -8.5 -62.5t-19.5 -60.5q0 -1 -0.5 -2.5t-1.5 -3.5q-11 -31 -20.5 -63t-9.5 -66q0 -6 1 -13t2 -15q5 -20 17.5 -37.5t34.5 -19.5l2 -30q-26 -5 -39.5 -26t-16.5 -46q-1 -3 -1 -7v-7q0 -34 9.5 -66t20.5 -63
q1 -2 1.5 -3.5t0.5 -2.5q11 -30 19.5 -60t8.5 -62v-1z" />
    <glyph glyph-name="asciitilde" unicode="~" horiz-adv-x="485" 
d="M485 271q-36 -44 -74 -61.5t-82 -17.5q-29 0 -51 11t-41 24q-4 2 -7.5 4t-6.5 5q-16 10 -32 17.5t-36 7.5q-25 0 -49.5 -10.5t-47.5 -39.5l-55 48q34 42 72 58.5t81 16.5q30 0 51.5 -10.5t41.5 -22.5q3 -3 6.5 -5t7.5 -5q15 -10 31 -17t36 -7q19 0 37 5.5t36 20.5
q6 5 12 11t12 13l58 -46v0z" />
    <glyph glyph-name="Adieresis" unicode="&#xc4;" horiz-adv-x="935" 
d="M909 -56h-311l-65 176h-288l-43 -176l-159 2l298 691l-21 69h311l278 -762v0zM509 185l-137 370l-111 -370h248v0zM453 792q0 -3 -1 -7t-3 -8q-5 -11 -15 -21t-21 -11h-1.5h-1.5h-9q-3 0 -7 1t-7 3q-8 4 -14.5 11t-10.5 14q-2 3 -3 6.5t-1 6.5v9q0 12 10 23t22 17l8 2
t7 1q19 0 33.5 -14t14.5 -33v0zM583 792q0 -3 -1 -7t-3 -8q-5 -11 -15 -21t-21 -11h-1.5h-1.5h-9q-3 0 -7 1t-7 3q-8 4 -14.5 11t-10.5 14q-2 3 -3 6.5t-1 6.5v9q0 12 10 23t22 17l8 2t7 1q19 0 33.5 -14t14.5 -33v0z" />
    <glyph glyph-name="Aring" unicode="&#xc5;" horiz-adv-x="935" 
d="M909 -56h-311l-65 176h-288l-43 -176l-159 2l298 691l-21 69h311l278 -762v0zM509 185l-137 370l-111 -370h248v0zM558 793q0 -30 -21 -51t-50 -21q-31 0 -52 21t-21 51q0 29 21.5 50.5t51.5 21.5q29 0 50 -21.5t21 -50.5v0zM531 793q0 18 -13 31.5t-31 13.5
q-19 0 -32 -13t-13 -32t13 -32t32 -13q18 0 31 13t13 32v0z" />
    <glyph glyph-name="Ccedilla" unicode="&#xc7;" horiz-adv-x="656" 
d="M626 -17q-44 -25 -94.5 -39t-105.5 -14q-163 0 -279.5 116t-116.5 279q0 164 116.5 280.5t279.5 116.5q55 0 105.5 -14t94.5 -40v-127q-12 12 -25 25.5t-27 27.5q-31 32 -67.5 59.5t-80.5 33.5q-4 1 -7.5 1h-7.5q-16 0 -31.5 -3t-30.5 -7v-706q3 0 5.5 -0.5t4.5 -0.5
q13 -3 25.5 -5t25.5 -2h4h4t4 0.5t4 0.5q43 6 79.5 33.5t67.5 60.5q14 15 27 29.5t26 26.5v-132v0z" />
    <glyph glyph-name="Eacute" unicode="&#xc9;" horiz-adv-x="699" 
d="M667 375l-332 51v-412l308 47v-115h-611v760h584v-114l-281 47v-165l332 44v-143v0zM471 820q0 -15 -9.5 -25t-23.5 -14l-180 -62l-22 48q12 7 34.5 19.5t47.5 26.5q3 2 5.5 3.5t5.5 2.5q32 18 61 32t38 14q18 0 30.5 -13.5t12.5 -31.5v0z" />
    <glyph glyph-name="Ntilde" unicode="&#xd1;" horiz-adv-x="732" 
d="M699 -55h-203l-324 567l71 -567h-140v631l-70 130h327l266 -425l-68 424h141v-760v0zM598 791q-15 -19 -30 -31.5t-29 -21.5q-18 -9 -35.5 -13t-36.5 -4q-22 0 -38 8t-31 18q-2 2 -4.5 3.5t-5.5 3.5q-11 7 -23.5 13t-27.5 6q-5 0 -10 -0.5t-9 -1.5q-12 -3 -24.5 -12
t-26.5 -27l-55 48q29 38 60.5 51.5t65.5 13.5q22 0 38.5 -8t30.5 -17q3 -2 5.5 -3.5t4.5 -3.5q12 -7 24 -12.5t27 -5.5h6t5 1q15 1 29.5 9.5t31.5 29.5l58 -44v0z" />
    <glyph glyph-name="Odieresis" unicode="&#xd6;" horiz-adv-x="873" 
d="M833 325q0 -163 -116.5 -279t-280.5 -116q-163 0 -279.5 116t-116.5 279q0 164 116.5 280.5t279.5 116.5q164 0 280.5 -116.5t116.5 -280.5v0zM700 326q0 149 -87.5 255t-211.5 106q-12 0 -24 -1.5t-23 -3.5v-713q11 -1 23 -2.5t24 -1.5q124 0 211.5 106t87.5 255v0z
M423 792q0 -3 -1 -7t-3 -8q-5 -11 -15 -21t-21 -11h-1.5h-1.5h-9q-3 0 -7 1t-7 3q-8 4 -14.5 11t-10.5 14q-2 3 -3 6.5t-1 6.5v9q0 12 10 23t22 17l8 2t7 1q19 0 33.5 -14t14.5 -33v0zM553 792q0 -3 -1 -7t-3 -8q-5 -11 -15 -21t-21 -11h-1.5h-1.5h-9q-3 0 -7 1t-7 3
q-8 4 -14.5 11t-10.5 14q-2 3 -3 6.5t-1 6.5v9q0 12 10 23t22 17l8 2t7 1q19 0 33.5 -14t14.5 -33v0z" />
    <glyph glyph-name="Udieresis" unicode="&#xdc;" horiz-adv-x="654" 
d="M625 325q0 -163 -81 -279t-192 -116q-174 0 -248 80.5t-74 243.5v71.5v154.5v154.5v71.5h292v-737q8 -1 15.5 -2.5t14.5 -1.5q78 0 139.5 106t61.5 255v121l-50 259h121q0 -1 0.5 -60.5t0.5 -130.5v-129.5v-60.5v0zM333 792q0 -3 -1 -7t-3 -8q-5 -11 -15 -21t-21 -11
h-1.5h-1.5h-9q-3 0 -7 1t-7 3q-8 4 -14.5 11t-10.5 14q-2 3 -3 6.5t-1 6.5v9q0 12 10 23t22 17l8 2t7 1q19 0 33.5 -14t14.5 -33v0zM463 792q0 -3 -1 -7t-3 -8q-5 -11 -15 -21t-21 -11h-1.5h-1.5h-9q-3 0 -7 1t-7 3q-8 4 -14.5 11t-10.5 14q-2 3 -3 6.5t-1 6.5v9q0 12 10 23
t22 17l8 2t7 1q19 0 33.5 -14t14.5 -33v0z" />
    <glyph glyph-name="aacute" unicode="&#xe1;" horiz-adv-x="629" 
d="M601 -56h-270q-118 1 -198.5 27.5t-98.5 93.5q-3 11 -4.5 21.5t-1.5 20.5q1 70 57 119t124 80q29 14 57.5 24t52.5 17v153q-57 0 -99.5 -31.5t-68.5 -84.5l-68 68q41 35 93.5 55t116.5 20q138 0 223 -46.5t85 -206.5v-330v0zM319 -14v332q-66 -29 -106.5 -78.5
t-39.5 -103.5q0 -8 1 -16.5t3 -16.5q13 -49 50 -79t92 -37v-1zM491 650q0 -15 -9.5 -25t-23.5 -14l-180 -62l-22 48q12 7 34.5 19.5t47.5 26.5q3 2 5.5 3.5t5.5 2.5q32 18 61 32t38 14q18 0 30.5 -13.5t12.5 -31.5v0z" />
    <glyph glyph-name="agrave" unicode="&#xe0;" horiz-adv-x="629" 
d="M601 -56h-270q-118 1 -198.5 27.5t-98.5 93.5q-3 11 -4.5 21.5t-1.5 20.5q1 70 57 119t124 80q29 14 57.5 24t52.5 17v153q-57 0 -99.5 -31.5t-68.5 -84.5l-68 68q41 35 93.5 55t116.5 20q138 0 223 -46.5t85 -206.5v-330v0zM319 -14v332q-66 -29 -106.5 -78.5
t-39.5 -103.5q0 -8 1 -16.5t3 -16.5q13 -49 50 -79t92 -37v-1zM470 597l-21 -48l-182 62q-13 4 -22.5 14t-9.5 25q0 18 12.5 31.5t30.5 13.5q9 0 38 -14t61 -32q3 -1 5.5 -2.5t5.5 -3.5q25 -14 47.5 -26.5t34.5 -19.5v0z" />
    <glyph glyph-name="acircumflex" unicode="&#xe2;" horiz-adv-x="629" 
d="M601 -56h-270q-118 1 -198.5 27.5t-98.5 93.5q-3 11 -4.5 21.5t-1.5 20.5q1 70 57 119t124 80q29 14 57.5 24t52.5 17v153q-57 0 -99.5 -31.5t-68.5 -84.5l-68 68q41 35 93.5 55t116.5 20q138 0 223 -46.5t85 -206.5v-330v0zM319 -14v332q-66 -29 -106.5 -78.5
t-39.5 -103.5q0 -8 1 -16.5t3 -16.5q13 -49 50 -79t92 -37v-1zM491 555h-93l-42 44l-41 -44h-93l120 129h29l120 -129v0z" />
    <glyph glyph-name="adieresis" unicode="&#xe4;" horiz-adv-x="629" 
d="M601 -56h-270q-118 1 -198.5 27.5t-98.5 93.5q-3 11 -4.5 21.5t-1.5 20.5q1 70 57 119t124 80q29 14 57.5 24t52.5 17v153q-57 0 -99.5 -31.5t-68.5 -84.5l-68 68q41 35 93.5 55t116.5 20q138 0 223 -46.5t85 -206.5v-330v0zM319 -14v332q-66 -29 -106.5 -78.5
t-39.5 -103.5q0 -8 1 -16.5t3 -16.5q13 -49 50 -79t92 -37v-1zM343 612q0 -3 -1 -7t-3 -8q-5 -11 -15 -21t-21 -11h-1.5h-1.5h-9q-3 0 -7 1t-7 3q-8 4 -14.5 11t-10.5 14q-2 3 -3 6.5t-1 6.5v9q0 12 10 23t22 17l8 2t7 1q19 0 33.5 -14t14.5 -33v0zM473 612q0 -3 -1 -7
t-3 -8q-5 -11 -15 -21t-21 -11h-1.5h-1.5h-9q-3 0 -7 1t-7 3q-8 4 -14.5 11t-10.5 14q-2 3 -3 6.5t-1 6.5v9q0 12 10 23t22 17l8 2t7 1q19 0 33.5 -14t14.5 -33v0z" />
    <glyph glyph-name="atilde" unicode="&#xe3;" horiz-adv-x="629" 
d="M601 -56h-270q-118 1 -198.5 27.5t-98.5 93.5q-3 11 -4.5 21.5t-1.5 20.5q1 70 57 119t124 80q29 14 57.5 24t52.5 17v153q-57 0 -99.5 -31.5t-68.5 -84.5l-68 68q41 35 93.5 55t116.5 20q138 0 223 -46.5t85 -206.5v-330v0zM319 -14v332q-66 -29 -106.5 -78.5
t-39.5 -103.5q0 -8 1 -16.5t3 -16.5q13 -49 50 -79t92 -37v-1zM548 631q-15 -19 -30 -31.5t-29 -21.5q-18 -9 -35.5 -13t-36.5 -4q-22 0 -38 8t-31 18q-2 2 -4.5 3.5t-5.5 3.5q-11 7 -23.5 13t-27.5 6q-5 0 -10 -0.5t-9 -1.5q-12 -3 -24.5 -12t-26.5 -27l-55 48
q29 38 60.5 51.5t65.5 13.5q22 0 38.5 -8t30.5 -17q3 -2 5.5 -3.5t4.5 -3.5q12 -7 24 -12.5t27 -5.5h6t5 1q15 1 29.5 9.5t31.5 29.5l58 -44v0z" />
    <glyph glyph-name="aring" unicode="&#xe5;" horiz-adv-x="629" 
d="M601 -56h-270q-118 1 -198.5 27.5t-98.5 93.5q-3 11 -4.5 21.5t-1.5 20.5q1 70 57 119t124 80q29 14 57.5 24t52.5 17v153q-57 0 -99.5 -31.5t-68.5 -84.5l-68 68q41 35 93.5 55t116.5 20q138 0 223 -46.5t85 -206.5v-330v0zM319 -14v332q-66 -29 -106.5 -78.5
t-39.5 -103.5q0 -8 1 -16.5t3 -16.5q13 -49 50 -79t92 -37v-1zM438 623q0 -30 -21 -51t-50 -21q-31 0 -52 21t-21 51q0 29 21.5 50.5t51.5 21.5q29 0 50 -21.5t21 -50.5v0zM411 623q0 18 -13 31.5t-31 13.5q-19 0 -32 -13t-13 -32t13 -32t32 -13q18 0 31 13t13 32v0z" />
    <glyph glyph-name="ccedilla" unicode="&#xe7;" horiz-adv-x="532" 
d="M508 -24q-36 -22 -80 -34.5t-95 -12.5q-138 0 -223.5 87t-85.5 211t85.5 212t223.5 88q51 0 95 -13t80 -36l-55 -56q-26 36 -63 57t-83 21v-546q46 1 83 22t62 56l56 -56v0z" />
    <glyph glyph-name="eacute" unicode="&#xe9;" horiz-adv-x="680" 
d="M649 229h-335v-275q57 1 100 32.5t68 83.5l68 -68q-40 -34 -93.5 -53.5t-116.5 -19.5q-138 0 -223.5 87t-85.5 211t85.5 212t223.5 88t223 -87.5t86 -210.5v0zM514 258q-7 102 -60 172t-140 70v-242h200v0zM491 650q0 -15 -9.5 -25t-23.5 -14l-180 -62l-22 48
q12 7 34.5 19.5t47.5 26.5q3 2 5.5 3.5t5.5 2.5q32 18 61 32t38 14q18 0 30.5 -13.5t12.5 -31.5v0z" />
    <glyph glyph-name="egrave" unicode="&#xe8;" horiz-adv-x="680" 
d="M649 229h-335v-275q57 1 100 32.5t68 83.5l68 -68q-40 -34 -93.5 -53.5t-116.5 -19.5q-138 0 -223.5 87t-85.5 211t85.5 212t223.5 88t223 -87.5t86 -210.5v0zM514 258q-7 102 -60 172t-140 70v-242h200v0zM460 597l-21 -48l-182 62q-13 4 -22.5 14t-9.5 25
q0 18 12.5 31.5t30.5 13.5q9 0 38 -14t61 -32q3 -1 5.5 -2.5t5.5 -3.5q25 -14 47.5 -26.5t34.5 -19.5v0z" />
    <glyph glyph-name="ecircumflex" unicode="&#xea;" horiz-adv-x="680" 
d="M649 229h-335v-275q57 1 100 32.5t68 83.5l68 -68q-40 -34 -93.5 -53.5t-116.5 -19.5q-138 0 -223.5 87t-85.5 211t85.5 212t223.5 88t223 -87.5t86 -210.5v0zM514 258q-7 102 -60 172t-140 70v-242h200v0zM471 555h-93l-42 44l-41 -44h-93l120 129h29l120 -129v0z" />
    <glyph glyph-name="edieresis" unicode="&#xeb;" horiz-adv-x="680" 
d="M649 229h-335v-275q57 1 100 32.5t68 83.5l68 -68q-40 -34 -93.5 -53.5t-116.5 -19.5q-138 0 -223.5 87t-85.5 211t85.5 212t223.5 88t223 -87.5t86 -210.5v0zM514 258q-7 102 -60 172t-140 70v-242h200v0zM323 612q0 -3 -1 -7t-3 -8q-5 -11 -15 -21t-21 -11h-1.5h-1.5
h-9q-3 0 -7 1t-7 3q-8 4 -14.5 11t-10.5 14q-2 3 -3 6.5t-1 6.5v9q0 12 10 23t22 17l8 2t7 1q19 0 33.5 -14t14.5 -33v0zM453 612q0 -3 -1 -7t-3 -8q-5 -11 -15 -21t-21 -11h-1.5h-1.5h-9q-3 0 -7 1t-7 3q-8 4 -14.5 11t-10.5 14q-2 3 -3 6.5t-1 6.5v9q0 12 10 23t22 17l8 2
t7 1q19 0 33.5 -14t14.5 -33v0z" />
    <glyph glyph-name="iacute" unicode="&#xed;" horiz-adv-x="343" 
d="M313 -56h-283v566h283v-566v0zM311 650q0 -15 -9.5 -25t-23.5 -14l-180 -62l-22 48q12 7 34.5 19.5t47.5 26.5q3 2 5.5 3.5t5.5 2.5q32 18 61 32t38 14q18 0 30.5 -13.5t12.5 -31.5v0z" />
    <glyph glyph-name="igrave" unicode="&#xec;" horiz-adv-x="343" 
d="M313 -56h-283v566h283v-566v0zM290 597l-21 -48l-182 62q-13 4 -22.5 14t-9.5 25q0 18 12.5 31.5t30.5 13.5q9 0 38 -14t61 -32q3 -1 5.5 -2.5t5.5 -3.5q25 -14 47.5 -26.5t34.5 -19.5v0z" />
    <glyph glyph-name="icircumflex" unicode="&#xee;" horiz-adv-x="343" 
d="M313 -56h-283v566h283v-566v0zM307 555h-93l-42 44l-41 -44h-93l120 129h29l120 -129v0z" />
    <glyph glyph-name="idieresis" unicode="&#xef;" horiz-adv-x="343" 
d="M313 -56h-283v566h283v-566v0zM153 612q0 -3 -1 -7t-3 -8q-5 -11 -15 -21t-21 -11h-1.5h-1.5h-9q-3 0 -7 1t-7 3q-8 4 -14.5 11t-10.5 14q-2 3 -3 6.5t-1 6.5v9q0 12 10 23t22 17l8 2t7 1q19 0 33.5 -14t14.5 -33v0zM283 612q0 -3 -1 -7t-3 -8q-5 -11 -15 -21t-21 -11
h-1.5h-1.5h-9q-3 0 -7 1t-7 3q-8 4 -14.5 11t-10.5 14q-2 3 -3 6.5t-1 6.5v9q0 12 10 23t22 17l8 2t7 1q19 0 33.5 -14t14.5 -33v0z" />
    <glyph glyph-name="ntilde" unicode="&#xf1;" horiz-adv-x="695" 
d="M664 -56h-127v322v5.5v5.5q-2 67 -31 123t-122 56q-16 0 -32.5 -2t-36.5 -6v-504h-283v566h283v-20q44 17 84 25t74 8q91 0 141.5 -62t49.5 -195v-322v0z" />
    <glyph glyph-name="oacute" unicode="&#xf3;" horiz-adv-x="680" 
d="M649 227q0 -124 -85 -211t-224 -87q-138 0 -223.5 87t-85.5 211t85.5 212t223.5 88q139 0 224 -88t85 -212v0zM515 227q0 113 -54 193t-147 80v-546q93 1 147 81t54 192v0zM491 650q0 -15 -9.5 -25t-23.5 -14l-180 -62l-22 48q12 7 34.5 19.5t47.5 26.5q3 2 5.5 3.5
t5.5 2.5q32 18 61 32t38 14q18 0 30.5 -13.5t12.5 -31.5v0z" />
    <glyph glyph-name="ograve" unicode="&#xf2;" horiz-adv-x="680" 
d="M649 227q0 -124 -85 -211t-224 -87q-138 0 -223.5 87t-85.5 211t85.5 212t223.5 88q139 0 224 -88t85 -212v0zM515 227q0 113 -54 193t-147 80v-546q93 1 147 81t54 192v0zM450 597l-21 -48l-182 62q-13 4 -22.5 14t-9.5 25q0 18 12.5 31.5t30.5 13.5q9 0 38 -14t61 -32
q3 -1 5.5 -2.5t5.5 -3.5q25 -14 47.5 -26.5t34.5 -19.5v0z" />
    <glyph glyph-name="ocircumflex" unicode="&#xf4;" horiz-adv-x="680" 
d="M649 227q0 -124 -85 -211t-224 -87q-138 0 -223.5 87t-85.5 211t85.5 212t223.5 88q139 0 224 -88t85 -212v0zM515 227q0 113 -54 193t-147 80v-546q93 1 147 81t54 192v0zM471 555h-93l-42 44l-41 -44h-93l120 129h29l120 -129v0z" />
    <glyph glyph-name="odieresis" unicode="&#xf6;" horiz-adv-x="680" 
d="M649 227q0 -124 -85 -211t-224 -87q-138 0 -223.5 87t-85.5 211t85.5 212t223.5 88q139 0 224 -88t85 -212v0zM515 227q0 113 -54 193t-147 80v-546q93 1 147 81t54 192v0zM323 612q0 -3 -1 -7t-3 -8q-5 -11 -15 -21t-21 -11h-1.5h-1.5h-9q-3 0 -7 1t-7 3q-8 4 -14.5 11
t-10.5 14q-2 3 -3 6.5t-1 6.5v9q0 12 10 23t22 17l8 2t7 1q19 0 33.5 -14t14.5 -33v0zM453 612q0 -3 -1 -7t-3 -8q-5 -11 -15 -21t-21 -11h-1.5h-1.5h-9q-3 0 -7 1t-7 3q-8 4 -14.5 11t-10.5 14q-2 3 -3 6.5t-1 6.5v9q0 12 10 23t22 17l8 2t7 1q19 0 33.5 -14t14.5 -33v0z
" />
    <glyph glyph-name="otilde" unicode="&#xf5;" horiz-adv-x="680" 
d="M649 227q0 -124 -85 -211t-224 -87q-138 0 -223.5 87t-85.5 211t85.5 212t223.5 88q139 0 224 -88t85 -212v0zM515 227q0 113 -54 193t-147 80v-546q93 1 147 81t54 192v0zM548 611q-15 -19 -30 -31.5t-29 -21.5q-18 -9 -35.5 -13t-36.5 -4q-22 0 -38 8t-31 18
q-2 2 -4.5 3.5t-5.5 3.5q-11 7 -23.5 13t-27.5 6q-5 0 -10 -0.5t-9 -1.5q-12 -3 -24.5 -12t-26.5 -27l-55 48q29 38 60.5 51.5t65.5 13.5q22 0 38.5 -8t30.5 -17q3 -2 5.5 -3.5t4.5 -3.5q12 -7 24 -12.5t27 -5.5h6t5 1q15 1 29.5 9.5t31.5 29.5l58 -44v0z" />
    <glyph glyph-name="uacute" unicode="&#xfa;" horiz-adv-x="643" 
d="M614 -56h-283v21q-41 -16 -76.5 -24t-65.5 -8q-84 0 -122.5 56t-37.5 139v382h127v-382v-5.5v-5.5v-21t1 -22q3 -32 20 -57.5t66 -25.5q17 0 39 4t49 12v503h283v-566v0zM491 650q0 -15 -9.5 -25t-23.5 -14l-180 -62l-22 48q12 7 34.5 19.5t47.5 26.5q3 2 5.5 3.5
t5.5 2.5q32 18 61 32t38 14q18 0 30.5 -13.5t12.5 -31.5v0z" />
    <glyph glyph-name="ugrave" unicode="&#xf9;" horiz-adv-x="643" 
d="M614 -56h-283v21q-41 -16 -76.5 -24t-65.5 -8q-84 0 -122.5 56t-37.5 139v382h127v-382v-5.5v-5.5v-21t1 -22q3 -32 20 -57.5t66 -25.5q17 0 39 4t49 12v503h283v-566v0zM400 597l-21 -48l-182 62q-13 4 -22.5 14t-9.5 25q0 18 12.5 31.5t30.5 13.5q9 0 38 -14t61 -32
q3 -1 5.5 -2.5t5.5 -3.5q25 -14 47.5 -26.5t34.5 -19.5v0z" />
    <glyph glyph-name="ucircumflex" unicode="&#xfb;" horiz-adv-x="643" 
d="M614 -56h-283v21q-41 -16 -76.5 -24t-65.5 -8q-84 0 -122.5 56t-37.5 139v382h127v-382v-5.5v-5.5v-21t1 -22q3 -32 20 -57.5t66 -25.5q17 0 39 4t49 12v503h283v-566v0zM471 555h-93l-42 44l-41 -44h-93l120 129h29l120 -129v0z" />
    <glyph glyph-name="udieresis" unicode="&#xfc;" horiz-adv-x="643" 
d="M614 -56h-283v21q-41 -16 -76.5 -24t-65.5 -8q-84 0 -122.5 56t-37.5 139v382h127v-382v-5.5v-5.5v-21t1 -22q3 -32 20 -57.5t66 -25.5q17 0 39 4t49 12v503h283v-566v0zM283 612q0 -3 -1 -7t-3 -8q-5 -11 -15 -21t-21 -11h-1.5h-1.5h-9q-3 0 -7 1t-7 3q-8 4 -14.5 11
t-10.5 14q-2 3 -3 6.5t-1 6.5v9q0 12 10 23t22 17l8 2t7 1q19 0 33.5 -14t14.5 -33v0zM413 612q0 -3 -1 -7t-3 -8q-5 -11 -15 -21t-21 -11h-1.5h-1.5h-9q-3 0 -7 1t-7 3q-8 4 -14.5 11t-10.5 14q-2 3 -3 6.5t-1 6.5v9q0 12 10 23t22 17l8 2t7 1q19 0 33.5 -14t14.5 -33v0z
" />
    <glyph glyph-name="dagger" unicode="&#x2020;" 
 />
    <glyph glyph-name="degree" horiz-adv-x="250" 
d="M234 613q0 -44 -31.5 -75.5t-75.5 -31.5q-45 0 -76.5 31.5t-31.5 75.5t32 75.5t76 31.5q43 0 75 -31.5t32 -75.5v0zM193 613q0 27 -19.5 47t-46.5 20q-28 0 -47.5 -19.5t-19.5 -47.5t19.5 -47.5t47.5 -19.5q27 0 46.5 19.5t19.5 47.5v0z" />
    <glyph glyph-name="cent" unicode="&#xa2;" horiz-adv-x="532" 
d="M508 73q-36 -22 -80 -35t-95 -13h-14.5t-14.5 1v-98h-28v101q-114 19 -183 102t-69 193t69 193t183 102v102h28v-99q7 1 14.5 1.5t14.5 0.5q51 0 95 -13t80 -36l-55 -55q-26 36 -63 56.5t-83 20.5v-545q46 0 83 20.5t62 56.5l56 -56v0z" />
    <glyph glyph-name="sterling" unicode="&#xa3;" horiz-adv-x="660" 
d="M630 -17q-39 -28 -84.5 -42t-93.5 -14q-6 0 -12.5 0.5t-13.5 0.5q-32 3 -63.5 12.5t-60.5 26.5q-20 12 -42 19t-45 9q-5 0 -10.5 0.5t-11.5 0.5q-37 0 -71.5 -12t-63.5 -34v97q5 2 9.5 4t9.5 4t9.5 4t9.5 3v215h-66v27h66v100q0 124 85.5 212t223.5 88q20 0 39.5 -2
t37.5 -7v-53q-22 17 -48 26t-56 9v-373h117v-27h-117v-64q0 -56 -19.5 -95.5t-48.5 -62.5q4 -2 8.5 -4t8.5 -4t8.5 -4.5t8.5 -4.5q20 -12 42 -19t45 -9q5 0 10.5 -0.5t11.5 -0.5q51 0 98.5 23.5t78.5 66.5v-116v0z" />
    <glyph glyph-name="section" unicode="&#xa7;" 
 />
    <glyph glyph-name="bullet" horiz-adv-x="300" 
d="M254 217q-17 -24 -42.5 -37t-51.5 -15h-4h-4q-19 0 -38.5 6t-36.5 19q-24 18 -37 43t-15 51v4v4q0 20 6 39t19 36q18 24 43 37t51 15h4h4q20 0 39 -6t36 -19q24 -17 37 -42.5t15 -51.5v-4v-4q0 -19 -6 -38.5t-19 -36.5v0z" />
    <glyph glyph-name="paragraph" unicode="&#xb6;" horiz-adv-x="431" 
d="M282 -195h-75v410q-87 16 -144.5 85.5t-57.5 157.5q0 98 61 162.5t153 83.5q3 1 6 1h6h5.5h5.5q3 -1 6.5 -1h7.5q6 0 12.5 0.5t13.5 1.5v-901v0zM447 629h-45v-824h-74v900h119v-76v0z" />
    <glyph glyph-name="germandbls" unicode="&#xdf;" horiz-adv-x="922" 
d="M880 131q0 -84 -72 -143t-215 -59q-61 0 -106 16t-87 39v88q32 -49 74.5 -77t118.5 -28q25 0 36.5 8.5t10.5 21.5q0 4 -2 10t-6 12q-3 6 -8.5 12t-12.5 11l-164 124q-35 26 -62 56.5t-37 66.5v-345h-282v477q0 16 1.5 31.5t3.5 29.5h-29v28h36q38 128 136 169.5t215 41.5
q102 -1 175.5 -40t74.5 -91v-1.5v-0.5v-1.5v-1.5q0 -41 -21 -60.5t-46 -33.5q-1 -1 -2 -1.5t-2 -0.5q-3 -2 -6.5 -4t-6.5 -4q-10 -6 -14.5 -13t-4.5 -15q0 -6 2.5 -12t7.5 -12q5 -7 11.5 -13t15.5 -12l163 -116q45 -31 74.5 -70.5t29.5 -86.5v0zM571 584q0 9 -3 20.5
t-9 22.5q-13 24 -41 43.5t-77 19.5q-7 0 -14 -1t-15 -3q-24 -7 -44 -25t-20 -48v-253q8 33 28 57t54 46q19 12 41.5 24t49.5 26q12 6 22 16t16 21q6 10 9 19t3 15v0z" />
    <glyph glyph-name="registered" unicode="&#xae;" horiz-adv-x="348" 
d="M332 553q0 -65 -46.5 -111.5t-111.5 -46.5t-111.5 46t-46.5 112q0 65 47 111.5t111 46.5t111 -47.5t47 -110.5v0zM309 553q0 54 -40 94.5t-95 40.5t-95 -39.5t-40 -95.5q0 -57 39.5 -96t95.5 -39t95.5 40t39.5 95v0zM251 469h-34l-37 73h-33v-73h-32v176h61q6 0 12 -0.5
t12 -1.5q19 -4 35 -15t16 -31q0 -19 -11 -31.5t-28 -17.5l39 -79v0zM212 593q0 11 -9 18t-20 9q-3 1 -6.5 1.5t-6.5 0.5h-23v-56h34q13 0 22 7t9 20v0z" />
    <glyph glyph-name="copyright" unicode="&#xa9;" horiz-adv-x="806" 
d="M770 364q0 -150 -108.5 -257.5t-258.5 -107.5q-151 0 -258.5 107t-107.5 258t107.5 259t258.5 108q150 0 258.5 -108.5t108.5 -258.5v0zM701 364q0 122 -88 210.5t-210 88.5q-123 0 -210.5 -88t-87.5 -211q0 -124 87.5 -211t210.5 -87t210.5 88t87.5 210v0zM582 283
q-14 -59 -61.5 -95.5t-109.5 -36.5q-96 0 -148 56t-52 150q0 96 50.5 152.5t148.5 56.5q58 0 102.5 -29t61.5 -85l-58 -15q-18 36 -43.5 55.5t-69.5 19.5q-66 0 -96 -46t-30 -107q0 -64 29 -107.5t99 -43.5q41 0 75 26.5t42 66.5l60 -18v0z" />
    <glyph glyph-name="trademark" unicode="&#x2122;" 
 />
    <glyph glyph-name="acute" unicode="&#xb4;" horiz-adv-x="221" 
d="M221 810q0 -15 -9.5 -25t-23.5 -14l-180 -62l-22 48q13 7 35 19.5t47 26.5q3 2 5.5 3.5t5.5 2.5q32 18 61 32t38 14q18 0 30.5 -13.5t12.5 -31.5v0z" />
    <glyph glyph-name="dieresis" unicode="&#xa8;" horiz-adv-x="200" 
d="M83 792q0 -3 -1 -7t-3 -8q-5 -11 -15 -21t-21 -11h-1.5h-1.5h-9q-3 0 -7 1t-7 3q-8 4 -14 11t-10 14q-2 3 -3 6.5t-1 6.5l-1 9q1 12 10.5 23t21.5 17l8 2t7 1q19 0 33.5 -14t14.5 -33v0zM213 792q0 -3 -1 -7t-3 -8q-5 -11 -15 -21t-21 -11h-1.5h-1.5h-9q-3 0 -7 1t-7 3
q-8 4 -14.5 11t-10.5 14q-2 3 -3 6.5t-1 6.5v9q0 12 10 23t22 17l8 2t7 1q19 0 33.5 -14t14.5 -33v0z" />
    <glyph glyph-name="notequal" unicode="&#x2260;" 
 />
    <glyph glyph-name="AE" unicode="&#xc6;" horiz-adv-x="1323" 
d="M1263 372l-332 51v-411l308 47v-114h-626v172h-288l-107 -175h-158l551 692l-38 70h639v-114l-281 46v-165l332 44v-143v0zM613 183l-1 355l-247 -355h248v0z" />
    <glyph glyph-name="Oslash" unicode="&#xd8;" horiz-adv-x="873" 
d="M699 785l-98 -191l-247 -477l-145 -282h-78l223 433l193 373l74 144h78v0zM833 325q0 -163 -116.5 -279t-280.5 -116q-43 0 -83.5 8.5t-77.5 25.5q-16 7 -31 15t-29 18q-79 52 -127 139t-48 189q0 164 116.5 280.5t279.5 116.5q37 0 72 -6.5t68 -18.5q17 -6 32 -13.5
t30 -16.5q88 -52 141.5 -142.5t53.5 -199.5v0zM700 326q0 149 -87.5 255t-211.5 106q-12 0 -24 -1.5t-23 -3.5v-713q11 -1 23 -2.5t24 -1.5q124 0 211.5 106t87.5 255v0z" />
    <glyph glyph-name="infinity" unicode="&#x221e;" 
 />
    <glyph glyph-name="plusminus" unicode="&#xb1;" horiz-adv-x="400" 
d="M400 -23h-405v76h405v-76v0zM400 247h-165v-164h-76v164h-164v76h164v165h76v-165h165v-76v0z" />
    <glyph glyph-name="lessequal" unicode="&#x2264;" 
 />
    <glyph glyph-name="greaterequal" unicode="&#x2265;" 
 />
    <glyph glyph-name="yen" unicode="&#xa5;" horiz-adv-x="716" 
d="M684 705l-200 -353h166v-28h-166v-20h166v-27h-166v-333h-282v333h-145v27h145v20h-145v28h145l-169 353h312l104 -281l88 281h147v0z" />
    <glyph glyph-name="mu" unicode="&#xb5;" horiz-adv-x="413" 
d="M421 461l-68 -319q-1 -4 -1 -8.5v-9.5q0 -18 11 -34t47 -24l-32 -72q-31 7 -51.5 20t-32.5 30q-24 -21 -54.5 -34t-62.5 -13q-19 0 -38 5.5t-36 16.5l-34 -164l-79 -3l132 612l75 -3q-5 -23 -13.5 -60.5t-17.5 -78.5q-1 -4 -2 -7.5t-1 -7.5q-13 -57 -23 -107.5t-10 -66.5
q0 -25 13.5 -42.5t40.5 -17.5q7 0 14 1.5t15 4.5q21 8 39 24t22 35l71 326l76 -3v0z" />
    <glyph glyph-name="partialdiff" unicode="&#x2202;" 
 />
    <glyph glyph-name="summation" unicode="&#x3a3;" 
 />
    <glyph glyph-name="product" unicode="&#x220f;" 
 />
    <glyph glyph-name="pi" unicode="&#x3c0;" 
 />
    <glyph glyph-name="integral" unicode="&#x222b;" 
 />
    <glyph glyph-name="ordfeminine" unicode="&#xaa;" horiz-adv-x="307" 
d="M293 312h-288v66h288v-66v0zM288 410h-135q-58 0 -98.5 13.5t-49.5 48.5q-1 6 -2 11.5t-1 10.5q0 34 28 58.5t62 40.5q14 6 28.5 11.5t26.5 8.5v75q-28 0 -49.5 -16t-34.5 -42l-34 34q20 17 47 28t58 11q69 0 111.5 -23.5t42.5 -104.5v-165v0zM147 431v166
q-31 -13 -51 -36.5t-22 -49.5v-2.5v-2.5q0 -4 0.5 -7.5t1.5 -7.5q7 -25 25.5 -40.5t45.5 -19.5v0z" />
    <glyph glyph-name="ordmasculine" unicode="&#xba;" horiz-adv-x="332" 
d="M323 312h-318v66h318v-66v0zM325 554q0 -62 -42.5 -106t-112.5 -44q-69 0 -111.5 44t-42.5 106t42.5 106t111.5 44q70 0 112.5 -44t42.5 -106v0zM258 554q0 56 -27 96t-74 40v-273q47 0 74 40.5t27 96.5v0z" />
    <glyph glyph-name="Omega" unicode="&#x3a9;" 
 />
    <glyph glyph-name="ae" unicode="&#xe6;" horiz-adv-x="963" 
d="M932 229h-336v-275q57 1 100 32.5t68 83.5l68 -68q-40 -34 -93 -53.5t-116 -19.5q-29 0 -56 4t-51 12l-197 -1q-118 1 -198 27.5t-99 93.5q-3 11 -4.5 21.5t-1.5 20.5q1 70 57 119t124 80q29 14 57.5 24t52.5 17v153q-56 0 -99 -31.5t-69 -84.5l-67 68q40 35 93 55
t116 20q59 0 109 -7t88 -25q32 15 68.5 23.5t76.5 8.5q137 0 222.5 -87.5t86.5 -210.5v0zM307 -14v332q-66 -29 -106.5 -78.5t-39.5 -103.5q0 -8 1 -16.5t3 -16.5q14 -49 50.5 -79t91.5 -37v-1zM797 258q-7 102 -60.5 172t-140.5 70v-242h201v0z" />
    <glyph glyph-name="oslash" unicode="&#xf8;" horiz-adv-x="680" 
d="M535 614l-90 -174l-131 -251l-185 -354h-78l263 505l75 143l68 131h78v0zM649 227q0 -124 -85 -211t-224 -87q-40 0 -77 7.5t-69 23.5q-16 7 -30 17t-28 21q-49 40 -77 100t-28 129q0 124 85.5 212t223.5 88q18 0 35.5 -1t33.5 -5q18 -4 34.5 -9t32.5 -12
q80 -36 126.5 -109t46.5 -164v0zM515 227q0 113 -54 193t-147 80v-546q93 1 147 81t54 192v0z" />
    <glyph glyph-name="questiondown" unicode="&#xbf;" horiz-adv-x="475" 
d="M478 -133q-41 -31 -89.5 -48.5t-105.5 -20.5h-6.5t-6.5 -1h-7.5h-6.5q-107 1 -164 44t-62 117v7.5v6.5q0 42 14 67.5t35 47.5q9 9 18 18.5t19 19.5l110 121q11 13 18 25t7 22t-9.5 16.5t-31.5 6.5h-0.5h-1.5h-1.5h-0.5l-2 36h10.5h10.5q77 0 117.5 -27t43.5 -78v-4.5
v-4.5q0 -46 -22 -113t-49 -137q-1 -3 -2.5 -6.5t-2.5 -7.5q-2 -6 -5 -13t-5 -14q-3 -8 -5.5 -15.5t-4.5 -15.5q-4 -12 -6.5 -24.5t-2.5 -23.5q0 -16 8 -26t27 -10q28 1 47 14t36 36q10 12 19.5 27t20.5 33l39 -75v0zM413 484q0 -46 -38.5 -79t-92.5 -33t-92.5 33t-38.5 79
q0 47 38.5 79.5t92.5 32.5t92.5 -32.5t38.5 -79.5v0z" />
    <glyph glyph-name="exclamdown" unicode="&#xa1;" horiz-adv-x="312" 
d="M296 -204h-283l94 509h94l95 -509v0zM285 460q0 -46 -38.5 -79t-92.5 -33t-92.5 33t-38.5 79q0 47 38.5 79.5t92.5 32.5t92.5 -32.5t38.5 -79.5v0z" />
    <glyph glyph-name="logicalnot" unicode="&#xac;" horiz-adv-x="400" 
d="M387 136h-46v116h-331v46h375v-4h2v-158v0z" />
    <glyph glyph-name="radical" unicode="&#x221a;" 
 />
    <glyph glyph-name="florin" unicode="&#x192;" 
 />
    <glyph glyph-name="approxequal" unicode="&#x2248;" 
 />
    <glyph glyph-name="Delta" unicode="&#x2206;" 
 />
    <glyph glyph-name="guillemotleft" unicode="&#xab;" horiz-adv-x="331" 
d="M158 97l-173 177l173 170v-101l-72 -71l72 -73v-102v0zM318 97l-172 177l172 170v-101l-72 -71l72 -73v-102v0z" />
    <glyph glyph-name="guillemotright" unicode="&#xbb;" horiz-adv-x="349" 
d="M180 274l-174 -176v101l72 73l-72 71v101l174 -170v0zM340 274l-174 -176v101l72 73l-72 71v101l174 -170v0z" />
    <glyph glyph-name="ellipsis" unicode="&#x2026;" horiz-adv-x="933" 
d="M287 42q0 -46 -38.5 -78.5t-92.5 -32.5t-92.5 32.5t-38.5 78.5q0 47 38.5 79.5t92.5 32.5t92.5 -32.5t38.5 -79.5v0zM597 42q0 -46 -38.5 -78.5t-92.5 -32.5t-92.5 32.5t-38.5 78.5q0 47 38.5 79.5t92.5 32.5t92.5 -32.5t38.5 -79.5v0zM907 42q0 -46 -38.5 -78.5
t-92.5 -32.5t-92.5 32.5t-38.5 78.5q0 47 38.5 79.5t92.5 32.5t92.5 -32.5t38.5 -79.5v0z" />
    <glyph glyph-name="Agrave" unicode="&#xc0;" horiz-adv-x="935" 
d="M909 -56h-311l-65 176h-288l-43 -176l-159 2l298 691l-21 69h311l278 -762v0zM509 185l-137 370l-111 -370h248v0zM580 777l-21 -48l-182 62q-13 4 -22.5 14t-9.5 25q0 18 12.5 31.5t30.5 13.5q9 0 38 -14t61 -32q3 -1 5.5 -2.5t5.5 -3.5q25 -14 47.5 -26.5t34.5 -19.5v0
z" />
    <glyph glyph-name="Atilde" unicode="&#xc3;" horiz-adv-x="935" 
d="M909 -56h-311l-65 176h-288l-43 -176l-159 2l298 691l-21 69h311l278 -762v0zM509 185l-137 370l-111 -370h248v0zM678 791q-15 -19 -30 -31.5t-29 -21.5q-18 -9 -35.5 -13t-36.5 -4q-22 0 -38 8t-31 18q-2 2 -4.5 3.5t-5.5 3.5q-11 7 -23.5 13t-27.5 6q-5 0 -10 -0.5
t-9 -1.5q-12 -3 -24.5 -12t-26.5 -27l-55 48q29 38 60.5 51.5t65.5 13.5q22 0 38.5 -8t30.5 -17q3 -2 5.5 -3.5t4.5 -3.5q12 -7 24 -12.5t27 -5.5h6t5 1q15 1 29.5 9.5t31.5 29.5l58 -44v0z" />
    <glyph glyph-name="Otilde" unicode="&#xd5;" horiz-adv-x="873" 
d="M833 325q0 -163 -116.5 -279t-280.5 -116q-163 0 -279.5 116t-116.5 279q0 164 116.5 280.5t279.5 116.5q164 0 280.5 -116.5t116.5 -280.5v0zM700 326q0 149 -87.5 255t-211.5 106q-12 0 -24 -1.5t-23 -3.5v-713q11 -1 23 -2.5t24 -1.5q124 0 211.5 106t87.5 255v0z
M648 791q-15 -19 -30 -31.5t-29 -21.5q-18 -9 -35.5 -13t-36.5 -4q-22 0 -38 8t-31 18q-2 2 -4.5 3.5t-5.5 3.5q-11 7 -23.5 13t-27.5 6q-5 0 -10 -0.5t-9 -1.5q-12 -3 -24.5 -12t-26.5 -27l-55 48q29 38 60.5 51.5t65.5 13.5q22 0 38.5 -8t30.5 -17q3 -2 5.5 -3.5t4.5 -3.5
q12 -7 24 -12.5t27 -5.5h6t5 1q15 1 29.5 9.5t31.5 29.5l58 -44v0z" />
    <glyph glyph-name="OE" unicode="&#x152;" horiz-adv-x="1281" 
d="M1223 372l-332 51v-411l308 47v-115h-611v5q-31 -10 -64.5 -16t-68.5 -6q-164 0 -280.5 116t-116.5 280t116.5 280t280.5 116q35 0 68.5 -6t64.5 -17v8h584v-114l-281 46v-165l332 44v-143v0zM588 24v598q-36 29 -78.5 45.5t-89.5 16.5q-12 0 -24 -1t-24 -3v-714l24 -2
t24 -1q47 0 89.5 16.5t78.5 44.5v0z" />
    <glyph glyph-name="oe" unicode="&#x153;" horiz-adv-x="1053" 
d="M1005 229h-336v-275q57 1 100.5 32.5t68.5 83.5l67 -68q-40 -34 -93 -53.5t-116 -19.5q-49 0 -91.5 11.5t-78.5 33.5q-35 -22 -77.5 -33.5t-91.5 -11.5q-138 0 -223.5 87t-85.5 211t85.5 212t223.5 88q49 0 91.5 -12t77.5 -34q36 22 78.5 34t91.5 12q137 0 222.5 -87.5
t86.5 -210.5v0zM384 -46v546q-94 0 -148 -80t-54 -193q0 -112 54 -192t148 -80v-1zM870 258q-7 102 -60.5 172t-140.5 70v-242h201v0z" />
    <glyph glyph-name="endash" horiz-adv-x="487" 
d="M473 254h-453v136h453v-136v0z" />
    <glyph glyph-name="emdash" unicode="&#x2014;" horiz-adv-x="706" 
d="M720 254h-733v136h733v-136v0z" />
    <glyph glyph-name="quotedblleft" unicode="&#x201c;" 
 />
    <glyph glyph-name="quotedblright" unicode="&#x201d;" 
 />
    <glyph glyph-name="quoteleft" unicode="&#x2018;" 
 />
    <glyph glyph-name="quoteright" unicode="&#x2019;" 
 />
    <glyph glyph-name="divide" unicode="&#xf7;" horiz-adv-x="400" 
d="M253 162q0 -3 -1 -7t-3 -8q-5 -11 -15 -21t-21 -11h-1.5h-1.5h-9q-3 0 -7 1t-7 3q-8 4 -14.5 11t-10.5 14q-2 3 -3 6.5t-1 6.5v9q0 12 10 23t22 17l8 2t7 1q19 0 33.5 -14t14.5 -33v0zM400 237h-405v76h405v-76v0zM253 382q0 -3 -1 -7t-3 -8q-5 -11 -15 -21t-21 -11h-1.5
h-1.5h-9q-3 0 -7 1t-7 3q-8 4 -14.5 11t-10.5 14q-2 3 -3 6.5t-1 6.5v9q0 12 10 23t22 17l8 2t7 1q19 0 33.5 -14t14.5 -33v0z" />
    <glyph glyph-name="lozenge" unicode="&#x25ca;" 
 />
    <glyph glyph-name="ydieresis" unicode="&#xff;" horiz-adv-x="788" 
d="M756 508l-320 -722q-11 -25 -43.5 -43t-76.5 -18q-51 0 -87 24t-36 58q0 33 36 57t87 24q27 0 50.5 -7t39.5 -19l34 82h-177l-223 565h291l166 -453l116 453l143 -1v0z" />
    <glyph glyph-name="Ydieresis" unicode="&#x178;" horiz-adv-x="716" 
d="M684 706l-200 -352v-409h-282v409l-169 352h312l104 -280l88 280h147v0zM353 792q0 -3 -1 -7t-3 -8q-5 -11 -15 -21t-21 -11h-1.5h-1.5h-9q-3 0 -7 1t-7 3q-8 4 -14.5 11t-10.5 14q-2 3 -3 6.5t-1 6.5v9q0 12 10 23t22 17l8 2t7 1q19 0 33.5 -14t14.5 -33v0zM483 792
q0 -3 -1 -7t-3 -8q-5 -11 -15 -21t-21 -11h-1.5h-1.5h-9q-3 0 -7 1t-7 3q-8 4 -14.5 11t-10.5 14q-2 3 -3 6.5t-1 6.5v9q0 12 10 23t22 17l8 2t7 1q19 0 33.5 -14t14.5 -33v0z" />
    <glyph glyph-name="fraction" unicode="&#x2215;" 
 />
    <glyph glyph-name="currency" unicode="&#xa4;" horiz-adv-x="631" 
d="M602 314l-33 -27h-213v-235q46 0 83 20.5t63 56.5l56 -56q-37 -22 -81 -35t-94 -13q-127 0 -210.5 75.5t-96.5 186.5h-47l33 27h12v5.5v4.5v2.5v2.5v2.5v2.5h-45l33 28h14q13 110 96.5 186t210.5 76q50 0 94 -13t81 -36l-56 -55q-26 36 -62.5 56.5t-83.5 20.5v-235h246
l-33 -28h-213v-20h246v0z" />
    <glyph glyph-name="guilsinglleft" unicode="&#x2039;" horiz-adv-x="149" 
d="M158 197l-173 177l173 170v-101l-72 -71l72 -73v-102v0z" />
    <glyph glyph-name="guilsinglright" unicode="&#x203a;" horiz-adv-x="149" 
d="M170 374l-174 -176v101l72 73l-72 71v101l174 -170v0z" />
    <glyph glyph-name="fi" unicode="&#xf001;" 
 />
    <glyph glyph-name="fl" unicode="&#xf002;" 
 />
    <glyph glyph-name="daggerdbl" unicode="&#x2021;" 
 />
    <glyph glyph-name="periodcentered" unicode="&#x2219;" horiz-adv-x="200" 
d="M153 382q0 -3 -1 -7t-3 -8q-5 -11 -15 -21t-21 -11h-1.5h-1.5h-9q-3 0 -7 1t-7 3q-8 4 -14.5 11t-10.5 14q-2 3 -3 6.5t-1 6.5v9q0 12 10 23t22 17l8 2t7 1q19 0 33.5 -14t14.5 -33v0z" />
    <glyph glyph-name="quotesinglbase" unicode="&#x201a;" horiz-adv-x="285" 
d="M239 -47l-168 -151l-58 51l83 75q-10 5 -19 10.5t-17 12.5q-18 16 -27 36.5t-9 42.5q0 21 9 41.5t27 36.5q19 17 42 24.5t47 7.5h5.5h4.5q21 -2 41 -10t36 -22t24.5 -32t10.5 -36q1 -3 1 -5.5v-5.5v-5.5t-1 -4.5q-1 -18 -9.5 -34.5t-22.5 -30.5v-1z" />
    <glyph glyph-name="quotedblbase" unicode="&#x201e;" horiz-adv-x="524" 
d="M239 -47l-168 -151l-58 51l83 75q-10 5 -19 10.5t-17 12.5q-18 16 -27 36.5t-9 42.5q0 21 9 41.5t27 36.5q19 17 42 24.5t47 7.5h5.5h4.5q21 -2 41 -10t36 -22t24.5 -32t10.5 -36q1 -3 1 -5.5v-5.5v-5.5t-1 -4.5q-1 -18 -9.5 -34.5t-22.5 -30.5v-1zM499 -47l-168 -151
l-58 51l83 75q-10 5 -19 10.5t-17 12.5q-18 16 -27 36.5t-9 42.5q0 21 9 41.5t27 36.5q19 17 42 24.5t47 7.5h5.5h4.5q21 -2 41 -10t36 -22t24.5 -32t10.5 -36q1 -3 1 -5.5v-5.5v-5.5t-1 -4.5q-1 -18 -9.5 -34.5t-22.5 -30.5v-1z" />
    <glyph glyph-name="perthousand" unicode="&#x2030;" horiz-adv-x="661" 
d="M418 49q0 -43 -31.5 -74.5t-75.5 -31.5q-45 0 -76 31t-31 75t31.5 76t75.5 32t75.5 -32t31.5 -76v0zM357 49q0 19 -14 32.5t-32 13.5q-19 0 -32.5 -13t-13.5 -33q0 -19 13.5 -32.5t32.5 -13.5t32.5 13.5t13.5 32.5v0zM642 49q0 -43 -32 -74.5t-76 -31.5t-75.5 31
t-31.5 75t31.5 76t75.5 32t76 -32t32 -76v0zM580 49q0 19 -14 32.5t-32 13.5q-19 0 -32 -13t-13 -33q0 -19 13 -32.5t32 -13.5t32.5 13.5t13.5 32.5v0zM380 627l-239 -684h-68l238 684h69v0zM237 503q0 -44 -31.5 -75.5t-75.5 -31.5q-45 0 -77 31.5t-32 75.5t32.5 76
t76.5 32q43 0 75 -32t32 -76v0zM174 503q0 19 -13 32.5t-31 13.5q-19 0 -32.5 -13t-13.5 -33q0 -19 13.5 -32t32.5 -13q18 0 31 13t13 32v0z" />
    <glyph glyph-name="Acircumflex" unicode="&#xc2;" horiz-adv-x="935" 
d="M909 -56h-311l-65 176h-288l-43 -176l-159 2l298 691l-21 69h311l278 -762v0zM509 185l-137 370l-111 -370h248v0zM611 725h-93l-42 44l-41 -44h-93l120 129h29l120 -129v0z" />
    <glyph glyph-name="Ecircumflex" unicode="&#xca;" horiz-adv-x="699" 
d="M667 375l-332 51v-412l308 47v-115h-611v760h584v-114l-281 47v-165l332 44v-143v0zM461 725h-93l-42 44l-41 -44h-93l120 129h29l120 -129v0z" />
    <glyph glyph-name="Aacute" unicode="&#xc1;" horiz-adv-x="935" 
d="M909 -56h-311l-65 176h-288l-43 -176l-159 2l298 691l-21 69h311l278 -762v0zM509 185l-137 370l-111 -370h248v0zM651 820q0 -15 -9.5 -25t-23.5 -14l-180 -62l-22 48q12 7 34.5 19.5t47.5 26.5q3 2 5.5 3.5t5.5 2.5q32 18 61 32t38 14q18 0 30.5 -13.5t12.5 -31.5v0z
" />
    <glyph glyph-name="Edieresis" unicode="&#xcb;" horiz-adv-x="699" 
d="M667 375l-332 51v-412l308 47v-115h-611v760h584v-114l-281 47v-165l332 44v-143v0zM323 792q0 -3 -1 -7t-3 -8q-5 -11 -15 -21t-21 -11h-1.5h-1.5h-9q-3 0 -7 1t-7 3q-8 4 -14.5 11t-10.5 14q-2 3 -3 6.5t-1 6.5v9q0 12 10 23t22 17l8 2t7 1q19 0 33.5 -14t14.5 -33v0z
M453 792q0 -3 -1 -7t-3 -8q-5 -11 -15 -21t-21 -11h-1.5h-1.5h-9q-3 0 -7 1t-7 3q-8 4 -14.5 11t-10.5 14q-2 3 -3 6.5t-1 6.5v9q0 12 10 23t22 17l8 2t7 1q19 0 33.5 -14t14.5 -33v0z" />
    <glyph glyph-name="Egrave" unicode="&#xc8;" horiz-adv-x="699" 
d="M667 375l-332 51v-412l308 47v-115h-611v760h584v-114l-281 47v-165l332 44v-143v0zM410 777l-21 -48l-182 62q-13 4 -22.5 14t-9.5 25q0 18 12.5 31.5t30.5 13.5q9 0 38 -14t61 -32q3 -1 5.5 -2.5t5.5 -3.5q25 -14 47.5 -26.5t34.5 -19.5v0z" />
    <glyph glyph-name="Iacute" unicode="&#xcd;" horiz-adv-x="334" 
d="M319 -55h-304v761h304v-761v0zM341 820q0 -15 -9.5 -25t-23.5 -14l-180 -62l-22 48q12 7 34.5 19.5t47.5 26.5q3 2 5.5 3.5t5.5 2.5q32 18 61 32t38 14q18 0 30.5 -13.5t12.5 -31.5v0z" />
    <glyph glyph-name="Icircumflex" unicode="&#xce;" horiz-adv-x="334" 
d="M319 -55h-304v761h304v-761v0zM301 725h-93l-42 44l-41 -44h-93l120 129h29l120 -129v0z" />
    <glyph glyph-name="Idieresis" unicode="&#xcf;" horiz-adv-x="334" 
d="M319 -55h-304v761h304v-761v0zM153 792q0 -3 -1 -7t-3 -8q-5 -11 -15 -21t-21 -11h-1.5h-1.5h-9q-3 0 -7 1t-7 3q-8 4 -14.5 11t-10.5 14q-2 3 -3 6.5t-1 6.5v9q0 12 10 23t22 17l8 2t7 1q19 0 33.5 -14t14.5 -33v0zM283 792q0 -3 -1 -7t-3 -8q-5 -11 -15 -21t-21 -11
h-1.5h-1.5h-9q-3 0 -7 1t-7 3q-8 4 -14.5 11t-10.5 14q-2 3 -3 6.5t-1 6.5v9q0 12 10 23t22 17l8 2t7 1q19 0 33.5 -14t14.5 -33v0z" />
    <glyph glyph-name="Igrave" unicode="&#xcc;" horiz-adv-x="334" 
d="M319 -55h-304v761h304v-761v0zM280 777l-21 -48l-182 62q-13 4 -22.5 14t-9.5 25q0 18 12.5 31.5t30.5 13.5q9 0 38 -14t61 -32q3 -1 5.5 -2.5t5.5 -3.5q25 -14 47.5 -26.5t34.5 -19.5v0z" />
    <glyph glyph-name="Oacute" unicode="&#xd3;" horiz-adv-x="873" 
d="M833 325q0 -163 -116.5 -279t-280.5 -116q-163 0 -279.5 116t-116.5 279q0 164 116.5 280.5t279.5 116.5q164 0 280.5 -116.5t116.5 -280.5v0zM700 326q0 149 -87.5 255t-211.5 106q-12 0 -24 -1.5t-23 -3.5v-713q11 -1 23 -2.5t24 -1.5q124 0 211.5 106t87.5 255v0z
M591 820q0 -15 -9.5 -25t-23.5 -14l-180 -62l-22 48q12 7 34.5 19.5t47.5 26.5q3 2 5.5 3.5t5.5 2.5q32 18 61 32t38 14q18 0 30.5 -13.5t12.5 -31.5v0z" />
    <glyph glyph-name="Ocircumflex" unicode="&#xd4;" horiz-adv-x="873" 
d="M833 325q0 -163 -116.5 -279t-280.5 -116q-163 0 -279.5 116t-116.5 279q0 164 116.5 280.5t279.5 116.5q164 0 280.5 -116.5t116.5 -280.5v0zM700 326q0 149 -87.5 255t-211.5 106q-12 0 -24 -1.5t-23 -3.5v-713q11 -1 23 -2.5t24 -1.5q124 0 211.5 106t87.5 255v0z
M571 725h-93l-42 44l-41 -44h-93l120 129h29l120 -129v0z" />
    <glyph glyph-name="apple" unicode="&#xf000;" 
 />
    <glyph glyph-name="Ograve" unicode="&#xd2;" 
 />
    <glyph glyph-name="Uacute" unicode="&#xda;" horiz-adv-x="654" 
d="M625 325q0 -163 -81 -279t-192 -116q-174 0 -248 80.5t-74 243.5v71.5v154.5v154.5v71.5h292v-737q8 -1 15.5 -2.5t14.5 -1.5q78 0 139.5 106t61.5 255v121l-50 259h121q0 -1 0.5 -60.5t0.5 -130.5v-129.5v-60.5v0zM511 820q0 -15 -9.5 -25t-23.5 -14l-180 -62l-22 48
q12 7 34.5 19.5t47.5 26.5q3 2 5.5 3.5t5.5 2.5q32 18 61 32t38 14q18 0 30.5 -13.5t12.5 -31.5v0z" />
    <glyph glyph-name="Ucircumflex" unicode="&#xdb;" horiz-adv-x="654" 
d="M625 325q0 -163 -81 -279t-192 -116q-174 0 -248 80.5t-74 243.5v71.5v154.5v154.5v71.5h292v-737q8 -1 15.5 -2.5t14.5 -1.5q78 0 139.5 106t61.5 255v121l-50 259h121q0 -1 0.5 -60.5t0.5 -130.5v-129.5v-60.5v0zM461 725h-93l-42 44l-41 -44h-93l120 129h29l120 -129
v0z" />
    <glyph glyph-name="Ugrave" unicode="&#xd9;" horiz-adv-x="654" 
d="M625 325q0 -163 -81 -279t-192 -116q-174 0 -248 80.5t-74 243.5v71.5v154.5v154.5v71.5h292v-737q8 -1 15.5 -2.5t14.5 -1.5q78 0 139.5 106t61.5 255v121l-50 259h121q0 -1 0.5 -60.5t0.5 -130.5v-129.5v-60.5v0zM410 777l-21 -48l-182 62q-13 4 -22.5 14t-9.5 25
q0 18 12.5 31.5t30.5 13.5q9 0 38 -14t61 -32q3 -1 5.5 -2.5t5.5 -3.5q25 -14 47.5 -26.5t34.5 -19.5v0z" />
    <glyph glyph-name="dotlessi" unicode="&#x131;" horiz-adv-x="343" 
d="M313 -56h-283v566h283v-566v0z" />
    <glyph glyph-name="circumflex" unicode="&#x2dc;" horiz-adv-x="200" 
d="M231 725h-93l-42 44l-41 -44h-93l120 129h29l120 -129v0z" />
    <glyph glyph-name="tilde" unicode="&#x2c6;" horiz-adv-x="485" 
d="M438 781q-15 -19 -30 -31.5t-29 -21.5q-18 -9 -35.5 -13t-36.5 -4q-22 0 -38 8t-31 18q-2 2 -4.5 3.5t-5.5 3.5q-11 7 -23.5 13t-27.5 6q-5 0 -10 -0.5t-9 -1.5q-12 -3 -24.5 -12t-26.5 -27l-55 48q29 38 60.5 51.5t65.5 13.5q22 0 38.5 -8t30.5 -17q3 -2 5.5 -3.5
t4.5 -3.5q12 -7 24 -12.5t27 -5.5h6t5 1q15 1 29.5 9.5t31.5 29.5l58 -44v0z" />
    <glyph glyph-name="macron" unicode="&#x2c9;" horiz-adv-x="200" 
d="M220 727h-235v76h235v-76v0z" />
    <glyph glyph-name="breve" unicode="&#x2d8;" 
 />
    <glyph glyph-name="dotaccent" unicode="&#x2d9;" 
 />
    <glyph glyph-name="ring" unicode="&#x2da;" 
 />
    <glyph glyph-name="cedilla" unicode="&#xb8;" horiz-adv-x="200" 
d="M182 -106q0 -42 -32 -65t-71 -23l-32 -1l20 63q21 2 34 6.5t13 20.5q0 12 -9 15t-23 3h-4.5h-4.5q-5 0 -10 -0.5t-10 0.5h-2.5h-2.5h-3h-3l38 111h71l-19 -55q25 -8 37.5 -26t12.5 -48v-1z" />
    <glyph glyph-name="hungarumlaut" unicode="&#x2ba;" 
 />
    <glyph glyph-name="ogonek" unicode="&#x2db;" 
 />
    <glyph glyph-name="caron" unicode="&#x2c7;" 
 />
    <glyph glyph-name="Lslash" unicode="&#x141;" 
 />
    <glyph glyph-name="lslash" unicode="&#x142;" 
 />
    <glyph glyph-name="Scaron" unicode="&#x160;" horiz-adv-x="647" 
d="M641 199q0 -112 -94 -190.5t-227 -78.5q-67 0 -116.5 20.5t-95.5 49.5q-19 12 -38 25t-39 26l55 106l12 -24t12 -25q17 -33 38.5 -64t50.5 -46q5 -3 10.5 -6t10.5 -5q23 -10 47 -14.5t53 -4.5t41.5 13.5t11.5 32.5q0 6 -1 11.5t-3 11.5q-4 12 -11 23t-17 20l-183 164
q-53 38 -84.5 92t-31.5 116q0 112 94 191t227 79h5.5h5.5q61 -2 119.5 -23.5t103.5 -62.5l-38 -108q-7 12 -14 25t-15 26q-17 30 -38.5 57.5t-49.5 42.5q-9 5 -19.5 7t-21.5 3h-5.5h-5.5h-6.5h-6.5q-4 -1 -7.5 -1h-6.5q-29 -1 -43 -17t-13 -39q0 -5 1 -10.5t2 -11.5
q4 -14 12.5 -27.5t20.5 -23.5l182 -153q53 -37 84.5 -91t31.5 -116v0zM512 887l-142 -152h-29l-142 152h95l62 -64l61 64h95v0z" />
    <glyph glyph-name="scaron" unicode="&#x161;" 
 />
    <glyph glyph-name="Zcaron" unicode="&#x17d;" 
 />
    <glyph glyph-name="zcaron" unicode="&#x17e;" 
 />
    <glyph glyph-name="brokenbar" unicode="&#xa6;" horiz-adv-x="75" 
d="M48 -200h-46v490h46v-490v0zM48 360h-46v440h46v-440v0z" />
    <glyph glyph-name="Eth" unicode="&#xd0;" horiz-adv-x="757" 
d="M722 323q0 -155 -98 -266.5t-237 -111.5l-303 -2v226h-50v35h50v499l301 1q140 0 238.5 -112t98.5 -269v0zM583 321q0 124 -51 218.5t-112 118.5q-9 3 -17 5t-16 2v-461h42v-35h-42v-190q8 1 16 3t17 5q61 23 112 117.5t51 216.5v0z" />
    <glyph glyph-name="eth" unicode="&#xf0;" horiz-adv-x="707" 
d="M675 583h-81q27 -37 41.5 -83t14.5 -96v-178q0 -121 -86 -205.5t-223 -84.5q-138 0 -223.5 87t-85.5 211t85.5 212t223.5 88q8 0 15.5 -0.5t14.5 -1.5v51h-91v23h91v71q-30 0 -56 -9t-48 -26v53q18 4 37.5 6t39.5 2q74 0 132.5 -26t98.5 -71h100v-23v0zM368 -39v546
q-94 0 -148 -80t-54 -193q0 -112 54 -192t148 -80v-1z" />
    <glyph glyph-name="Yacute" unicode="&#xdd;" 
 />
    <glyph glyph-name="yacute" unicode="&#xfd;" 
 />
    <glyph glyph-name="Thorn" unicode="&#xde;" horiz-adv-x="720" 
d="M688 318q0 -100 -99 -178t-239 -78h-3h-4h-3.5h-3.5v-116h-303v757h303v-128h14q140 0 239 -78t99 -179v0zM501 318q0 89 -41 153.5t-110 64.5h-6.5t-7.5 -1v-436h4h3q2 -1 4 -1h3q69 0 110 65t41 155v0z" />
    <glyph glyph-name="thorn" unicode="&#xfe;" horiz-adv-x="680" 
d="M649 271q0 -121 -85.5 -206t-223.5 -85h-6.5h-6.5t-6.5 0.5t-6.5 0.5v-180h-283v226v225v225.5v225.5h283v-142h26q138 0 223.5 -84.5t85.5 -205.5v0zM515 271q0 110 -54 188t-147 79v-533q93 0 147 78.5t54 187.5v0z" />
    <glyph glyph-name="minus" unicode="&#x2212;" horiz-adv-x="400" 
d="M400 237h-405v76h405v-76v0z" />
    <glyph glyph-name="multiply" unicode="&#xd7;" horiz-adv-x="400" 
d="M373 289l-123 -124l122 -123l-51 -52l-123 122l-124 -122l-51 52l121 123l-122 125l51 51l124 -122l125 122l51 -52v0z" />
    <glyph glyph-name="onesuperior" unicode="&#xb9;" horiz-adv-x="176" 
d="M156 411h-141v239l141 65v-304v0z" />
    <glyph glyph-name="twosuperior" unicode="&#xb2;" horiz-adv-x="277" 
d="M259 408h-243v42l142 225h-1.5h-1.5q-19 0 -36.5 -9.5t-28.5 -26.5q-3 -4 -5 -9.5t-4 -10.5h-35q2 10 5.5 19.5t9.5 18.5q16 26 41.5 39t53.5 13q15 0 30 -4t28 -13q26 -16 39 -41t13 -53q0 -4 -0.5 -7.5t-0.5 -7.5q-2 -12 -6 -23t-10 -21q-1 -1 -18 -28t-40 -64h68v-39
v0z" />
    <glyph glyph-name="threesuperior" unicode="&#xb3;" horiz-adv-x="254" 
d="M242 501q0 -40 -36 -68.5t-87 -28.5q-34 0 -62.5 13t-44.5 35l23 32q6 -16 23 -27t40 -15v117l-28 27l77 83h-119v39h171v-40l-66 -72q47 -4 78 -31t31 -64v0z" />
    <glyph glyph-name="onehalf" unicode="&#xbd;" horiz-adv-x="655" 
d="M579 785l-490 -950h-78l490 950h78v0zM632 -56h-325v56l190 302h-1.5h-1.5h-3h-3q-24 -2 -46.5 -14t-35.5 -35q-4 -6 -7 -12.5t-5 -13.5h-46q2 13 7 25.5t13 24.5q21 34 55.5 52t71.5 18q20 0 40 -6t38 -17q34 -21 51.5 -55t17.5 -72q0 -20 -6 -40t-17 -38
q-1 -1 -23.5 -37.5t-53.5 -84.5l90 -1v-52v0zM200 305h-189v321l189 87v-408v0z" />
    <glyph glyph-name="onequarter" unicode="&#xbc;" horiz-adv-x="677" 
d="M579 785l-490 -950h-78l490 950h78v0zM648 -128h-190v130h-168l-31 52l167 300l46 -24l-153 -276h139v213h190v-395v0zM200 305h-189v321l189 87v-408v0z" />
    <glyph glyph-name="threequarters" unicode="&#xbe;" horiz-adv-x="681" 
d="M599 785l-490 -950h-78l490 950h78v0zM668 -128h-190v130h-168l-31 52l167 300l46 -24l-153 -276h139v213h190v-395v0zM304 431q0 -54 -48.5 -91.5t-116.5 -37.5q-46 0 -84 17.5t-59 45.5l31 43q8 -21 30.5 -35.5t53.5 -19.5v156l-38 36l103 111h-158v52h228v-52l-88 -97
q62 -5 104 -41.5t42 -86.5v0z" />
    <glyph glyph-name="franc" unicode="&#x20a3;" 
 />
    <glyph glyph-name="Gbreve" unicode="&#x11e;" 
 />
    <glyph glyph-name="gbreve" unicode="&#x11f;" 
 />
    <glyph glyph-name="Idot" unicode="&#x130;" 
 />
    <glyph glyph-name="Scedilla" unicode="&#x15e;" 
 />
    <glyph glyph-name="scedilla" unicode="&#x15f;" 
 />
    <glyph glyph-name="Cacute" unicode="&#x106;" 
 />
    <glyph glyph-name="cacute" unicode="&#x107;" 
 />
    <glyph glyph-name="Ccaron" unicode="&#x10c;" 
 />
    <glyph glyph-name="ccaron" unicode="&#x10d;" 
 />
    <glyph glyph-name="dslash" unicode="&#x111;" 
 />
    <glyph glyph-name="arrowright" unicode="&#x2192;" 
 />
    <glyph glyph-name="house" unicode="&#x2302;" 
 />
    <glyph glyph-name="endash" unicode="&#x2013;" horiz-adv-x="487" 
d="M473 254h-453v136h453v-136v0z" />
    <glyph glyph-name="sfthyphen" unicode="&#xad;" 
 />
    <glyph glyph-name="filledbox" unicode="&#x25a0;" 
 />
    <glyph glyph-name="bullet" unicode="&#x2022;" horiz-adv-x="300" 
d="M254 217q-17 -24 -42.5 -37t-51.5 -15h-4h-4q-19 0 -38.5 6t-36.5 19q-24 18 -37 43t-15 51v4v4q0 20 6 39t19 36q18 24 43 37t51 15h4h4q20 0 39 -6t36 -19q24 -17 37 -42.5t15 -51.5v-4v-4q0 -19 -6 -38.5t-19 -36.5v0z" />
    <glyph glyph-name="overstore" unicode="&#xaf;" 
 />
    <glyph glyph-name="degree" unicode="&#xb0;" horiz-adv-x="250" 
d="M234 613q0 -44 -31.5 -75.5t-75.5 -31.5q-45 0 -76.5 31.5t-31.5 75.5t32 75.5t76 31.5q43 0 75 -31.5t32 -75.5v0zM193 613q0 27 -19.5 47t-46.5 20q-28 0 -47.5 -19.5t-19.5 -47.5t19.5 -47.5t47.5 -19.5q27 0 46.5 19.5t19.5 47.5v0z" />
    <glyph glyph-name="middot" unicode="&#xb7;" 
 />
    <glyph glyph-name="underscoredbl" unicode="&#x2017;" 
 />
    <glyph glyph-name="exclamdbl" unicode="&#x203c;" 
 />
    <glyph glyph-name="nsuperior" unicode="&#x207f;" 
 />
    <glyph glyph-name="peseta" unicode="&#x20a7;" 
 />
    <glyph glyph-name="Gamma" unicode="&#x393;" 
 />
    <glyph glyph-name="Theta" unicode="&#x398;" 
 />
    <glyph glyph-name="Phi" unicode="&#x3a6;" 
 />
    <glyph glyph-name="alpha" unicode="&#x3b1;" 
 />
    <glyph glyph-name="delta" unicode="&#x3b4;" 
 />
    <glyph glyph-name="epsilon" unicode="&#x3b5;" 
 />
    <glyph glyph-name="sigma" unicode="&#x3c3;" 
 />
    <glyph glyph-name="tau" unicode="&#x3c4;" 
 />
    <glyph glyph-name="phi" unicode="&#x3c6;" 
 />
    <glyph glyph-name="arrowleft" unicode="&#x2190;" 
 />
    <glyph glyph-name="arrowup" unicode="&#x2191;" 
 />
    <glyph glyph-name="arrowdown" unicode="&#x2193;" 
 />
    <glyph glyph-name="arrowboth" unicode="&#x2194;" 
 />
    <glyph glyph-name="arrowupdn" unicode="&#x2195;" 
 />
    <glyph glyph-name="arrowupdnbase" unicode="&#x21a8;" 
 />
    <glyph glyph-name="orthogonal" unicode="&#x221f;" 
 />
    <glyph glyph-name="intersection" unicode="&#x2229;" 
 />
    <glyph glyph-name="equivalence" unicode="&#x2261;" 
 />
    <glyph glyph-name="revlogicalnot" unicode="&#x2310;" 
 />
    <glyph glyph-name="integraltp" unicode="&#x2320;" 
 />
    <glyph glyph-name="integralbt" unicode="&#x2321;" 
 />
    <glyph glyph-name="filledrect" unicode="&#x25ac;" 
 />
    <glyph glyph-name="circle" unicode="&#x25cb;" 
 />
    <glyph glyph-name="triagup" unicode="&#x25b2;" 
 />
    <glyph glyph-name="triagrt" unicode="&#x25ba;" 
 />
    <glyph glyph-name="triagdn" unicode="&#x25bc;" 
 />
    <glyph glyph-name="triaglf" unicode="&#x25c4;" 
 />
    <glyph glyph-name="invbullet" unicode="&#x25d8;" 
 />
    <glyph glyph-name="invcircle" unicode="&#x25d9;" 
 />
    <glyph glyph-name="Rcaron" unicode="&#x158;" 
 />
    <glyph glyph-name="upblock" unicode="&#x2580;" 
 />
    <glyph glyph-name="dnblock" unicode="&#x2584;" 
 />
    <glyph glyph-name="block" unicode="&#x2588;" 
 />
    <glyph glyph-name="lfblock" unicode="&#x258c;" 
 />
    <glyph glyph-name="rtblock" unicode="&#x2590;" 
 />
    <glyph glyph-name="ltshade" unicode="&#x2591;" 
 />
    <glyph glyph-name="shade" unicode="&#x2592;" 
 />
    <glyph glyph-name="dkshade" unicode="&#x2593;" 
 />
    <glyph glyph-name="smileface" unicode="&#x263a;" 
 />
    <glyph glyph-name="invsmileface" unicode="&#x263b;" 
 />
    <glyph glyph-name="sun" unicode="&#x263c;" 
 />
    <glyph glyph-name="female" unicode="&#x2640;" 
 />
    <glyph glyph-name="male" unicode="&#x2642;" 
 />
    <glyph glyph-name="spade" unicode="&#x2660;" 
 />
    <glyph glyph-name="club" unicode="&#x2663;" 
 />
    <glyph glyph-name="heart" unicode="&#x2665;" 
 />
    <glyph glyph-name="diamond" unicode="&#x2666;" 
 />
    <glyph glyph-name="musicalnote" unicode="&#x266a;" 
 />
    <glyph glyph-name="musicalnotedbl" unicode="&#x266b;" 
 />
    <glyph glyph-name="Abreve" unicode="&#x102;" 
 />
    <glyph glyph-name="abreve" unicode="&#x103;" 
 />
    <glyph glyph-name="Aogonek" unicode="&#x104;" 
 />
    <glyph glyph-name="aogonek" unicode="&#x105;" 
 />
    <glyph glyph-name="Dcaron" unicode="&#x10e;" 
 />
    <glyph glyph-name="dcaron" unicode="&#x10f;" 
 />
    <glyph glyph-name="Dslash" unicode="&#x110;" 
 />
    <glyph glyph-name="Eogonek" unicode="&#x118;" 
 />
    <glyph glyph-name="eogonek" unicode="&#x119;" 
 />
    <glyph glyph-name="Ecaron" unicode="&#x11a;" 
 />
    <glyph glyph-name="ecaron" unicode="&#x11b;" 
 />
    <glyph glyph-name="Lacute" unicode="&#x139;" 
 />
    <glyph glyph-name="lacute" unicode="&#x13a;" 
 />
    <glyph glyph-name="Lcaron" unicode="&#x13d;" 
 />
    <glyph glyph-name="lcaron" unicode="&#x13e;" 
 />
    <glyph glyph-name="Nacute" unicode="&#x143;" 
 />
    <glyph glyph-name="nacute" unicode="&#x144;" 
 />
    <glyph glyph-name="Ncaron" unicode="&#x147;" 
 />
    <glyph glyph-name="ncaron" unicode="&#x148;" 
 />
    <glyph glyph-name="Odblacute" unicode="&#x150;" 
 />
    <glyph glyph-name="odblacute" unicode="&#x151;" 
 />
    <glyph glyph-name="Racute" unicode="&#x154;" 
 />
    <glyph glyph-name="racute" unicode="&#x155;" 
 />
    <glyph glyph-name="rcaron" unicode="&#x159;" 
 />
    <glyph glyph-name="Sacute" unicode="&#x15a;" 
 />
    <glyph glyph-name="sacute" unicode="&#x15b;" 
 />
    <glyph glyph-name="Tcedilla" unicode="&#x162;" 
 />
    <glyph glyph-name="tcedilla" unicode="&#x163;" 
 />
    <glyph glyph-name="Tcaron" unicode="&#x164;" 
 />
    <glyph glyph-name="tcaron" unicode="&#x165;" 
 />
    <glyph glyph-name="Uring" unicode="&#x16e;" 
 />
    <glyph glyph-name="uring" unicode="&#x16f;" 
 />
    <glyph glyph-name="Udblacute" unicode="&#x171;" 
 />
    <glyph glyph-name="udblacute" unicode="&#x170;" 
 />
    <glyph glyph-name="Zacute" unicode="&#x179;" 
 />
    <glyph glyph-name="zacute" unicode="&#x17a;" 
 />
    <glyph glyph-name="Zdot" unicode="&#x17b;" 
 />
    <glyph glyph-name="zdot" unicode="&#x17c;" 
 />
    <glyph glyph-name="Ldot" unicode="&#x13f;" 
 />
    <glyph glyph-name="ldot" unicode="&#x140;" 
 />
    <glyph glyph-name="2500" unicode="&#x2500;" 
 />
    <glyph glyph-name="2502" unicode="&#x2502;" 
 />
    <glyph glyph-name="250c" unicode="&#x250c;" 
 />
    <glyph glyph-name="2510" unicode="&#x2510;" 
 />
    <glyph glyph-name="2514" unicode="&#x2514;" 
 />
    <glyph glyph-name="2518" unicode="&#x2518;" 
 />
    <glyph glyph-name="251c" unicode="&#x251c;" 
 />
    <glyph glyph-name="2524" unicode="&#x2524;" 
 />
    <glyph glyph-name="252c" unicode="&#x252c;" 
 />
    <glyph glyph-name="2534" unicode="&#x2534;" 
 />
    <glyph glyph-name="253c" unicode="&#x253c;" 
 />
    <glyph glyph-name="2550" unicode="&#x2550;" 
 />
    <glyph glyph-name="2551" unicode="&#x2551;" 
 />
    <glyph glyph-name="2552" unicode="&#x2552;" 
 />
    <glyph glyph-name="2553" unicode="&#x2553;" 
 />
    <glyph glyph-name="2554" unicode="&#x2554;" 
 />
    <glyph glyph-name="2555" unicode="&#x2555;" 
 />
    <glyph glyph-name="2556" unicode="&#x2556;" 
 />
    <glyph glyph-name="2557" unicode="&#x2557;" 
 />
    <glyph glyph-name="2558" unicode="&#x2558;" 
 />
    <glyph glyph-name="2559" unicode="&#x2559;" 
 />
    <glyph glyph-name="255a" unicode="&#x255a;" 
 />
    <glyph glyph-name="255b" unicode="&#x255b;" 
 />
    <glyph glyph-name="255c" unicode="&#x255c;" 
 />
    <glyph glyph-name="255d" unicode="&#x255d;" 
 />
    <glyph glyph-name="255e" unicode="&#x255e;" 
 />
    <glyph glyph-name="255f" unicode="&#x255f;" 
 />
    <glyph glyph-name="2560" unicode="&#x2560;" 
 />
    <glyph glyph-name="2561" unicode="&#x2561;" 
 />
    <glyph glyph-name="2562" unicode="&#x2562;" 
 />
    <glyph glyph-name="2563" unicode="&#x2563;" 
 />
    <glyph glyph-name="2564" unicode="&#x2564;" 
 />
    <glyph glyph-name="2565" unicode="&#x2565;" 
 />
    <glyph glyph-name="2566" unicode="&#x2566;" 
 />
    <glyph glyph-name="2567" unicode="&#x2567;" 
 />
    <glyph glyph-name="2568" unicode="&#x2568;" 
 />
    <glyph glyph-name="2569" unicode="&#x2569;" 
 />
    <glyph glyph-name="256a" unicode="&#x256a;" 
 />
    <glyph glyph-name="256b" unicode="&#x256b;" 
 />
    <glyph glyph-name="256c" unicode="&#x256c;" 
 />
    </font>
</defs>
</svg>
